<svg xmlns="http://www.w3.org/2000/svg" xmlns:xlink="http://www.w3.org/1999/xlink" viewBox="0 0 3000 3000" width="100%" height="100%"> <g id="Scene-1-39" overflow="visible">  <g id="Green_1000.svg_Layer-1_.__3CGroup.__3E" transform="translate(799.5 740.55)">   <path fill="#000" stroke="none" d="M137.05 632.7L101.65 670.7 59.2 689.25 59.8 714.35 102.25 777.85 129.95 816.65 189.55 875.05 253.55 922.55 280.85 940.95 260.55 955.4 226.2 988.2 182.85 1027.95 151.95 1065.1 120.4 1112.95 84.75 1171.95 55.15 1240.1 31.05 1320.65 16.25 1408.55 13.2 1502.1 17.25 1568.1Q31.75 1638.55 32.5 1641.1 32.95 1642.75 42.75 1672.4 47.7 1687.2 52.5 1701.7L90 1764.55 143 1807.45 188 1821.45 254.3 1814.65 299.5 1795.55Q266.65 1801.95 235.4 1765.95 210.4 1737.15 187.55 1682.65 171.25 1643.75 157.65 1595.9 153.4 1580.9 149.9 1566.85L147.3 1555.8Q128.75 1435.1 147.6 1328.1 162.65 1242.5 200.8 1169.55 228.1 1117.4 264.15 1076.8 275.45 1064.1 286.25 1054.1L294.8 1046.65Q316.65 1027.3 322.3 1024.65 326.2 1022.85 331.55 1023.55 335.2 1024.05 347.05 1027.25 383.3 1037.05 424.4 1043.75 498.25 1055.8 609.5 1063.55 727.5 1071.75 829.6 1058.4 911.3 1047.7 979.15 1023.8 1027.6 1006.75 1064.3 984.75 1082.65 973.8 1091.3 966.2L1074.4 955.05 1014.5 982.55 965.3 999.95Q711.525 1034.727 524.5 985.4 374.6 945.85 274.2 854.4 202.45 789.1 162.55 704.35 150.1 677.9 142.35 652.65L137.05 632.7M961.75 1001.2L954.55 1003.75 864.4 1022.5Q857.7 1023.9 915.3 1011.5 950.515 1003.866 961.75 1001.2Z"/>   <path fill="#000" stroke="none" d="M8.8 505.3Q0 522.25 0 551.1 0 579.85 8.8 596.6 18.7 615.35 38.15 615.35 58.65 615.35 73.1 596.45 87.6 577.55 87.6 550.8 87.6 524.05 73.1 505.15 58.65 486.25 38.15 486.25 18.75 486.25 8.8 505.3Z"/>   <path fill="#000" stroke="none" d="M1023.3 1963.85Q1023.85 1963.85 1025.05 1963.75L1130.45 1950.35 1170.75 1943.8Q1174.7 1943.2 1177.75 1940.8L1191.45 1930.6Q1203.8 1921.35 1202.6 1903.4 1202.25 1898.45 1200.3 1888.1 1198.4 1878.05 1198.15 1873.3L1189.45 1849.8 1180.35 1839.9Q1183.95 1844.05 1175.65 1854.9 1169.7 1862.6 1163.8 1867.3 1154.65 1874.6 1141.8 1880.4 1131.85 1884.9 1117.65 1889.3 1084.4 1899.45 1042.4 1904.5 1015.4 1907.75 965.75 1910.5 930 1912.45 903.7 1911.95 870.15 1911.25 841.95 1906.6 828.7 1904.4 820.35 1902.4 808.4 1899.5 799.45 1895.45 785.35 1889.15 778.5 1879.35 770.55 1868.15 773.7 1854.25 775.85 1844.6 781.7 1820.65 786.85 1799.65 789.2 1788.25 799.3 1741.8 804.15 1718.45 812.6 1677.55 816.65 1648.25 820.05 1632.9 820.7 1623.75 821.85 1606.75 812.25 1606.35 788.35 1605.45 764.9 1607.75L719.9 1814.75Q717.15 1827.2 716.25 1834 714.75 1844.75 715.6 1853.4 716.45 1861.85 721.5 1878.4 726.5 1894.7 727.25 1903.4 727.6 1907.35 726.45 1913.85 725.75 1917.55 724.25 1925.25 721.85 1939.35 727.25 1945.8 730.05 1949.15 735.2 1950.9 738.55 1952 744.85 1952.9 782 1957.95 827.35 1961.1 858.75 1963.3 910.15 1965.55L1023.3 1963.85Z"/>   <path fill="#000" stroke="none" d="M1477.65 1316.45L1526.2 1227.05 1546.55 1150.15Q1497.6 1283.35 1426.8 1334 1370.15 1374.55 1302.15 1360.7 1253.6 1350.8 1204.2 1314.65 1188.8 1303.4 1175.1 1290.85L1164.55 1280.55 1168.75 1337.7 1163.35 1390.25 1163.35 1421.95 1217.05 1441.6 1265.95 1446.6 1347.45 1427.95 1420.35 1380.6 1477.65 1316.45Z"/>   <path fill="#000" stroke="none" d="M1241.25 1053.4Q1245.15 1051.65 1248.1 1051.15L1245.35 1048.5 1225.25 1051.2 1202.4 1061.25 1199.5 1079.75Q1196.85 1098.9 1198.05 1101.85 1199.9 1106.55 1218.6 1137.85L1234.1 1170.9 1235.25 1185.55Q1236.2 1200.4 1235.1 1201.5 1234 1202.6 1230 1213.65 1228.05 1219.2 1226.25 1224.5 1258.35 1216.2 1251.7 1168.65 1249.65 1153.8 1243.95 1136.8L1238.65 1122.75Q1214.85 1082.95 1229.1 1063.05 1233.55 1056.85 1241.25 1053.4Z"/>   <path fill="#000" stroke="none" d="M1337.95 918.15Q1349.4 912.6 1357.8 909.95L1285.35 930.85 1256 952.7 1236.45 980.7 1231.25 1015.7Q1231 1017.2 1232.8 1030.5 1234.7 1044.35 1235.85 1046.75 1236.9 1048.95 1248.6 1054.7 1254.45 1057.6 1260.1 1060L1276.65 1075Q1256.9 1032.75 1265.25 997.3 1271.95 968.95 1296.2 946.2 1313.55 929.95 1337.95 918.15Z"/>   <path fill="#000" stroke="none" d="M431.3 16.6L365.4 38.95 284.4 86.55 201.25 155.05 127.95 240.75 75 319 47.1 413 87.6 422.2 110.6 437Q115.5 414.6 127.45 379.8 151.3 310.2 186.35 248.05 235.4 161.05 299.85 101.55 360.107 45.821 431.3 16.6M480.4 0Q455.241 6.814 431.3 16.6L480.4 0Z"/>   <path fill="#000" stroke="none" d="M386.75 1096.7Q386.9 1095.85 386.4 1095.1 385.9 1094.4 385.05 1094.25 384.3 1094.15 383.7 1094.5 383 1094.85 382.75 1095.55 350.2 1169.95 336.2 1250.2 313.05 1383 353.75 1481.25L353.9 1481.55 396.9 1552.45 397.15 1553.05 401.55 1570.05Q403.9 1579 403.55 1588.2 403.2 1597.5 400.2 1606.2L395.4 1620.35Q395.1 1621.2 394.25 1621.6L367.65 1633.25Q367.1 1633.5 366.55 1633.4L344.6 1630.9Q343.75 1630.8 343.05 1631.35 342.4 1631.9 342.3 1632.75 342.25 1633 342.35 1633.5L350.05 1662.8 350.1 1663.15 353.75 1712.85Q353.75 1713.35 353.65 1713.6L339.05 1762.7 314.8 1912.65Q314.75 1913.05 314.8 1913.4L320.8 1939.85Q321 1940.8 322 1941.3L381.3 1967.95Q381.55 1968.1 381.8 1968.1L450.8 1980.35 535.4 1984.35 595.6 1979.85 595.85 1979.85 679.45 1963.8 719.9 1950.8Q721.15 1950.4 721.3 1949.05L727.65 1898.1 727.65 1898 717.5 1865.6Q718.35 1869.15 718.35 1872.55 718.35 1886.3 704.75 1898.9 691.55 1911 667.6 1920.4 643.6 1929.75 612.45 1934.9 580.25 1940.2 544.95 1940.2 509.7 1940.2 477.45 1934.9 446.35 1929.75 422.35 1920.4 398.35 1911 385.2 1898.9 371.55 1886.3 371.55 1872.55 371.55 1865.1 377.05 1855.4 382.45 1845.9 390.15 1839.35L391.85 1833.55Q391.05 1833.9 390.25 1833.55 389.45 1833.2 389.15 1832.4 388.9 1831.85 389.05 1831.25L429.5 1632.15Q433.1 1614.4 448.15 1604.15 463.15 1593.95 481 1597.15 504.95 1601.4 532.5 1603.85 563.484 1606.568 596.3 1606.7 559.405 1605.736 524.1 1588.65 489.65 1572 460.35 1541.85 432.7 1513.5 413.9 1477.75 395.45 1442.7 389.25 1407.65 382.25 1368.3 379.05 1335.6 375.35 1298.2 375.85 1263 376.55 1214.9 378.4 1181.8 381 1135.95 386.75 1096.7Z"/>   <path fill="#000" stroke="none" d="M1118.6 1508.25L1107.9 1521.25Q1093.9 1536.95 1077.55 1550.7 1025.2 1594.7 968.8 1602.25L973.45 1604.3Q979.9 1606.6 988.8 1607.55 1017.35 1610.65 1059.95 1599.6L1064.35 1579.25 1073.2 1562.45 1083.7 1552.25 1118.6 1508.25Z"/>  </g>  <path id="Layer4-39_0_1_STROKES" stroke="#000" stroke-width="13" stroke-linejoin="miter" stroke-linecap="round" stroke-miterlimit="10" fill="none" d="M1124.35 2330.5L1127.05 2335.85Q1130.35 2342.7 1133.55 2350.45 1143.75 2375.2 1148.85 2399.2 1165.15 2475.95 1124.35 2516.25 1105.4 2534.95 1078.15 2546.75 1052.4 2557.9 1023.8 2561 964.1 2567.5 919.1 2533.7 880.35 2504.6 854.2 2447.1 832.3 2398.95 821 2335.6 811.75 2283.35 811.55 2233.8 811.15 2101.65 853.1 1985.3 886.6 1892.25 945.55 1813.5 987.7 1757.25 1038.25 1713.8 1054.05 1700.2 1068.85 1689.5L1080.45 1681.55"/>  <path id="Layer5-39_0_1_STROKES" stroke="#000" stroke-width="13" stroke-linejoin="miter" stroke-linecap="round" stroke-miterlimit="10" fill="none" d="M1188.65 1822.4Q1150.85 1903.1 1136.3 1995.55 1128.35 2046.15 1127.7 2085.6 1126.9 2134.9 1137.05 2175.3 1140.9 2190.5 1145.3 2202.7 1150.45 2216.95 1157 2229 1162 2238.25 1172.7 2254.1 1184.9 2272.15 1189.25 2279.45 1207.4 2310 1205.8 2334.75 1204.25 2358.9 1184.95 2368.95 1166.55 2378.55 1141.15 2371.05"/>  <path id="Layer6-39_0_1_STROKES" stroke="#000" stroke-width="13" stroke-linejoin="miter" stroke-linecap="round" stroke-miterlimit="10" fill="none" d="M1875.85 1822.35L1880.25 1826.95Q1885.8 1833.05 1891.7 1840.7 1910.55 1865.05 1925.7 1895.15 1974.05 1991.55 1966.85 2109.5L1964.85 2129Q1961.3 2153.3 1953.6 2177.6 1928.85 2255.25 1871.55 2303.1 1867.45 2306.5 1865.05 2311.25 1862.65 2316 1862.35 2321.3 1857.45 2411.05 1854 2517.3L1860.25 2517.15Q1868.3 2517.1 1876.85 2517.85 1904.35 2520.3 1927.5 2529.55 1959.95 2542.55 1979.15 2567.4 2003.15 2598.4 2004.9 2646.3 2005.4 2659.4 1996.7 2669.9 1988 2680.4 1974.05 2683.65 1903.5 2700.05 1812.6 2704.95 1675.2 2712.35 1520.65 2690.8 1509.95 2695.25 1490.7 2700.9 1452.2 2712.25 1409.5 2718.45 1272.85 2738.2 1145.55 2698.8 1129.1 2693.7 1119.85 2680.35 1110.55 2666.95 1112.55 2651.2 1120.2 2592.3 1138.55 2503.3"/>  <path id="Layer7-39_0_1_STROKES" stroke="#000" stroke-width="13" stroke-linejoin="miter" stroke-linecap="round" stroke-miterlimit="10" fill="none" d="M1142.45 2598.25Q1149.65 2593.65 1162.4 2586.95 1187.8 2573.6 1215.4 2563.25 1303.55 2530.15 1379.7 2539.65 1471.25 2551.1 1505.05 2587.15 1538.95 2623.35 1520.7 2690.85"/>  <path id="Layer8-39_0_1_STROKES" stroke="#000" stroke-width="13" stroke-linejoin="miter" stroke-linecap="round" stroke-miterlimit="10" fill="none" d="M1854.1 2517.4Q1820.75 2517.2 1779 2522.75 1695.5 2533.85 1653.45 2562.55"/>  <path id="Layer9-39_0_1_STROKES" stroke="#000" stroke-width="13" stroke-linejoin="miter" stroke-linecap="round" stroke-miterlimit="10" fill="none" d="M1511.35 2594.8L1564.25 2347.4"/>  <path id="Layer1-390-39_0_1_STROKES" stroke="#000" stroke-width="13" stroke-linejoin="miter" stroke-linecap="round" stroke-miterlimit="10" fill="none" d="M1962.85 2162.55Q2046.1 2205.1 2131.4 2174.7 2169.75 2161.05 2205.3 2133.25 2239.3 2106.75 2267.85 2069.6 2295.75 2033.4 2315.65 1990.85 2335.6 1948.25 2345.35 1904.05 2355.35 1858.65 2353.5 1816.35 2351.6 1771.95 2336.85 1734.8 2317.1 1685.15 2263.25 1663.75 2216.55 1645.15 2154.3 1650.7 2145.2 1651.4 2131.9 1654.35 2105.4 1660.2 2084.55 1671.5 2055.45 1687.25 2041.95 1711.55 2025.05 1741.9 2033.7 1783.9"/>  <path id="Layer1-391-39_0_1_STROKES" stroke="#000" stroke-width="13" stroke-linejoin="miter" stroke-linecap="round" stroke-miterlimit="10" fill="none" d="M2078.05 1825.25Q2071.5 1804.8 2054.15 1794.85 2035.35 1784 2014.55 1792.95 1999.35 1799.45 1995.35 1814.15 1991.75 1827.05 1997.55 1842.35 2002.7 1855.35 2010.55 1866.6 2037.1 1906.1 2036.7 1931.3 2036.5 1941.05 2032.3 1949.45 2029.6 1954.9 2023.6 1962.2"/>  <path id="Layer1-392-39_0_1_STROKES" stroke="#000" stroke-width="13" stroke-linejoin="miter" stroke-linecap="round" stroke-miterlimit="10" fill="none" d="M1994.05 1809.25Q1980.8 1788.45 1959.2 1764.2 1915.95 1715.7 1874.05 1698.5"/>  <path id="Layer1-393-39_0_1_STROKES" stroke="#000" stroke-width="13" stroke-linejoin="miter" stroke-linecap="round" stroke-miterlimit="10" fill="none" d="M910.15 1403.6Q896.35 1415.15 880.45 1421.25 864 1427.6 846.65 1427.6 823.8 1427.6 802.95 1416.85 782.8 1406.45 767.25 1387.45 751.7 1368.5 743.2 1343.9 734.35 1318.45 734.35 1290.6 734.35 1262.75 743.2 1237.3 751.7 1212.7 767.25 1193.75 782.8 1174.75 802.95 1164.35 823.8 1153.6 846.65 1153.6 864.05 1153.6 880.45 1159.9 896.4 1166.05 910.15 1177.6"/>  <path id="Layer1-394-39_0_1_STROKES" stroke="#000" stroke-width="14" stroke-linejoin="miter" stroke-linecap="round" stroke-miterlimit="10" fill="none" d="M847.65 1226.95Q865.8 1226.95 878.65 1245.8 891.5 1264.65 891.5 1291.35 891.5 1318 878.65 1336.9 865.8 1355.75 847.65 1355.75"/>  <path fill="#000" stroke="none" d="M1604.95 715.15Q1541.35 703.75 1475.55 703.75 1363.1 703.6 1256.15 737.45 1155.05 769.3 1068.6 830.7 984 890.95 926.1 971.9 867.05 1054.3 841.9 1149.45 841.35 1151.75 842.55 1153.8 843.75 1155.85 846.05 1156.45 848.35 1157.05 850.4 1155.85 852.4 1154.65 853.05 1152.4 877.5 1059.55 935.45 978.6 992.4 899.15 1075.3 840.05 1117.55 810.1 1163.9 787.05 1210.3 763.95 1259.65 748.4 1364.9 715.1 1475.55 715.25 1540.35 715.25 1602.9 726.45 1665.45 737.65 1724.55 759.85 1781.65 781.3 1832.7 811.85 1883.8 842.35 1927.8 881.4 2016.15 959.9 2064.65 1061.4 2078.85 1091.25 2089.2 1122.5 2091.7 1124.2 2094.25 1126.2L2104.15 1134.75Q2112.1 1142.4 2118.85 1151.35 2135.05 1172.75 2143.95 1199.3 2152.85 1225.9 2152.85 1252.95 2152.85 1283.25 2144.65 1310.15 2136.4 1337.05 2120.95 1357.4L2109.4 1370.5 2106.65 1373.15Q2091.65 1455.5 2049.4 1524.3 2007.05 1593.3 1939.3 1645.4 1856.85 1708.8 1743.9 1742.2 1630.9 1775.6 1497.95 1775.6 1387.1 1775.6 1284.8 1752.3 1182.05 1728.85 1098.05 1684.35 1010 1637.75 949.55 1572.05 889.05 1506.35 860.6 1426.35 859.75 1424.15 857.55 1423.15 855.35 1422.2 853.15 1423.1 851 1423.9 850.05 1426 849.05 1428 849.75 1430.2 878.9 1512.25 940.8 1579.55 1002.65 1646.9 1092.65 1694.55 1178.35 1739.95 1282.3 1763.6 1385.8 1787.25 1498.05 1787.25 1632.45 1787.25 1747.2 1753.35 1862.2 1719.35 1946.35 1654.65 2014.6 1602.2 2057.75 1533 2100.7 1464.1 2116.85 1381.6 2123.35 1375.4 2129.15 1368.15 2146.9 1345.9 2156.35 1316.2 2165.85 1286.5 2165.85 1253.05 2165.85 1223.9 2156.25 1195.25 2146.65 1166.55 2129.2 1143.55 2116 1125.8 2098.05 1112.85 2087.95 1083.5 2075.05 1056.5 2050.45 1004.9 2015.4 958.75 1980.3 912.6 1935.45 872.8 1890.6 833 1838.65 801.95 1786.75 770.9 1728.65 749.1 1668.5 726.55 1604.95 715.15Z"/>  <g id="body-shadow" transform="translate(722.75 2623.6)" opacity=".25">   <path fill="#000" stroke="none" d="M1224.05 58.7Q1224.05 46.75 1175.95 35.85 1129.5 25.35 1044.8 17.25 865.55 .05 612.05 .05 358.55 .05 179.3 17.25 94.6 25.35 48.1 35.85 0 46.75 0 58.7 0 70.65 48.1 81.55 94.55 92.1 179.3 100.2 358.6 117.4 612.05 117.4 865.5 117.4 1044.8 100.2 1129.5 92.1 1175.95 81.55 1224.05 70.65 1224.05 58.7Z"/>  </g>  <g id="glass-top-39" transform="translate(895.6 707.45)">   <path fill="#A3D1FF" stroke="none" d="M1120.7 327L1115.7 308.9 1072.05 254.4 1036.85 212.95 993.5 173.6 933.9 130.7 875.6 95.95 824.5 72.7 784.55 59.6 726.65 44.45 650.1 31.75 567.2 28.2 515.3 32.45 445.4 41.6 375.8 59.05 335.65 79.05 283.95 95.95 237.1 121.5 170.8 171.5 108.85 227.25 67.3 280.5 46.5 316.3 67.5 321.85 173.4 306.65 255.95 293.3 429.35 285 588.85 270.2Q806.2 282.75 809.9 282.5 813.3 282.15 893.7 289.95 975.1 297.75 977.1 299.15 978.9 300.35 1064.35 316.45 1092.6 321.8 1120.7 327Z"/>   <path fill="#C4DEFF" stroke="none" d="M1115.7 308.9L1120.7 327 1123.85 338.45 1167.25 351.75 1136.55 278.05 1074.8 208.4 1020.85 153.9 951.6 99.2 848.85 50.1 760.05 21.85 687.8 7.05 583.65 0 529.35 0 400.35 21.85 334.45 43.05 248.15 84.45 164.95 131.95 89.05 202.95 39.25 266.8 0 331.75 41.15 325.5 46.5 316.3 67.3 280.5 108.85 227.25 170.8 171.5 237.1 121.5 283.95 95.95 335.65 79.05 375.8 59.05 445.4 41.6 515.3 32.45 567.2 28.2 650.1 31.75 726.65 44.45 784.55 59.6 824.5 72.7 875.6 95.95 933.9 130.7 993.5 173.6 1036.85 212.95 1072.05 254.4 1115.7 308.9Z"/>  </g>  <g id="brain-39" transform="translate(948.1 767.05)">   <animateTransform attributeName="transform" additive="replace" type="translate" repeatCount="indefinite" dur="2.133s" keyTimes="0;.32799;.391;.453;.516;1" values="1478,928.95;1478,928.95;1478,952.998;1478,953.142;1478,928.95;1478,928.95"/>   <animateTransform attributeName="transform" additive="sum" type="scale" repeatCount="indefinite" dur="2.133s" keyTimes="0;.32799;.391;.453;.516;1" values="1,1;1,1;1,1.099;1,.853;1,1;1,1"/>   <animateTransform attributeName="transform" additive="sum" type="translate" repeatCount="indefinite" dur="2.133s" keyTimes="0;.32799;.391;.453;.516;1" values="-529.9,-161.9;-529.9,-161.9;-529.9,-161.95;-529.9,-162.1;-529.9,-161.9;-529.9,-161.9"/>   <path fill="#FF2756" stroke="none" d="M991.9 189.6L973.1 159.95 945.25 143.75 923.65 143.45Q919.8 138 916.15 132 908.75 120 909.55 117.2 910.35 114.4 901.2 102.75L891.95 91.6 856.55 82.8 834.55 76.4 818.15 50.3Q807.65 45.7 797.1 40.95 775.95 31.45 775.55 30.65 775.15 29.8 757.45 29.7L739.8 29.75 706.15 43.7 686 16.4 645.15 2.95 595.7 .05 560.3 9.05 537.75 27.05 521.9 10.6 478.4 .05 430.9 5.95 396 22.4 376.2 43.6 360.9 34.05 322.5 31.1 285.9 41.1 262.3 55.05 246.3 82.7 245.25 97.35 216.45 91.5 184.95 104.5 171.15 124.8 171.15 132.8Q159.95 132 157.2 132.2 155.1 132.4 139.35 137.75L124.05 143.05 104.55 175.15 100.25 196.2 70.2 204.95 39.9 228.65 17.45 264.2 0 317.9Q4.4 319.2 83.7 304.5 123.35 297.2 162.1 289.6L256.9 273.55 341.45 266.85 388.65 260.95Q460.7 259.4 463.2 258.25 464.75 257.55 508.4 258.55 530.25 259.05 551.8 259.65L622.85 256.05 716.55 264.15 879.5 283.35 976.6 305.7 1047.55 323.85Q1055.1 304.6 1059.85 284.25L1053.65 283.4 1046.45 253.05 1014 222.35 993.15 216.15 991.9 189.6Z"/>   <g id="brain-shade-39" transform="translate(69.6 36.35)" opacity=".25">    <path fill="#000" stroke="none" d="M229.65 133.9Q223.7 124.55 214.9 117.9 215.25 127.95 215.15 133.05 215 141.45 213.85 148.05 210.75 165.25 200.9 174.35 199.15 176 195.45 178.75 191.65 181.6 190 183.1 184.85 187.7 181.4 194.45 178.1 200.85 176.8 208.3 175.5 215.75 175.9 224.15 176.35 235.75 180.5 237.55 182.75 238.55 188.85 237.65 192.1 237.2 197.5 236.4 207.5 235.95 214.6 235.9 214.7 227.8 215.25 223.5 216.1 216.7 218.45 211.8 220.15 208.35 223.8 203.85 229.15 197.2 229.75 196.35 235.95 187.6 238.1 176.2 240.2 165.05 237.9 154 235.6 143.2 229.65 133.9Z"/>    <path fill="#000" stroke="none" d="M137.85 139.2Q139.4 133.55 142.5 125.2 134.35 121.35 126.85 120.95 118.05 120.45 111.8 124.8 105.8 128.95 102.6 137.25 99.85 144.25 99.35 153.4 99.15 157.15 99.2 162.9 99.3 171.15 99.3 172.4 99.3 173.65 98.85 177.65 98.45 181.1 98.65 182.9 98.95 185.7 99.6 186.1 99.9 186.25 103.55 186.35 122.8 186.9 141.35 181.9 137.45 176.15 135.85 168.5 134.45 161.5 135.1 153.7 135.7 147 137.85 139.2Z"/>    <path fill="#000" stroke="none" d="M275.85 66.2Q272.15 67 276.25 72.4 278.5 75.3 282.55 80.3 284.75 84.85 285.6 91.3 286.1 95.1 286.35 102.9 286.65 113.8 286.65 119.25 286.65 128.35 286.05 135.6 285.85 138.4 285.35 144 285 148.85 285.25 152.4 286.05 162.3 291.35 167.45 305.15 129.5 308.1 89.25 308.35 86.35 308.15 84.6 307.85 82.05 306.65 80.45 304.9 78.4 302.5 77.35 294.4 73.05 289.45 70.85 285.4 68.8 282.8 67.7 278 65.7 275.85 66.2Z"/>    <path fill="#000" stroke="none" d="M442.35 85Q442.1 83.8 440.75 83.35 439.7 82.95 438.15 83.1 422 84.5 405.3 95.3 392.35 103.75 377.4 119.15 372.9 123.75 370.5 126.95 367.05 131.5 365.4 135.95 363.7 140.65 362.85 149.65 361.65 161.45 361.35 166.95 360.75 176.65 361.25 184.3 362.95 209.55 370.4 216.4 373.05 218.85 401.65 216.6 399.75 200.95 399.2 193.45 398.15 180.5 398.65 170.2 399.95 143.8 411.1 126.2 415.05 120 426.8 107.1 437.5 95.4 441.7 87.45 442.45 86.4 442.35 85Z"/>    <path fill="#000" stroke="none" d="M567.2 17.3Q567.9 14.3 568.2 12.8 568.8 10.15 568.9 8.3 569 5.85 568.35 3.75 567.6 1.35 565.95 0 558.25 1.75 552.1 12.1 548.95 17.75 547.35 20.55 544.55 25.6 542 28.45 539.9 31.05 536.85 32.3 534.6 32.9 532.35 32.75 518.65 32.3 506.5 25.65 500.95 22.3 498.15 20.65 493.2 17.75 489.5 16.7 486.1 15.75 481.75 15.6 478.85 15.5 473.85 15.8 465.95 16.2 465.1 16.45 460.95 17.6 466.25 21.65 469.3 24 474.15 27 476.85 28.65 482.25 32 487.4 35.3 497.55 42.9L516.5 57Q521.45 60.7 523.75 62.7 527.65 66.1 530.1 69.55 549.8 55.95 570.5 43.7 567.55 37.55 566.7 30.8 565.8 24 567.2 17.3Z"/>    <path fill="#000" stroke="none" d="M500 47.5Q494.75 44.1 492.1 44.7 492.45 46.2 493.2 49.1 493.9 51.7 494 53.55 494.25 57.9 492.7 63.15 491.75 66.2 489.15 72.35 481.6 90.55 476.15 109.2 472.55 121.3 470.6 133.85 468.9 147.3 468.6 159.85L467 195.8Q470.9 192.4 473.15 185.65 473.8 183.65 476.15 173.4 480.75 153.35 496.8 127.1 505.9 112.65 510.45 105.35 518.6 92.4 523.3 83.2 524.8 80.55 525.3 77.65 525.95 72.45 520.45 65.75 514.65 58.5 507.35 52.95 500.85 48.05 500 47.5Z"/>    <path fill="#000" stroke="none" d="M650.05 114.45Q652.6 106.05 650.85 100 641.55 99.4 631.85 106.55 628.15 109.3 624.1 113.55 621.65 116.1 617.05 121.45 609.25 130.5 605.65 135.75 599.85 144.15 597.35 152.05 595.2 159.45 594.35 167.2 592 181.95 591.4 196.5 591.2 207.1 591.4 210.45 592.05 220.65 595.1 222.2 596.6 223 601.55 222.4 608.2 221.6 608.4 221.6 615.7 221.6 622.4 222.1 630.1 222.65 636.65 223.45 648.876 224.947 649.1 226.4L643.6 181.15Q641.5 163.95 641.4 154.7 641.2 139.95 644.85 128.8 648.6 119.3 650.05 114.45Z"/>    <path fill="#000" stroke="none" d="M735.3 69.6Q730.6 68.2 730.65 72.3 730.65 74.65 731.9 80.4 731.8 91.4 732.05 100.15 732.5 117.25 735.45 117.05 766.1 114.95 796.3 107.95 790.35 101.4 782.25 97.95 774.1 94.55 765.3 94.95 760.7 95.2 760.1 95.2 757.15 95.1 755.2 93.95 752.75 92.45 751 88.45 749.3 83.75 748.2 81.55 746.35 77.7 742.8 74.3 739 70.7 735.3 69.6Z"/>    <path fill="#000" stroke="none" d="M814.5 171.5Q813.35 170.85 811.95 171 811.05 171.4 810.5 171.95 802.9 178.85 797.35 190.45 793.3 198.8 789.2 212.55 787.2 219.25 786.25 221.65 784.35 226.7 781.95 230 781.25 231 775.9 234.8 771.45 237.95 771.5 240 771.55 243.65 777.45 243.95 780.6 244.1 785.75 243.4 798.1 242.8 809.55 247.75 813.3 249.4 814.95 249.75 818.05 250.5 820.2 249.35 822 248.4 823.3 246 824.1 244.5 825.1 241.45L831.05 222.9Q833.15 216.25 834.05 212.7 835.5 206.95 835.85 202.25 836.25 196.6 835.05 191.6 833.75 186.05 830.7 182.15 828 178.6 823.3 175.8 820.45 174.1 814.5 171.5Z"/>    <path fill="#000" stroke="none" d="M47.95 183.75Q38.65 188.25 28 195.8 6.75 210.9 .05 226.15 10.85 225.9 25.5 222.5 33.95 220.55 50.8 216.15L47.1 201.3 47.95 183.75Z"/>   </g>   <path id="Layer2-390-39_0_1_STROKES" stroke="#000" stroke-width="10" stroke-linejoin="round" stroke-linecap="round" fill="none" d="M963.4 226.3Q970.4 221.5 979.3 218.95 987.15 216.7 993.6 216.85 1000.75 217.25 1007.25 219.85 1013.75 222.3 1021.9 228.35 1030.5 234.75 1037.55 242.75 1051.1 258.15 1052.95 271.8 1053.5 275.75 1053.05 279.6M924.1 144.1Q928.75 144.8 940.6 144.1 952.15 144.3 960.5 149.55 973.35 157.6 984 173.95 995.8 192.1 995.75 207.95M712.5 44.35Q725.35 32.8 744.65 29.5 762.85 26.45 782 31.4 801.2 36.4 815.2 47.95 830.15 60.3 835 77.05 837.35 85.2 838.1 97.35 839.35 117.55 839.4 117.85M839.4 79.15Q854.6 77.4 872.5 83.05 891.4 88.95 901.4 99.7 911.8 110.85 916.8 126.1 921.8 141.4 920.15 156.95M806.5 159.95Q821.95 150.6 843.65 149 864.25 147.5 885.65 153.3 907.25 159.1 923.85 170.8 941.5 183.15 949.4 199.45 959.6 220.7 964.5 243.7 965.4 247.95 966.1 252.25 969.2 271.1 968.6 290.3M543.95 232.4Q546.4 224.9 549.3 212.05 549.75 209.95 550.2 208.1 553 195.85 554.15 191.55 562.3 161.55 580.2 136.05 598.05 110.55 622.7 93.8 647.35 77 676.55 70.45 705.75 63.9 734.65 68.65 760.45 72.85 777.25 85.4 786.95 92.65 793.35 102.7 800.15 113.4 801.8 125.1 802.7 131.35 802.15 144.5 801.65 157.3 802.7 163.85 804.3 173.7 809.65 182.2 815 190.7 822.95 195.9M543.95 18.5Q563.05 6.15 588.45 1.85 613.4 -2.45 638.05 2.05 663.75 6.7 682.8 19.8 703.45 34.05 712.5 55.8M697.9 260.35Q690.5 251.9 687.9 235.45 686.1 224.6 686.55 213.65 686.9 203.95 688.95 194.2 693.35 173.35 704.5 156.7M623.7 83.45Q621.95 62.15 628.55 41.85M384.15 34.75Q400.4 15.15 434.05 5.9 473.65 -4.85 505.6 4.55 523.6 9.85 537.95 21.6 553.1 34 560.75 50.95M361.4 208.65Q368.45 199.05 371.75 184.75 374.25 173.85 374.9 158 376.05 132.6 376.15 131.15 377.45 115.9 381.25 105.15 386.1 91.4 396.45 79.85 406.05 69.05 419.1 61.6 441.1 49.1 473.55 45.5 487.15 43.7 500.85 44.75 526.1 46.95 554.3 67.45 580.65 86.6 596.15 111.3M330.25 92.25Q330.75 80.5 333.55 68.35M247.8 105.2Q240 81.1 260.55 60 268.85 51.5 280.7 44.85 291.35 38.85 302.15 35.75 326 29 349.5 32.35 375.1 35.95 393.35 50.75 397.15 53.85 400.35 57.2M167.15 223.05L200.65 220.8Q202.6 220.65 203.7 220.35 205.3 219.85 206.1 218.75 206.95 217.65 207.1 216 207.2 215 207.05 213 205.95 196.6 208.7 180.3 211.4 164.1 217.85 148.85 225.85 130.15 237.5 119.7 244.25 113.7 253.6 109.4 261.25 105.85 271.55 103.05 297.55 95.95 324.55 99.1 355.1 102.6 372.55 118.35M453.55 253.7Q447.95 238.95 449.15 221.1 449.55 215.15 450.7 209.3 452.7 198.95 456.85 188.7 462.5 174.85 472.55 160.4 480 149.65 492.45 135.2M171.65 156Q171.65 147 174.75 133.65 178.15 119 182.55 112.55 190.15 101.35 212.25 96.75 233.65 92.3 245.75 98.1M169.1 133.4Q155.55 131.45 141.15 136 126.95 140.5 116.45 149.8 109.6 155.9 104.35 170.95 99.4 185.15 99.7 195.4 111.25 193.7 123.85 194.4 125.2 191.1 126.85 188.1 138.65 166.35 165.55 159.05 189.3 152.65 207.2 159.75M263.6 269.35Q260.85 253.2 267.25 238.05 269.35 233.15 277.2 221.5 278.55 219.35 280.15 217.05 288.85 204.4 290.85 195.05 292.7 186.65 291.1 175.9 290.05 169.1 286.65 156.85M129.15 287.35Q126.55 280.65 123.85 270.3 120.1 255.9 118.75 242.65 118.15 236.8 118 231.2 117.5 209.95 123.85 194.4M-.85 316.4Q.2 308.4 3.45 296.5 8.8 277.1 17.1 260.55 19 256.75 21.05 253.1 36.55 225.75 58.85 210.9 77.3 198.65 99.7 195.4"/>  </g>  <path fill="#2FE25F" stroke="none" d="M1767.3 1000.95Q1743.9 998.8 1709.5 992.65 1670.95 985.35 1651.65 982.15 1618.3 976.55 1593.55 975.15 1562.15 973.4 1535.2 977.55 1479.65 969.55 1400.25 975 1381.25 976.3 1332.8 980.7 1289.95 984.6 1265.3 985.95 1246 987.55 1227.3 991.95 1212.1 994.8 1180.45 995.6 1150.45 996.3 1134.3 999.95 1104.85 1007.45 1053.05 1013.2 996 1019.55 970.3 1024.95 958.3 1026.95 952.45 1028.35 942.65 1030.6 935.3 1033.95 932.3 1035.45 925.8 1035.95 919.3 1036.45 916.3 1037.95 914.55 1039.15 910.8 1039.85 905.95 1040.75 905.3 1040.95 898.55 1042.8 891.45 1043.35L874.4 1083.7 851 1146.8 844.7 1152.65 797.1 1167.95 763.25 1200.95 740.7 1252.95 740.7 1315.55 755.95 1366.2 783.35 1403.95 835.65 1426.55 861.2 1428.75 887.7 1494.2 931.95 1556.15 970.9 1597.7 1032.8 1648.15 1080.6 1677.35 1077.6 1683.9 991.3 1760.35 910.1 1868.8 852.95 1991.3 820.7 2127.4 813.95 2224.1 820.3 2315.3 837.35 2394.2 868.7 2470.05 906.8 2520.15 954.35 2551.15 1032.95 2560.95 1086.75 2542.8 1126.7 2515.15 1140.95 2502.3 1131.05 2552.3 1115.85 2643.5 1118.5 2672.85 1132.35 2689.85 1183.45 2707.6 1261.55 2723.95 1337.15 2723.95 1403.75 2718.6 1452.65 2710.2 1529.5 2689.85 1571.4 2695.9 1697.55 2705.1 1797.3 2704.8 1874.55 2699.25 1941.4 2689.85 1976.4 2682.7 2003.3 2662.55 2007.25 2645.35 2003.1 2613.2 1977 2561.05 1933.35 2530.3 1856.35 2516.4 1867.1 2310.9Q1878.7 2297.55 1882.6 2294.5 1886.5 2291.4 1929.6 2236.05L1954.6 2180.85 1965.15 2161.55 1996.3 2174.85 2058.4 2186.15 2128.95 2179.05 2172.95 2155.7 2222.25 2120.2 2264.35 2076.1 2309.45 2015.4 2333.8 1951.5 2351 1886.3 2356.15 1820.75 2349.5 1767.15 2331.85 1718.45 2299 1683.9 2254.6 1658.75 2204.1 1651.75 2160.6 1649.35 2113 1659.7 2065.2 1687.15 2038.35 1717.4 2033.4 1756.95 2038.35 1790.25 2012.15 1795.9 2000.65 1804.75 1996.3 1811.05 1957.65 1752.8 1916.95 1721.3 1876.35 1694.5 1907.8 1677.35 1971.5 1627.8 2016.6 1578.25 2064.35 1513.65 2090 1460.6 2109.45 1400.45 2156.7 1310.45Q2155.1 1305.75 2153.65 1300.9 2150.75 1291.15 2151.6 1290.25 2172.8 1268.05 2154.25 1203 2148.45 1182.7 2139.4 1160.55L2131.5 1142.45 2089.1 1102.25 2069.1 1060.15Q2062.35 1059.5 2055.35 1059.95 2046.45 1050.75 2038.1 1048.3 2034.95 1047.4 2028.6 1046.45 2019.6 1045.1 2015.4 1044.3 2007.9 1043.15 1995.65 1039.75 1979.65 1035.35 1975.85 1034.45 1892.4 1019.4 1871.2 1015.85 1813.75 1006.2 1767.3 1000.95Z"/>  <g id="brain-outline-39" transform="translate(848.85 731)">   <path fill="#000" stroke="none" d="M84.25 303.6Q83.85 304.3 83.5 304.95 89.75 304.75 96.65 303.55 97.45 302.2 98.2 300.85 91.25 302.2 84.25 303.6M45.5 313.2L41.05 323.35 45.5 313.2Q42.4 313.45 40 313.55 14.55 363.85 .2 418.15 -.4 420.45 .8 422.5 2 424.55 4.35 425.15 6.65 425.75 8.65 424.55 10.7 423.35 11.3 421.1 26.2 364.55 53.55 312.4 49.05 312.9 45.5 313.2M1065.9 159Q1023.75 121.6 974.9 92.4 926.05 63.15 871.45 42.7 814.9 21.45 755.15 10.75 695.35 .05 633.45 .05 527.75 -.1 427.15 31.7 379.9 46.6 335.55 68.7 291.2 90.75 250.8 119.4 171.35 176 116.8 252.2 98.85 277.25 84.25 303.6 91.25 302.2 98.2 300.85 111.05 278.8 125.6 258.5 179.1 183.75 257.1 128.2 296.85 100 340.4 78.35 384.05 56.65 430.45 42.05 529.5 10.7 633.45 10.9 694.35 10.9 753.2 21.45 812 31.95 867.65 52.8 921.35 72.95 969.35 101.7 1017.3 130.4 1058.7 167.1 1131.85 231.95 1176 313.9 1177.8 313.85 1182 313.6 1185.85 313.4 1188 313.35 1142.5 227 1065.9 159Z"/>   <path id="Layer1-399-39_0_1_STROKES" stroke="#000" stroke-width="11" stroke-linejoin="round" stroke-linecap="round" fill="none" d="M84.25 303.6Q91.25 302.2 98.2 300.85 106.65 299.2 115.1 297.6 167.05 287.7 216.75 279.7 287.05 268.4 352.9 260.95 364.05 259.7 375.2 258.55 463.6 249.2 548.7 246.35 599.05 244.6 648.2 245.15 655.65 245.2 663.05 245.35 724.5 246.45 784.55 250.7 914.35 259.9 1037.55 284.05L1043.75 285.25Q1054.1 287.3 1064.1 289.3 1101.35 296.9 1133.3 304.5 1142.1 306.6 1150.95 308.85 1185.6 317.5 1221.75 327.95L1230.85 333.25 1250.95 385.45M84.25 303.6Q65.4 307.35 46.3 311.35L45.5 313.2 41.05 323.35"/>  </g>  <g id="shine-39" transform="translate(1603.95 788)">   <path fill="#FFF" stroke="none" d="M338.45 188.55Q328.95 177.65 327.1 175.45 298 143.2 264.05 115.8 219.05 80.1 168.45 53 117.85 25.85 63.25 8.2 48.5 3.55 39.25 1.35L39.25 1.4Q34.45 -.1 29.35 .05 16.85 .4 8.25 9.5 -.35 18.6 0 31.1 .25 43.7 9.15 52.45 18.05 61.15 30.4 60.9L35.1 61.25Q115.3 70.2 198.3 105.15 280.15 140.35 340.7 194.35L349.25 202 338.45 188.55Z" fill-opacity=".53"/>  </g>  <path fill="#D5D5D5" stroke="none" d="M1948.1 1081.65L1948.25 1082.6Q1974.3 1088.5 1997.6 1094.4 2043.2 1105.85 2091.05 1120.6L2090.9 1120.2 2090.8 1120Q2043.8 1105.4 1998.9 1093.9 1975 1087.8 1948.1 1081.65M1550.05 1029.5L1550.05 1028.75Q1529.4 1027.95 1508.6 1027.55 1486.75 1027.15 1464.7 1027.45 1482.9 1027.7 1501 1028.05 1525.6 1028.5 1550.05 1029.5M1754.6 1018.35L1756.25 1046.4Q1828.7 1056.2 1899.1 1071L1905.6 1072.3Q1927.7 1077 1948.1 1081.65L1945.05 1057.45 1948.1 1081.65Q1975 1087.8 1998.9 1093.9 2043.8 1105.4 2090.8 1120L2073.25 1079 2063.2 1060.1Q2019.4 1046.65 1977.05 1035.85 1937.35 1025.75 1889.35 1015.55L1882.95 1014.15Q1697.55 974.95 1498.05 971.25 1479.05 970.9 1459.95 970.65L1343.5 974 1236.55 982.45Q1218.5 984.55 1200.35 986.7 1059.1 1003.55 898.35 1039.1 1059.1 1003.55 1200.35 986.7 1218.5 984.55 1236.55 982.45 1213.55 984.45 1190.35 987.2 1048.15 1004.05 886.3 1039.6L873.2 1064.55 862.3 1089.25 858.2 1100.15Q892 1092.75 925 1086.1L932.05 1062.65 925 1086.1Q980.45 1074.95 1033.55 1065.95L1036.2 1039.4 1033.55 1065.95Q1108 1053.35 1177.7 1045.05 1178.1 1045 1178.55 1044.95L1178.55 1021.4 1178.55 1044.95Q1204.9 1041.85 1231.05 1039.6 1293.2 1033.3 1353.75 1030.3L1352.15 1008.95 1353.75 1030.3 1353.85 1030.3Q1409.95 1027.45 1464.7 1027.45 1486.75 1027.15 1508.6 1027.55 1529.4 1027.95 1550.05 1028.75L1549.8 1004.8 1550.05 1028.75Q1655.2 1032.7 1756.25 1046.4L1754.6 1018.35M1756.3 1047.45L1756.25 1046.4Q1655.2 1032.7 1550.05 1028.75L1550.05 1029.5Q1655.1 1033.75 1756.3 1047.45M1756.25 1046.4L1756.3 1047.45Q1827.4 1057.1 1896.55 1071.4L1903.1 1072.8Q1926.65 1077.7 1948.25 1082.6L1948.1 1081.65Q1927.7 1077 1905.6 1072.3L1899.1 1071Q1828.7 1056.2 1756.25 1046.4Z"/>  <path id="Layer2-39_0_1_STROKES" stroke="#000" stroke-width="14" stroke-linejoin="miter" stroke-linecap="round" stroke-miterlimit="10" fill="none" d="M1756.25 1046.4L1756.3 1047.45M1948.1 1081.65L1948.25 1082.6M1550.05 1028.75L1550.05 1029.5M1756.3 1047.45L1757.7 1072.15M1754.6 1018.35L1756.25 1046.4M1356.1 1062.75L1353.75 1030.3 1352.15 1008.95M1178.55 1045.9L1178.5 1075.3M1549.8 1004.8L1550.05 1028.75M1550.05 1029.5L1550.3 1058.75M1945.05 1057.45L1948.1 1081.65M1948.25 1082.6L1951.8 1110.9M932.05 1062.65L925 1086.1M1033.55 1065.95L1033.35 1067.85M1178.55 1044.95L1178.55 1045.9M1036.2 1039.4L1033.55 1065.95M1033.35 1067.85L1030.8 1092.95M1178.55 1021.4L1178.55 1044.95M925 1086.1L924.15 1088.9 916.55 1113.9"/>  <path id="Layer2-39_0_2_STROKES" stroke="#000" stroke-width="11" stroke-linejoin="round" stroke-linecap="round" fill="none" d="M1948.1 1081.65Q1927.7 1077 1905.6 1072.3L1899.1 1071Q1828.7 1056.2 1756.25 1046.4 1655.2 1032.7 1550.05 1028.75M1459.95 970.65L1343.5 974 1236.55 982.45Q1218.5 984.55 1200.35 986.7 1059.1 1003.55 898.35 1039.1M2067.3 1059.6Q2023.75 1046.15 1981.7 1035.35 1942.3 1025.25 1894.6 1015.05L1888.25 1013.65Q1704.1 974.45 1506 970.75 1483.1 970.3 1459.95 970.65M1464.7 1027.45Q1409.95 1027.45 1353.85 1030.3L1353.75 1030.3Q1293.2 1033.3 1231.05 1039.6 1210.35 1042.05 1189.45 1044.55 1184 1045.2 1178.55 1045.9M1550.05 1028.75Q1529.4 1027.95 1508.6 1027.55 1486.75 1027.15 1464.7 1027.45M1948.1 1081.65Q1975 1087.8 1998.9 1093.9 2043.8 1105.4 2090.8 1120L2090.9 1120.2M1178.55 1045.9Q1108.35 1054.65 1033.35 1067.85 979.95 1077.25 924.15 1088.9 899.35 1094.05 874.05 1099.65"/>  <g id="outline-39" transform="translate(734.7 703.65)">   <path fill="#000" stroke="none" d="M1421.9 491.55Q1412.3 462.85 1394.85 439.85 1381.65 422.1 1363.7 409.15 1353.6 379.8 1340.7 352.8 1316.1 301.2 1281.05 255.05 1245.95 208.9 1201.1 169.1 1156.25 129.3 1104.3 98.25 1052.4 67.2 994.3 45.4 934.15 22.85 870.6 11.45 807 .05 741.2 .05 628.75 -.1 521.8 33.75 420.7 65.6 334.25 127 249.65 187.25 191.75 268.2 132.7 350.6 107.55 445.75 107 448 108.15 450 108.15 450.05 108.2 450.1 109.4 452.15 111.7 452.75 114 453.35 116.05 452.15 117.4 451.35 118.15 450.1 118.5 449.45 118.7 448.7 143.15 355.85 201.1 274.9 258.05 195.45 340.95 136.35 383.2 106.4 429.55 83.35 475.95 60.25 525.3 44.7 630.55 11.4 741.2 11.55 806 11.55 868.55 22.75 931.1 33.95 990.2 56.15 1047.3 77.6 1098.35 108.15 1149.45 138.65 1193.45 177.7 1281.8 256.2 1330.3 357.7 1344.5 387.55 1354.85 418.8 1357.35 420.5 1359.9 422.5L1369.8 431.05Q1377.75 438.7 1384.5 447.65 1400.7 469.05 1409.6 495.6 1418.5 522.2 1418.5 549.25 1418.5 579.55 1410.3 606.45 1402.05 633.35 1386.6 653.7L1375.05 666.8 1372.3 669.45Q1357.3 751.8 1315.05 820.6 1272.7 889.6 1204.95 941.7 1122.5 1005.1 1009.55 1038.5 896.55 1071.9 763.6 1071.9 652.75 1071.9 550.45 1048.6 447.7 1025.15 363.7 980.65 275.65 934.05 215.2 868.35 154.75 802.75 126.35 722.85 126.3 722.75 126.25 722.65 125.4 720.45 123.2 719.45 121 718.5 118.8 719.4 116.65 720.2 115.7 722.3 115.3 723.05 115.2 723.85 114.95 725.15 115.4 726.5 144.55 808.55 206.45 875.85 262.25 936.6 340.95 981.35 349.5 986.2 358.3 990.85 444 1036.25 547.95 1059.9 651.45 1083.55 763.7 1083.55 898.1 1083.55 1012.85 1049.65 1083.7 1028.7 1142.8 996.15 1179.7 975.8 1212 950.95 1280.25 898.5 1323.4 829.3 1366.35 760.4 1382.5 677.9 1389 671.7 1394.8 664.45 1412.55 642.2 1422 612.5 1431.5 582.8 1431.5 549.35 1431.5 520.2 1421.9 491.55Z"/>   <path id="Layer1-397-39_0_1_STROKES" stroke="#000" stroke-width="13" stroke-linejoin="miter" stroke-linecap="round" stroke-miterlimit="10" fill="none" d="M1228.5 1458.85Q1311.75 1501.4 1397.05 1471 1435.4 1457.35 1470.95 1429.55 1504.95 1403.05 1533.5 1365.9 1561.4 1329.7 1581.3 1287.15 1601.25 1244.55 1611 1200.35 1621 1154.95 1619.15 1112.65 1617.25 1068.25 1602.5 1031.1 1582.75 981.45 1528.9 960.05 1482.2 941.45 1419.95 947 1410.85 947.7 1397.55 950.65 1371.05 956.5 1350.2 967.8 1321.1 983.55 1307.6 1007.85 1290.7 1038.2 1299.35 1080.2M1343.7 1121.55Q1337.15 1101.1 1319.8 1091.15 1301 1080.3 1280.2 1089.25 1265 1095.75 1261 1110.45 1257.4 1123.35 1263.2 1138.65 1268.35 1151.65 1276.2 1162.9 1302.75 1202.4 1302.35 1227.6 1302.15 1237.35 1297.95 1245.75 1295.25 1251.2 1289.25 1258.5M118.15 450.1Q132.45 450.95 146.1 456.2 162.05 462.35 175.8 473.9M115.2 723.85Q113.75 723.9 112.3 723.9 89.45 723.9 68.6 713.15 48.45 702.75 32.9 683.75 17.35 664.8 8.85 640.2 0 614.75 0 586.9 0 559.05 8.85 533.6 17.35 509 32.9 490.05 48.45 471.05 68.6 460.65 87.55 450.9 108.15 450M175.8 699.9Q162 711.45 146.1 717.55 136.35 721.3 126.35 722.85M454.3 1118.65Q416.5 1199.35 401.95 1291.8 394 1342.4 393.35 1381.85 392.55 1431.15 402.7 1471.55 406.55 1486.75 410.95 1498.95 416.1 1513.2 422.65 1525.25 427.65 1534.5 438.35 1550.35 450.55 1568.4 454.9 1575.7 473.05 1606.25 471.45 1631 469.9 1655.15 450.6 1665.2 432.2 1674.8 406.85 1667.35 411.55 1681.5 414.5 1695.45 430.8 1772.2 390 1812.5 371.05 1831.2 343.8 1843 318.05 1854.15 289.45 1857.25 229.75 1863.75 184.75 1829.95 146 1800.85 119.85 1743.35 97.95 1695.2 86.65 1631.85 77.4 1579.6 77.2 1530.05 76.8 1397.9 118.75 1281.55 152.25 1188.5 211.2 1109.75 253.35 1053.5 303.9 1010.05 319.7 996.45 334.5 985.75L340.95 981.35M1141.55 1118.65L1145.95 1123.25Q1151.5 1129.35 1157.4 1137 1176.25 1161.35 1191.4 1191.45 1239.75 1287.85 1232.55 1405.8L1230.55 1425.3Q1227 1449.6 1219.3 1473.9 1194.55 1551.55 1137.25 1599.4 1133.15 1602.8 1130.75 1607.55 1128.35 1612.3 1128.05 1617.6 1123.15 1707.35 1119.7 1813.6L1125.95 1813.45Q1134 1813.4 1142.55 1814.15 1170.05 1816.6 1193.2 1825.85 1225.65 1838.85 1244.85 1863.7 1268.85 1894.7 1270.6 1942.6 1271.1 1955.7 1262.4 1966.2 1253.7 1976.7 1239.75 1979.95 1169.2 1996.35 1078.3 2001.25 940.9 2008.65 786.35 1987.1 775.65 1991.55 756.4 1997.2 717.9 2008.55 675.2 2014.75 538.55 2034.5 411.25 1995.1 394.8 1990 385.55 1976.65 376.25 1963.25 378.25 1947.5 385.9 1888.6 404.25 1799.6M1259.7 1105.55Q1246.45 1084.75 1224.85 1060.5 1183.2 1013.8 1142.8 996.15M1119.7 1813.6Q1086.35 1813.45 1044.65 1819 961.15 1830.1 919.1 1858.8M408.1 1894.5Q415.3 1889.9 428.05 1883.2 453.45 1869.85 481.05 1859.5 569.2 1826.4 645.35 1835.9 736.9 1847.35 770.7 1883.4 774.15 1887.1 777.05 1891.1L829.95 1643.7M777.05 1891.1Q802.75 1926.45 786.35 1987.1M390 1626.75L392.7 1632.1Q396 1638.95 399.2 1646.7 403.5 1657.05 406.85 1667.35"/>   <path id="Layer1-397-39_0_2_STROKES" stroke="#000" stroke-width="14" stroke-linejoin="miter" stroke-linecap="round" stroke-miterlimit="10" fill="none" d="M113.35 523.25Q131.5 523.25 144.35 542.1 157.2 560.95 157.2 587.65 157.2 614.3 144.35 633.2 131.5 652.05 113.35 652.05"/>  </g>  <g id="body-shade-39" transform="translate(797 1023.2)">   <path fill="#000" stroke="none" d="M386.8 814.45Q386.95 813.6 386.45 812.85 385.95 812.15 385.1 812 384.35 811.9 383.75 812.25 383.05 812.6 382.8 813.3 350.25 887.7 336.25 967.95 313.1 1100.75 353.8 1199L353.95 1199.3 396.95 1270.2 397.2 1270.8 401.6 1287.8Q403.95 1296.75 403.6 1305.95 403.25 1315.25 400.25 1323.95L395.45 1338.1Q395.15 1338.95 394.3 1339.35L367.7 1351Q367.15 1351.25 366.6 1351.15L344.65 1348.65Q343.8 1348.55 343.1 1349.1 342.45 1349.65 342.35 1350.5 342.3 1350.75 342.4 1351.25L350.1 1380.55 350.15 1380.9 353.8 1430.6Q353.8 1431.1 353.7 1431.35L339.1 1480.45 314.85 1630.4Q314.8 1630.8 314.85 1631.15L320.85 1657.6Q321.05 1658.55 322.05 1659.05L381.35 1685.7Q381.6 1685.85 381.85 1685.85L450.85 1698.1 535.45 1702.1 595.65 1697.6 595.9 1697.6 679.5 1681.55 719.95 1668.55Q721.2 1668.15 721.35 1666.8L723.55 1649.1Q723.1 1658.6 727.25 1663.55 730.05 1666.9 735.2 1668.65 738.55 1669.75 744.85 1670.65 782 1675.7 827.35 1678.85 858.75 1681.05 910.15 1683.3L1023.3 1681.6Q1023.85 1681.6 1025.05 1681.5L1130.45 1668.1 1170.75 1661.55Q1174.7 1660.95 1177.75 1658.55L1191.45 1648.35Q1203.8 1639.1 1202.6 1621.15 1202.25 1616.2 1200.3 1605.85 1198.4 1595.8 1198.15 1591.05L1189.45 1567.55 1180.35 1557.65Q1183.95 1561.8 1175.65 1572.65 1169.7 1580.35 1163.8 1585.05 1154.65 1592.35 1141.8 1598.15 1131.85 1602.65 1117.65 1607.05 1084.4 1617.2 1042.4 1622.25 1015.4 1625.5 965.75 1628.25 930 1630.2 903.7 1629.7 870.15 1629 841.95 1624.35 828.7 1622.15 820.35 1620.15 808.4 1617.25 799.45 1613.2 785.35 1606.9 778.5 1597.1 770.55 1585.9 773.7 1572 775.85 1562.35 781.7 1538.4 786.85 1517.4 789.2 1506 799.3 1459.55 804.15 1436.2 812.6 1395.3 816.65 1366 820.05 1350.65 820.7 1341.5 821.85 1324.5 812.25 1324.1 788.35 1323.2 764.9 1325.5L719.9 1532.5Q717.15 1544.95 716.25 1551.75 714.75 1562.5 715.6 1571.15 716.35 1578.55 720.3 1592.15L717.55 1583.35Q718.4 1586.9 718.4 1590.3 718.4 1604.05 704.8 1616.65 691.6 1628.75 667.65 1638.15 643.65 1647.5 612.5 1652.65 580.3 1657.95 545 1657.95 509.75 1657.95 477.5 1652.65 446.4 1647.5 422.4 1638.15 398.4 1628.75 385.25 1616.65 371.6 1604.05 371.6 1590.3 371.6 1582.85 377.1 1573.15 382.5 1563.65 390.2 1557.1L391.9 1551.3Q391.1 1551.65 390.3 1551.3 389.5 1550.95 389.2 1550.15 388.95 1549.6 389.1 1549L429.55 1349.9Q433.15 1332.15 448.2 1321.9 463.2 1311.7 481.05 1314.9 505 1319.15 532.55 1321.6 563.55 1324.3 596.4 1324.5 559.45 1323.5 524.15 1306.4 489.7 1289.75 460.4 1259.6 432.75 1231.25 413.95 1195.5 395.5 1160.45 389.3 1125.4 382.3 1086.05 379.1 1053.35 375.4 1015.95 375.9 980.75 376.6 932.65 378.45 899.55 381.05 853.7 386.8 814.45M727.25 1621.15Q727.6 1625.1 726.45 1631.6 725.8 1635.1 724.45 1642.15L727.15 1620.2Q727.2 1620.7 727.25 1621.15M38.2 204Q18.8 204 8.85 223.05 .05 240 .05 268.85 .05 297.6 8.85 314.35 18.75 333.1 38.2 333.1 58.7 333.1 73.15 314.2 87.65 295.3 87.65 268.55 87.65 241.8 73.15 222.9 58.7 204 38.2 204M164.55 .2L164.55 3.2Q156.6 2.55 146.8 5.8 140.75 7.85 129.25 13.35 117.3 19.1 111.7 21.05 101.9 24.55 94 24.2L75 36.75 47.15 130.75 87.6 139.95 110.6 154.75Q114.45 137.3 123.6 109.2 141.85 53.05 168.25 0 166.95 0 164.55 .2M1091.35 683.95L1074.45 672.8 1014.55 700.3 965.35 717.7Q711.6 752.5 524.55 703.15 374.65 663.6 274.25 572.15 202.5 506.85 162.6 422.1 150.15 395.65 142.4 370.4L137.1 350.45 101.7 388.45 59.25 407 59.85 432.1 102.3 495.6 130 534.4 189.6 592.8 253.6 640.3 280.9 658.7 260.6 673.15 226.25 705.95 182.9 745.7 152 782.85 120.45 830.7 84.8 889.7 55.2 957.85 31.1 1038.4 16.3 1126.3 13.25 1219.85 17.3 1285.85Q31.8 1356.3 32.55 1358.85 33 1360.5 42.8 1390.15 47.75 1404.95 52.55 1419.45L90.05 1482.3 143.05 1525.2 188.05 1539.2 254.35 1532.4 299.55 1513.3Q266.7 1519.7 235.45 1483.7 210.45 1454.9 187.6 1400.4 171.3 1361.5 157.7 1313.65 153.45 1298.65 149.95 1284.6L147.35 1273.55Q128.8 1152.85 147.65 1045.85 162.7 960.25 200.85 887.3 228.15 835.15 264.2 794.55 275.5 781.85 286.3 771.85L294.85 764.4Q316.7 745.05 322.35 742.4 326.25 740.6 331.6 741.3 335.25 741.8 347.1 745 383.35 754.8 424.45 761.5 498.3 773.55 609.55 781.3 727.55 789.5 829.65 776.15 911.35 765.45 979.2 741.55 1027.65 724.5 1064.35 702.5 1082.7 691.55 1091.35 683.95M961.85 718.95L954.6 721.5 864.45 740.25Q857.75 741.65 915.35 729.25 950.55 721.6 961.85 718.95M1526.2 944.8L1546.55 867.9Q1497.6 1001.1 1426.8 1051.75 1370.15 1092.3 1302.15 1078.45 1253.6 1068.55 1204.2 1032.4 1188.8 1021.15 1175.1 1008.6L1164.55 998.3 1168.75 1055.45 1163.35 1108 1163.35 1139.7 1217.05 1159.35 1265.95 1164.35 1347.45 1145.7 1420.35 1098.35 1477.65 1034.2 1526.2 944.8M1338 635.85Q1349.45 630.3 1357.85 627.65L1285.4 648.55 1256.05 670.4 1236.5 698.4 1231.3 733.4Q1231.05 734.9 1232.85 748.2 1234.75 762.05 1235.9 764.45 1236.35 765.45 1238.95 767.1L1225.25 768.95 1202.4 779 1199.5 797.5Q1196.85 816.65 1198.05 819.6 1199.9 824.3 1218.6 855.6L1234.1 888.65 1235.25 903.3Q1236.2 918.15 1235.1 919.25 1234 920.35 1230 931.4 1228.05 936.95 1226.25 942.25 1258.35 933.95 1251.7 886.4 1249.65 871.55 1243.95 854.55L1238.65 840.5Q1214.85 800.7 1229.1 780.8 1233.55 774.6 1241.25 771.15 1242.7 770.5 1244 770.05 1246.05 771.15 1248.65 772.4 1254.5 775.3 1260.15 777.7L1276.7 792.7Q1256.95 750.45 1265.3 715 1272 686.65 1296.25 663.9 1313.6 647.65 1338 635.85Z" fill-opacity=".25"/>  </g>  <path id="Layer1-39_0_1_STROKES" stroke="#000" stroke-width="14" stroke-linejoin="miter" stroke-linecap="round" stroke-miterlimit="10" fill="none" d="M1052.4 1170.15L1051 1178.55Q1049.35 1189.5 1048.1 1202 1047.3 1209.75 1046.75 1217.55L1069.15 1216.75M1023.05 1306.65L1046.7 1305.85Q1045.9 1294.5 1045.5 1282.9 1044.35 1249.95 1046.75 1217.55L1021.05 1218.45M1071.15 1304.95L1046.7 1305.85Q1050.2 1354.5 1061.3 1397.35L1084.4 1396.55M1106.8 1504.75Q1097.1 1489.25 1088.95 1472.65L1063.4 1473.5M1111.5 1471.85L1088.95 1472.65Q1071.75 1437.55 1061.3 1397.35L1036.3 1398.2M890.15 2080.1L887.5 2105.1M968.25 2094.1L965.5 2120.05M887.5 2105.1L885.05 2127.95M965.5 2120.05L963.15 2141.95M1212.9 1986L1210.45 2008.9M1324.9 2002L1322.6 2023.7M1210.45 2008.9L1207.8 2033.85M1051 2094L1049.8 2117.9 1048.6 2142.1M2260.15 1978Q2252.45 2001.85 2240.7 2024L2260.15 2038M2183.45 2058.05L2206.55 2074.75Q2226.55 2050.65 2240.7 2024L2221.15 2009.85M2154.3 2093.05L2174.8 2107.85Q2182.85 2100.55 2190.65 2092.45 2199 2083.75 2206.55 2074.75L2222.5 2086.25M2145.8 2130.65Q2150.9 2127.45 2159.05 2121.1 2167.05 2114.85 2174.8 2107.85L2193.3 2121.25M1607.55 2059.95L1608.6 2032 1609.3 2011.9M1758.7 1996.15L1762.15 2017.4M1449.85 2059.85L1452.75 2032.75 1454.95 2012M1322.6 2023.7L1319.8 2049.85M1883.8 1993.95L1892.8 2018.5M1762.15 2017.4L1766.35 2043.65M1876.25 1973.35L1883.8 1993.95M1853.95 2435.8Q1829.4 2443.05 1800.7 2448.05L1801.95 2471.25M1799.3 2423.2L1800.7 2448.05Q1753.4 2456.15 1694.9 2458.1L1694.3 2482.7M1695.45 2434.6L1694.9 2458.1Q1674.35 2458.75 1652.45 2458.65 1620.1 2458.5 1588 2456.7L1585.05 2482.55M1545.95 2453.45L1576.25 2455.95Q1582.1 2456.35 1588 2456.7L1590.45 2434.75"/>  <path id="Layer1-39_0_2_STROKES" stroke="#000" stroke-width="16" stroke-linejoin="round" stroke-linecap="round" fill="none" d="M965.5 2120.05Q924.95 2116.85 887.5 2105.1 859.45 2096.3 833.15 2082.7M1125.6 2102.7Q1086.6 2113.35 1049.8 2117.9 1006.1 2123.25 965.5 2120.05"/>  <path id="Layer1-39_0_3_STROKES" stroke="#000" stroke-width="16" stroke-linejoin="miter" stroke-linecap="round" stroke-miterlimit="10" fill="none" d="M1210.45 2008.9Q1212.95 2009.3 1215.45 2009.7 1268.2 2018.15 1322.6 2023.7M1143.95 1996.45L1162.7 2000.35Q1185 2004.75 1210.45 2008.9M1608.6 2032Q1634.5 2030.75 1660 2028.75 1712.4 2024.65 1762.15 2017.4M1322.6 2023.7Q1361.7 2027.7 1401.65 2030.2 1427.35 2031.8 1452.75 2032.75 1532.35 2035.65 1608.6 2032M1762.15 2017.4Q1825.1 2008.2 1883.8 1993.95 1916.5 1985.95 1947.9 1976.45"/>  <path fill="#000" stroke="none" d="M832.25 2091.1L831.95 2091.2 829.9 2092.3 829.65 2092.4 829.6 2092.45 829.55 2092.45 828.7 2092.95 827.8 2093.9 825.5 2096.65 824.9 2097.65 824.85 2097.75 824.85 2097.8 824.8 2097.8 824.8 2097.85 824.75 2098.05 824.5 2098.6 824.5 2098.65 824.55 2098.7 824.55 2098.75 824.65 2099.25 825.1 2099.45 825.2 2099.45 825.2 2099.5 825.4 2099.45 825.8 2099.4 826 2099.35 826.1 2099.35 827.35 2098.95 827.95 2098.65 828.25 2098.55 830.3 2097.45 830.55 2097.35 830.6 2097.3 830.65 2097.3 831.5 2096.8 832.4 2095.85 834.7 2093.1 835.3 2092.1 835.35 2092 835.35 2091.95 835.4 2091.95 835.4 2091.9 835.45 2091.7 835.7 2091.15 835.7 2091.1 835.65 2091.05 835.65 2091 835.55 2090.5 835.1 2090.3 835 2090.3 835 2090.25 834.8 2090.3 834.4 2090.35 834.2 2090.4 834.1 2090.4 832.85 2090.8 832.25 2091.1Z"/> </g><defs><style>.cls-1-204{fill:#8cc9ff;}.cls-2-204{fill:#fff;}.cls-3-204{opacity:0.32;}.cls-4-204,.cls-5-204,.cls-6-204,.cls-7-204{fill:none;}.cls-4-204,.cls-7-204{stroke:#000;stroke-width:13px;}.cls-4-204{stroke-linecap:round;}.cls-4-204,.cls-6-204,.cls-7-204{stroke-miterlimit:10;}.cls-6-204{stroke:#a12121;stroke-width:5px;}</style></defs><path class="cls-1-204" d="M1030.44,1649.18l7.67,4.68q-5.37-3.66-10.78-7.22Z"/><path class="cls-2-204" d="M1456,2300c40,8,81,14,111,42,74-23,150-34,227-37,24.06-.86,48.12-1,71.55,6,2.59-2.94,11.46-12.94,14.76-15.56,3.87-3.07,47-58.42,47-58.42l25-55.24,7-12.86c2.77-22.39,4.8-44.89,9.69-66.91-3,0-5,4-8,5-90,16-175,28-264,34a1984.81,1984.81,0,0,1-204,5c-120-3-236-9-358-29-3-1-5-4-8-5-2,37,5,73,24,106,17,28.83,38.92,56,49.19,86.44,11.76-5.63,26.43-7,38.81-9.44C1313,2279,1382,2284,1456,2300Z"/><path class="cls-3-204" d="M1765.63,1740.3l-.62.08-3.4,1.21C1766.13,1740.51,1768,1740,1765.63,1740.3Z"/><path class="cls-3-204" d="M1199.57,2304.5c2.83-.79,5.65-1.61,8.43-2.5,4-1,9,0,13,0l30-6a127.05,127.05,0,0,1,18.27-4.53c-42.27-39.18-71.6-93.32-80.47-143.32q-2.4-13.56-4.46-26.9c-18.49-3.09-37-6.36-55.83-9,2.55,36.75,10,73.92,24.78,109.48a1.4,1.4,0,0,0,.15.3l43,70.9a2.56,2.56,0,0,1,.24.56l2.86,11"/><path class="cls-4-204" d="M1865.3,2310.86a25.17,25.17,0,0,0-2.89,10.42"/><path class="cls-5-204" d="M1129.19,2128.3l13.26,3s393.84,82.19,818.57-7.83"/><path class="cls-6-204" d="M1129.19,2128.3l13.26,3s393.84,82.19,818.57-7.83"/><path class="cls-6-204" d="M1128.29,2149.37l13.26,3s393.84,82.19,818.57-7.83"/><path class="cls-7-204" d="M1127.62,2112.76s404.77,82,841.28-7.81"/><path class="cls-7-204" d="M1133.38,2168.74l13.22,3s384.77,83.67,808.43-6.12"/><path class="cls-7-204" d="M1202.65,2301.53s212.56-44.6,361.64,38.81c0,0,203.41-66.46,299.28-25.36"/><path class="cls-7-204" d="M1190,2277.75s209.77-55.75,379,33.11c0,0,203.41-66.46,299.28-25.36a49.37,49.37,0,0,1,14.2,7.94"/><path class="cls-7-204" d="M1133.38,2168.74l13.22,3s384.77,83.67,808.43-6.12"/><path class="cls-4-204" d="M1127.94,2109.19a323.69,323.69,0,0,0,9.1,66c4.69,18.63,10.62,36.6,19.91,53.7,13.08,24.09,33.7,47.25,43.47,73.16"/><path class="cls-4-204" d="M1967.47,2098q-.21,5.7-.57,11.51s-3.62,117-95.28,193.58a25.66,25.66,0,0,0-6.32,7.81"/><line class="cls-4-204" x1="1569.01" y1="2310.86" x2="1564.29" y2="2340.34"/><path class="cls-4-204" d="M1708.91,2204.41s-2.19,63.46-53.63,83.81"/><path class="cls-4-204" d="M1735.72,2205.12s-1.28,41.28-24.82,70.88"/><line class="cls-4-204" x1="1513.37" y1="2208.38" x2="1513.37" y2="2285.67"/><line class="cls-4-204" x1="1487.74" y1="2207.67" x2="1487.74" y2="2279.05"/><defs><style>.cls-1-287{fill:#fff;opacity:0.24;}</style></defs><g id="Hair_BalD_Hairs" data-name="Hair_BalD Hairs"><path class="cls-1-287" d="M916.28,1182.4c-1.87,35.57-.91,73,9.69,107.3,9.28,30,28.64,52.91,61.35,55.64,35.58,3,65.47-22.6,73.33-56.5,3.59-15.49,4.1-31.51,5.89-47.32,13-115.17,96.09-213.91,201.46-258.25,118.51-49.86,249.32-44.94,373.34-22.52,57.28,10.35,118.78,30.8,177.38,22.63,35.51-5,70.94-13,106.88-14.1a381.85,381.85,0,0,1,80.51,6.53,4.35,4.35,0,0,0,4.29-6.86h0a588.79,588.79,0,0,0-80.87-87.57c-58.71-52.08-127.08-93-203.23-121.54-78.87-29.59-162.66-44.6-249-44.6a711.63,711.63,0,0,0-215.91,33.13A663.27,663.27,0,0,0,1077,840c-55,39.2-102.06,85.81-139.83,138.54-37.34,52.12-64.57,108.8-81,168.55,0,0,34.11,1.72,60.45,26.16a5.79,5.79,0,0,1,1.88,4.09,6.05,6.05,0,0,1-1.45,4.05Z"/><path d="M1145.48,786.56a129.26,129.26,0,0,0-41.79-30.36,163.7,163.7,0,0,0-55.45-14,196.64,196.64,0,0,0-31.08.08,8,8,0,0,0-5.3,2.2,7.59,7.59,0,0,0-2.2,5.3c.17,3.8,3.31,7.83,7.5,7.5a191,191,0,0,1,40.63,1l-2-.27a152.55,152.55,0,0,1,38.48,10.33l-1.79-.76A130.57,130.57,0,0,1,1116,780.46q1.38.94,2.73,1.95l1.35,1,.66.51-.52-.41c1.75,1.39,3.48,2.81,5.16,4.28a117,117,0,0,1,9.52,9.38,7.57,7.57,0,0,0,10.61,0,7.68,7.68,0,0,0,0-10.61Z"/><path d="M1182.61,774.51a100.41,100.41,0,0,1,7.05-25.2l-.76,1.79a145.82,145.82,0,0,1,12-22.29c2.34-3.6,4.8-7.12,7.33-10.59q1.9-2.6,3.87-5.16l1-1.28-.47.61.43-.55,2.13-2.72c3-3.79,6-7.55,9.1-11.3a8.09,8.09,0,0,0,2.2-5.31,7.65,7.65,0,0,0-2.2-5.3c-2.74-2.51-8-3.25-10.6,0-15.94,19.61-31.94,39.56-40.62,63.61a96.87,96.87,0,0,0-4.91,19.71c-.28,2.09-.36,3.87.76,5.77a7.5,7.5,0,0,0,10.26,2.7c1.51-1,3.19-2.61,3.45-4.49Z"/><path d="M1164.81,778.18A155.13,155.13,0,0,0,1131,722.9a144.52,144.52,0,0,0-12.91-12,8.06,8.06,0,0,0-5.3-2.2,7.66,7.66,0,0,0-5.31,2.2c-2.52,2.75-3.24,7.95,0,10.6a144.2,144.2,0,0,1,19.44,19.31c.7.84,1.39,1.68,2.07,2.54.34.43.7.84,1,1.29,0-.07-1.15-1.51-.42-.55.2.28.41.55.62.82q2,2.7,3.93,5.5,3.81,5.58,7.09,11.5a147.92,147.92,0,0,1,6.8,14l-.76-1.79c1.11,2.64,2.15,5.31,3.1,8a8,8,0,0,0,3.45,4.48,7.68,7.68,0,0,0,5.78.76c3.64-1.18,6.64-5.27,5.24-9.23Z"/><path d="M1834.25,829a190.73,190.73,0,0,1,37.91-21.45l-1.79.75a191.41,191.41,0,0,1,34.09-10.75c3.85-.83,6.44-5.53,5.24-9.23a7.68,7.68,0,0,0-9.22-5.24,197.05,197.05,0,0,0-59,23.23q-7.61,4.51-14.75,9.73a8.14,8.14,0,0,0-3.45,4.49,7.68,7.68,0,0,0,.76,5.78c2,3.13,6.87,5.16,10.26,2.69Z"/><path d="M1800.09,806.89A95.85,95.85,0,0,0,1772,734c-2.8-2.77-7.86-3-10.61,0a7.62,7.62,0,0,0,0,10.6c2,2,3.9,4,5.69,6.21.43.51.84,1,1.26,1.55,1,1.18-1.09-1.45-.19-.25l.61.8c.83,1.13,1.64,2.28,2.42,3.44a90.39,90.39,0,0,1,8,14.81l-.76-1.8a90.45,90.45,0,0,1,6.33,23.15l-.26-2a87.39,87.39,0,0,1,.58,16.41c-.23,3.92,3.62,7.67,7.5,7.5a7.68,7.68,0,0,0,7.5-7.5Z"/><path d="M1821.21,807.76q5.74-11.21,12.52-21.85,3.39-5.31,7-10.45,1.82-2.57,3.7-5.09l1.9-2.52.41-.53c.49-.65-.52.67-.49.63.36-.48.74-1,1.11-1.42q4.44-5.67,9.2-11.07a8,8,0,0,0,2.2-5.3,7.66,7.66,0,0,0-2.2-5.31c-2.83-2.6-7.84-3.15-10.61,0a274.61,274.61,0,0,0-30.72,42.51q-3.69,6.32-7,12.83c-1.79,3.49-1,8.3,2.69,10.26,3.43,1.81,8.35,1,10.26-2.69Z"/><path d="M1389.21,855.58A127.43,127.43,0,0,0,1362.74,802a118.71,118.71,0,0,0-11.2-11.78c-2.89-2.65-7.78-3.07-10.6,0-2.65,2.89-3.09,7.78,0,10.61a120.69,120.69,0,0,1,8.82,9c1.43,1.63,2.82,3.29,4.16,5l.5.64c-.76-1-.9-1.17-.43-.55l1,1.3c.6.82,1.19,1.64,1.78,2.48a121.87,121.87,0,0,1,12.26,22.2l-.76-1.79a119,119,0,0,1,6.5,20.51,7.56,7.56,0,0,0,9.23,5.24,7.67,7.67,0,0,0,5.23-9.23Z"/><path d="M1361.18,857a402.09,402.09,0,0,0-49.76-23.4,7.51,7.51,0,0,0-8.47,11,8.69,8.69,0,0,0,4.49,3.45q4.85,1.89,9.66,3.92l-1.8-.76a390.66,390.66,0,0,1,38.3,18.72c3.43,1.91,8.35.94,10.27-2.69s1-8.22-2.69-10.26Z"/><path d="M923.89,1025.77a173.27,173.27,0,0,0-77.75-23.09,164.35,164.35,0,0,0-22.3.35,8,8,0,0,0-5.3,2.2,7.63,7.63,0,0,0-2.2,5.3c.17,3.78,3.31,7.85,7.5,7.5a164.05,164.05,0,0,1,35.37.88l-2-.27a166.78,166.78,0,0,1,42.11,11.46l-1.79-.76a166.89,166.89,0,0,1,18.78,9.38c3.39,2,8.36.9,10.26-2.69a7.64,7.64,0,0,0-2.69-10.26Z"/><path d="M917.55,1001.7a135.31,135.31,0,0,0-6.52-47c-1.21-3.73-5.25-6.53-9.23-5.24-3.71,1.2-6.54,5.23-5.23,9.23a130.42,130.42,0,0,1,5.23,22.93l-.26-2a130.6,130.6,0,0,1,1,22.1,7.56,7.56,0,0,0,7.5,7.5,7.67,7.67,0,0,0,7.5-7.5Z"/><path d="M1551.86,719c-6.15-19.43-12.92-39.36-26.41-55.06a69.64,69.64,0,0,0-13.23-11.78,7.49,7.49,0,0,0-10.26,2.69c-2,3.82-.76,7.87,2.69,10.26l1.23.87c.46.33,1.91,1.55,0,0,.67.56,1.36,1.09,2,1.66q2.11,1.8,4.07,3.8t3.71,4.14l.93,1.15c.81,1-1.21-1.6,0-.05.56.75,1.1,1.5,1.63,2.26A110.21,110.21,0,0,1,1529,699.08l-.76-1.79c3.54,8.39,6.37,17.05,9.11,25.72,1.18,3.74,5.27,6.52,9.23,5.24,3.75-1.21,6.5-5.22,5.24-9.23Z"/><path d="M1979,945.45a121.73,121.73,0,0,1,15.6-15.11c.36-.3.73-.59,1.1-.88s1.37-1.07.35-.29.25-.18.52-.39l1.14-.84c1.46-1.07,2.95-2.11,4.45-3.11q4.53-3,9.3-5.64,5.49-3,11.24-5.43l-1.79.75a123.45,123.45,0,0,1,20.3-6.53,7.56,7.56,0,0,0,5.24-9.23,7.67,7.67,0,0,0-9.23-5.23,131.08,131.08,0,0,0-56.62,29.06,119.86,119.86,0,0,0-12.21,12.27,7.94,7.94,0,0,0-2.2,5.3,7.61,7.61,0,0,0,2.2,5.3c2.81,2.59,7.87,3.17,10.61,0Z"/><path d="M1111.48,1061.32a69.39,69.39,0,0,0-34.45-22.88c-3.76-1.11-8.34,1.34-9.22,5.24a7.66,7.66,0,0,0,5.23,9.23,64.59,64.59,0,0,1,6.8,2.42l-1.79-.75a64.5,64.5,0,0,1,13.17,7.62c.81.61-.39-.36-.57-.44a4.22,4.22,0,0,1,.78.63c.47.38.93.76,1.39,1.16,1,.83,1.9,1.68,2.81,2.57a62.62,62.62,0,0,1,5.24,5.8,7.49,7.49,0,0,0,5.3,2.2,7.66,7.66,0,0,0,5.31-2.2,7.52,7.52,0,0,0,2.19-5.3,8.63,8.63,0,0,0-2.19-5.3Z"/><path d="M1116.25,1037q.26-4,.79-8.08l-.27,2a110.2,110.2,0,0,1,7.47-27.33l-.75,1.79q2.1-5,4.69-9.75c1.87-3.45,1-8.33-2.69-10.26-3.5-1.85-8.27-1-10.26,2.69a117.68,117.68,0,0,0-14,48.94c-.24,3.92,3.62,7.67,7.5,7.5a7.68,7.68,0,0,0,7.5-7.5Z"/></g><defs><style>.cls-1-251{fill:#efefef;}.cls-1-251,.cls-2-251,.cls-5-251{stroke:#000;}.cls-1-251,.cls-5-251{stroke-linecap:round;}.cls-1-251,.cls-2-251{stroke-miterlimit:10;stroke-width:13px;}.cls-2-251{fill:#232323;}.cls-3-251{opacity:0.18;}.cls-4-251{opacity:0.15;}.cls-5-251{fill:none;stroke-linejoin:round;stroke-width:12px;}</style></defs><g id="UPPER_REG" data-name="UPPER REG"><path class="cls-1-251" d="M1582,1273.48c-3.14,94-79.44,169.2-173.12,169.2-94.24,0-170.91-76.14-173.16-170.92"/><path class="cls-2-251" d="M1538.64,1273.48c-1.4,48.58-19.05,87-40.63,87-34.86,0-18.91-38.28-17.64-87"/><path class="cls-1-251" d="M2158.88,1267.15c-5.31,82.79-57.05,140.16-120.09,140.16-74.86,0-115.51-64.55-120.1-139.84"/><path class="cls-2-251" d="M2132.31,1267.12c-2.45,36.54-15.59,64.45-31.43,64.45-25.57,0-16.16-27.8-14.08-64.42"/><path class="cls-3-251" d="M1299,1271.76c0-.91,0-1.81,0-2.72h0c0-.52,0-1,0-1.57s0-1,0-1.57h0c0-.91,0-1.81,0-2.73,0-83.72,61-153.38,141.56-168.06a176.42,176.42,0,0,0-31.65-2.86c-95.66,0-173.21,76.53-173.21,170.92,0,.91,0,1.82,0,2.72h0c0,.52,0,1,0,1.57s0,1,0,1.57h0c0,.91,0,1.81,0,2.72,0,94.4,77.55,170.92,173.21,170.92a176.42,176.42,0,0,0,31.65-2.86C1360,1425.15,1299,1355.49,1299,1271.76Z"/><path class="cls-4-251" d="M1981.8,1254.76h2.94l-3-.12c0-.37,0-.74,0-1.11s0-.75,0-1.12l3-.11h-2.94c2.92-69,32.43-130.24,87.37-147.63a96.19,96.19,0,0,0-30.38-4.92c-76.12,0-116.86,70.93-120.29,152.66h-.1c0,.37,0,.74,0,1.11s0,.74,0,1.11h.1c3.43,81.74,44.17,152.67,120.29,152.67a96.19,96.19,0,0,0,30.38-4.92C2014.23,1385,1984.72,1323.74,1981.8,1254.76Z"/><path class="cls-3-251" d="M1276,1153.56S1132.63,1355,1376.16,1441.83c0,0-143.73,5.17-163.45-142C1212.71,1299.87,1205.71,1203.08,1276,1153.56Z"/><path class="cls-3-251" d="M1953.91,1145.73s-128.54,184.84,89.78,264.47c0,0-128.85,4.74-146.53-130.24C1897.16,1280,1890.88,1191.16,1953.91,1145.73Z"/><path class="cls-5-251" d="M2159.33,1267.27l-240.93-.12.27,0q-.42-7-.42-14.12c0-67.34,33.49-153.54,120.54-153.54,66.57,0,120.54,76.77,120.54,153.54q0,7.23-.46,14.23"/><path class="cls-5-251" d="M1235.69,1273.48H1582c.06-2,.1-4,.1-6,0-96.77-77.55-175.22-173.22-175.22s-173.21,78.45-173.21,175.22q0,3,.1,6Z"/></g><defs><style>.cls-1-454{opacity:0.18;}.cls-2-454{fill:none;stroke:#000;stroke-linecap:round;stroke-miterlimit:10;stroke-width:13px;}</style></defs><g id="REG_NOSE" data-name="REG NOSE"><path class="cls-1-454" d="M1822.63,1320s-22.59,80.57-141.18,31.81l16.52,19.34s26.34,14.43,28.88,15.28,40.72,5.31,40.72,5.31l33.67-15.52,21.39-20.35,3.59-23.87Z"/><path class="cls-2-454" d="M1734.22,1189.16a295.76,295.76,0,0,1,64.21,60.54c25.52,33,42,84.17,10.65,119-35.82,39.89-96.11,23-127.94-12.84"/></g><defs><style>.cls-1-425{fill:#b64fa0;}.cls-2-425{fill:#ec8abb;}.cls-3-425{fill:#fff;}.cls-4-425{fill:none;stroke:#000;stroke-linecap:round;stroke-miterlimit:10;stroke-width:13px;}.cls-5-425{opacity:0.18;}</style></defs><polygon class="cls-1-425" points="1402.13 1546.89 1398.62 1580.89 1409.01 1627.64 1432.99 1667.2 1448.4 1664.95 1478.87 1653.92 1520.51 1647.6 1567.1 1649.45 1597.89 1658.91 1620.73 1651.79 1664.51 1647.6 1698.94 1651.79 1737.85 1661.97 1767.66 1674.79 1786.68 1687.04 1820.28 1670.06 1859.59 1649.45 1886.93 1631.42 1915.81 1609.45 1922.39 1598.53 1918.4 1580.89 1910.87 1558.63 1915.1 1523.34 1928.51 1500 1903.1 1494.6 1848.04 1490.87 1743.57 1485.01 1643.96 1485.02 1569.92 1488.75 1511.34 1494.6 1461.92 1498.77 1423.1 1513.45 1402.13 1546.89"/><path class="cls-2-425" d="M1778.89,1681.47l-36.73-18.37L1690,1649.45l-55.15-1.67-29.65,9.67-26.82-3.53-54.36-3.86-67.24,11.49-17.33,7,30.22,28.41,54,19.82,51.93,7.71,53.65,1.68s58.59-8.64,61.41-9.39l60-16.29,36-13.48Z"/><polygon class="cls-3-425" points="1475.87 1500 1495.7 1538.29 1509.92 1575.57 1527.19 1556.36 1550.16 1520.51 1556.24 1490.12 1523.34 1493.69 1475.87 1500"/><polygon class="cls-3-425" points="1817.06 1494.6 1826.2 1524.24 1838.87 1568.51 1838.87 1576.25 1860.75 1561.45 1881.92 1515.57 1886.93 1495.69 1843.1 1490.12 1817.06 1494.6"/><path class="cls-4-425" d="M1969.07,1503.33s-324.86-36.77-502.62-6.13c0,0-99.3,6.13-57.62,130,13,38.73,47.9,65.87,85,80.17,86.23,33.27,190.23,18.52,274.63-13q21.45-8,42.12-17.93,10.56-5.05,20.87-10.61,21.78-11.7,42.41-25.39c15.25-10.11,30.3-20.82,43.84-33.19,7.92-7.23,4.34-13.65.74-22.05-10.37-24.22-6.65-61.26,9.81-82.18"/><path class="cls-4-425" d="M1439.47,1668.57s141-69.88,233.54,46.58"/><path class="cls-4-425" d="M1597.89,1657.79s95-36.11,188.79,28.84"/><path class="cls-4-425" d="M1817.06,1495.69s19.61,58.23,23.9,85.2c0,0,25.75-22.68,46-79.07"/><path class="cls-4-425" d="M1475.87,1497.28s27.61,53.62,34.92,79c0,0,27.38-24.45,45.45-80.56"/><path class="cls-5-425" d="M1338.12,1517c-10.56,24.43-9.42,50.58-3.27,75.73,5.39,22.1,14.72,44.7,22,66.65,1.17,3.37,2.28,6.83,3.16,10.5a102.05,102.05,0,0,1-8.9-6.56c-25.49-21.6-43-53.76-43.44-87.57-.34-22.14,9.42-48.69,30.41-58.75Z"/></svg>