<svg xmlns="http://www.w3.org/2000/svg" xmlns:xlink="http://www.w3.org/1999/xlink" viewBox="0 0 3000 3000" width="100%" height="100%"> <defs>  <filter id="filter3-57" filterUnits="objectBoundingBox" width="100%" height="100%" x="0%" y="0%">   <feComponentTransfer in="SourceGraphic" result="colorTrans">    <feFuncR type="linear" slope="1" intercept="0">     <animate attributeName="intercept" repeatCount="indefinite" dur="1.333s" keyTimes="0;.44999;.45;.49999;.5;.54999;.55;.59999;.6;.64999;.65;.69999;.7;1" values="0;0;.6196078431372549;.6196078431372549;0;0;.6196078431372549;.6196078431372549;0;0;.6196078431372549;.6196078431372549;0;0" calcMode="discrete"/>     <animate attributeName="slope" repeatCount="indefinite" dur="1.333s" keyTimes="0;.44999;.45;.49999;.5;.54999;.55;.59999;.6;.64999;.65;.69999;.7;1" values="1;1;.38;.38;1;1;.38;.38;1;1;.38;.38;1;1" calcMode="discrete"/>    </feFuncR>    <feFuncG type="linear" slope="1" intercept="0">     <animate attributeName="intercept" repeatCount="indefinite" dur="1.333s" keyTimes="0;.44999;.45;.49999;.5;.54999;.55;.59999;.6;.64999;.65;.69999;.7;1" values="0;0;.12549019607843137;.12549019607843137;0;0;.12549019607843137;.12549019607843137;0;0;.12549019607843137;.12549019607843137;0;0" calcMode="discrete"/>     <animate attributeName="slope" repeatCount="indefinite" dur="1.333s" keyTimes="0;.44999;.45;.49999;.5;.54999;.55;.59999;.6;.64999;.65;.69999;.7;1" values="1;1;.38;.38;1;1;.38;.38;1;1;.38;.38;1;1" calcMode="discrete"/>    </feFuncG>    <feFuncB type="linear" slope="1" intercept="0">     <animate attributeName="intercept" repeatCount="indefinite" dur="1.333s" keyTimes="0;.44999;.45;.49999;.5;.54999;.55;.59999;.6;.64999;.65;.69999;.7;1" values="0;0;.6196078431372549;.6196078431372549;0;0;.6196078431372549;.6196078431372549;0;0;.6196078431372549;.6196078431372549;0;0" calcMode="discrete"/>     <animate attributeName="slope" repeatCount="indefinite" dur="1.333s" keyTimes="0;.44999;.45;.49999;.5;.54999;.55;.59999;.6;.64999;.65;.69999;.7;1" values="1;1;.38;.38;1;1;.38;.38;1;1;.38;.38;1;1" calcMode="discrete"/>    </feFuncB>   </feComponentTransfer>  </filter> </defs> <g id="Scene-1-57" overflow="visible">  <g id="Green_1000.svg_Layer-1_.__3CGroup.__3E" transform="translate(799.5 740.55)">   <path fill="#000" stroke="none" d="M137.05 632.7L101.65 670.7 59.2 689.25 59.8 714.35 102.25 777.85 129.95 816.65 189.55 875.05 253.55 922.55 280.85 940.95 260.55 955.4 226.2 988.2 182.85 1027.95 151.95 1065.1 120.4 1112.95 84.75 1171.95 55.15 1240.1 31.05 1320.65 16.25 1408.55 13.2 1502.1 17.25 1568.1Q31.75 1638.55 32.5 1641.1 32.95 1642.75 42.75 1672.4 47.7 1687.2 52.5 1701.7L90 1764.55 143 1807.45 188 1821.45 254.3 1814.65 299.5 1795.55Q266.65 1801.95 235.4 1765.95 210.4 1737.15 187.55 1682.65 171.25 1643.75 157.65 1595.9 153.4 1580.9 149.9 1566.85L147.3 1555.8Q128.75 1435.1 147.6 1328.1 162.65 1242.5 200.8 1169.55 228.1 1117.4 264.15 1076.8 275.45 1064.1 286.25 1054.1L294.8 1046.65Q316.65 1027.3 322.3 1024.65 326.2 1022.85 331.55 1023.55 335.2 1024.05 347.05 1027.25 383.3 1037.05 424.4 1043.75 498.25 1055.8 609.5 1063.55 727.5 1071.75 829.6 1058.4 911.3 1047.7 979.15 1023.8 1027.6 1006.75 1064.3 984.75 1082.65 973.8 1091.3 966.2L1074.4 955.05 1014.5 982.55 965.3 999.95Q711.525 1034.727 524.5 985.4 374.6 945.85 274.2 854.4 202.45 789.1 162.55 704.35 150.1 677.9 142.35 652.65L137.05 632.7M961.75 1001.2L954.55 1003.75 864.4 1022.5Q857.7 1023.9 915.3 1011.5 950.515 1003.866 961.75 1001.2Z"/>   <path fill="#000" stroke="none" d="M8.8 505.3Q0 522.25 0 551.1 0 579.85 8.8 596.6 18.7 615.35 38.15 615.35 58.65 615.35 73.1 596.45 87.6 577.55 87.6 550.8 87.6 524.05 73.1 505.15 58.65 486.25 38.15 486.25 18.75 486.25 8.8 505.3Z"/>   <path fill="#000" stroke="none" d="M1023.3 1963.85Q1023.85 1963.85 1025.05 1963.75L1130.45 1950.35 1170.75 1943.8Q1174.7 1943.2 1177.75 1940.8L1191.45 1930.6Q1203.8 1921.35 1202.6 1903.4 1202.25 1898.45 1200.3 1888.1 1198.4 1878.05 1198.15 1873.3L1189.45 1849.8 1180.35 1839.9Q1183.95 1844.05 1175.65 1854.9 1169.7 1862.6 1163.8 1867.3 1154.65 1874.6 1141.8 1880.4 1131.85 1884.9 1117.65 1889.3 1084.4 1899.45 1042.4 1904.5 1015.4 1907.75 965.75 1910.5 930 1912.45 903.7 1911.95 870.15 1911.25 841.95 1906.6 828.7 1904.4 820.35 1902.4 808.4 1899.5 799.45 1895.45 785.35 1889.15 778.5 1879.35 770.55 1868.15 773.7 1854.25 775.85 1844.6 781.7 1820.65 786.85 1799.65 789.2 1788.25 799.3 1741.8 804.15 1718.45 812.6 1677.55 816.65 1648.25 820.05 1632.9 820.7 1623.75 821.85 1606.75 812.25 1606.35 788.35 1605.45 764.9 1607.75L719.9 1814.75Q717.15 1827.2 716.25 1834 714.75 1844.75 715.6 1853.4 716.45 1861.85 721.5 1878.4 726.5 1894.7 727.25 1903.4 727.6 1907.35 726.45 1913.85 725.75 1917.55 724.25 1925.25 721.85 1939.35 727.25 1945.8 730.05 1949.15 735.2 1950.9 738.55 1952 744.85 1952.9 782 1957.95 827.35 1961.1 858.75 1963.3 910.15 1965.55L1023.3 1963.85Z"/>   <path fill="#000" stroke="none" d="M1477.65 1316.45L1526.2 1227.05 1546.55 1150.15Q1497.6 1283.35 1426.8 1334 1370.15 1374.55 1302.15 1360.7 1253.6 1350.8 1204.2 1314.65 1188.8 1303.4 1175.1 1290.85L1164.55 1280.55 1168.75 1337.7 1163.35 1390.25 1163.35 1421.95 1217.05 1441.6 1265.95 1446.6 1347.45 1427.95 1420.35 1380.6 1477.65 1316.45Z"/>   <path fill="#000" stroke="none" d="M1241.25 1053.4Q1245.15 1051.65 1248.1 1051.15L1245.35 1048.5 1225.25 1051.2 1202.4 1061.25 1199.5 1079.75Q1196.85 1098.9 1198.05 1101.85 1199.9 1106.55 1218.6 1137.85L1234.1 1170.9 1235.25 1185.55Q1236.2 1200.4 1235.1 1201.5 1234 1202.6 1230 1213.65 1228.05 1219.2 1226.25 1224.5 1258.35 1216.2 1251.7 1168.65 1249.65 1153.8 1243.95 1136.8L1238.65 1122.75Q1214.85 1082.95 1229.1 1063.05 1233.55 1056.85 1241.25 1053.4Z"/>   <path fill="#000" stroke="none" d="M1337.95 918.15Q1349.4 912.6 1357.8 909.95L1285.35 930.85 1256 952.7 1236.45 980.7 1231.25 1015.7Q1231 1017.2 1232.8 1030.5 1234.7 1044.35 1235.85 1046.75 1236.9 1048.95 1248.6 1054.7 1254.45 1057.6 1260.1 1060L1276.65 1075Q1256.9 1032.75 1265.25 997.3 1271.95 968.95 1296.2 946.2 1313.55 929.95 1337.95 918.15Z"/>   <path fill="#000" stroke="none" d="M431.3 16.6L365.4 38.95 284.4 86.55 201.25 155.05 127.95 240.75 75 319 47.1 413 87.6 422.2 110.6 437Q115.5 414.6 127.45 379.8 151.3 310.2 186.35 248.05 235.4 161.05 299.85 101.55 360.107 45.821 431.3 16.6M480.4 0Q455.241 6.814 431.3 16.6L480.4 0Z"/>   <path fill="#000" stroke="none" d="M386.75 1096.7Q386.9 1095.85 386.4 1095.1 385.9 1094.4 385.05 1094.25 384.3 1094.15 383.7 1094.5 383 1094.85 382.75 1095.55 350.2 1169.95 336.2 1250.2 313.05 1383 353.75 1481.25L353.9 1481.55 396.9 1552.45 397.15 1553.05 401.55 1570.05Q403.9 1579 403.55 1588.2 403.2 1597.5 400.2 1606.2L395.4 1620.35Q395.1 1621.2 394.25 1621.6L367.65 1633.25Q367.1 1633.5 366.55 1633.4L344.6 1630.9Q343.75 1630.8 343.05 1631.35 342.4 1631.9 342.3 1632.75 342.25 1633 342.35 1633.5L350.05 1662.8 350.1 1663.15 353.75 1712.85Q353.75 1713.35 353.65 1713.6L339.05 1762.7 314.8 1912.65Q314.75 1913.05 314.8 1913.4L320.8 1939.85Q321 1940.8 322 1941.3L381.3 1967.95Q381.55 1968.1 381.8 1968.1L450.8 1980.35 535.4 1984.35 595.6 1979.85 595.85 1979.85 679.45 1963.8 719.9 1950.8Q721.15 1950.4 721.3 1949.05L727.65 1898.1 727.65 1898 717.5 1865.6Q718.35 1869.15 718.35 1872.55 718.35 1886.3 704.75 1898.9 691.55 1911 667.6 1920.4 643.6 1929.75 612.45 1934.9 580.25 1940.2 544.95 1940.2 509.7 1940.2 477.45 1934.9 446.35 1929.75 422.35 1920.4 398.35 1911 385.2 1898.9 371.55 1886.3 371.55 1872.55 371.55 1865.1 377.05 1855.4 382.45 1845.9 390.15 1839.35L391.85 1833.55Q391.05 1833.9 390.25 1833.55 389.45 1833.2 389.15 1832.4 388.9 1831.85 389.05 1831.25L429.5 1632.15Q433.1 1614.4 448.15 1604.15 463.15 1593.95 481 1597.15 504.95 1601.4 532.5 1603.85 563.484 1606.568 596.3 1606.7 559.405 1605.736 524.1 1588.65 489.65 1572 460.35 1541.85 432.7 1513.5 413.9 1477.75 395.45 1442.7 389.25 1407.65 382.25 1368.3 379.05 1335.6 375.35 1298.2 375.85 1263 376.55 1214.9 378.4 1181.8 381 1135.95 386.75 1096.7Z"/>   <path fill="#000" stroke="none" d="M1118.6 1508.25L1107.9 1521.25Q1093.9 1536.95 1077.55 1550.7 1025.2 1594.7 968.8 1602.25L973.45 1604.3Q979.9 1606.6 988.8 1607.55 1017.35 1610.65 1059.95 1599.6L1064.35 1579.25 1073.2 1562.45 1083.7 1552.25 1118.6 1508.25Z"/>  </g>  <path id="Layer2-57_0_1_STROKES" stroke="#000" stroke-width="13" stroke-linejoin="miter" stroke-linecap="round" stroke-miterlimit="10" fill="none" d="M1124.35 2330.5L1127.05 2335.85Q1130.35 2342.7 1133.55 2350.45 1143.75 2375.2 1148.85 2399.2 1165.15 2475.95 1124.35 2516.25 1105.4 2534.95 1078.15 2546.75 1052.4 2557.9 1023.8 2561 964.1 2567.5 919.1 2533.7 880.35 2504.6 854.2 2447.1 832.3 2398.95 821 2335.6 811.75 2283.35 811.55 2233.8 811.15 2101.65 853.1 1985.3 886.6 1892.25 945.55 1813.5 987.7 1757.25 1038.25 1713.8 1054.05 1700.2 1068.85 1689.5L1080.45 1681.55"/>  <path id="Layer3-57_0_1_STROKES" stroke="#000" stroke-width="13" stroke-linejoin="miter" stroke-linecap="round" stroke-miterlimit="10" fill="none" d="M1188.65 1822.4Q1150.85 1903.1 1136.3 1995.55 1128.35 2046.15 1127.7 2085.6 1126.9 2134.9 1137.05 2175.3 1140.9 2190.5 1145.3 2202.7 1150.45 2216.95 1157 2229 1162 2238.25 1172.7 2254.1 1184.9 2272.15 1189.25 2279.45 1207.4 2310 1205.8 2334.75 1204.25 2358.9 1184.95 2368.95 1166.55 2378.55 1141.15 2371.05"/>  <path id="Layer4-57_0_1_STROKES" stroke="#000" stroke-width="13" stroke-linejoin="miter" stroke-linecap="round" stroke-miterlimit="10" fill="none" d="M1875.85 1822.35L1880.25 1826.95Q1885.8 1833.05 1891.7 1840.7 1910.55 1865.05 1925.7 1895.15 1974.05 1991.55 1966.85 2109.5L1964.85 2129Q1961.3 2153.3 1953.6 2177.6 1928.85 2255.25 1871.55 2303.1 1867.45 2306.5 1865.05 2311.25 1862.65 2316 1862.35 2321.3 1857.45 2411.05 1854 2517.3L1860.25 2517.15Q1868.3 2517.1 1876.85 2517.85 1904.35 2520.3 1927.5 2529.55 1959.95 2542.55 1979.15 2567.4 2003.15 2598.4 2004.9 2646.3 2005.4 2659.4 1996.7 2669.9 1988 2680.4 1974.05 2683.65 1903.5 2700.05 1812.6 2704.95 1675.2 2712.35 1520.65 2690.8 1509.95 2695.25 1490.7 2700.9 1452.2 2712.25 1409.5 2718.45 1272.85 2738.2 1145.55 2698.8 1129.1 2693.7 1119.85 2680.35 1110.55 2666.95 1112.55 2651.2 1120.2 2592.3 1138.55 2503.3"/>  <path id="Layer5-57_0_1_STROKES" stroke="#000" stroke-width="13" stroke-linejoin="miter" stroke-linecap="round" stroke-miterlimit="10" fill="none" d="M1142.45 2598.25Q1149.65 2593.65 1162.4 2586.95 1187.8 2573.6 1215.4 2563.25 1303.55 2530.15 1379.7 2539.65 1471.25 2551.1 1505.05 2587.15 1538.95 2623.35 1520.7 2690.85"/>  <path id="Layer6-57_0_1_STROKES" stroke="#000" stroke-width="13" stroke-linejoin="miter" stroke-linecap="round" stroke-miterlimit="10" fill="none" d="M1854.1 2517.4Q1820.75 2517.2 1779 2522.75 1695.5 2533.85 1653.45 2562.55"/>  <path id="Layer7-57_0_1_STROKES" stroke="#000" stroke-width="13" stroke-linejoin="miter" stroke-linecap="round" stroke-miterlimit="10" fill="none" d="M1511.35 2594.8L1564.25 2347.4"/>  <path id="Layer8-57_0_1_STROKES" stroke="#000" stroke-width="13" stroke-linejoin="miter" stroke-linecap="round" stroke-miterlimit="10" fill="none" d="M1962.85 2162.55Q2046.1 2205.1 2131.4 2174.7 2169.75 2161.05 2205.3 2133.25 2239.3 2106.75 2267.85 2069.6 2295.75 2033.4 2315.65 1990.85 2335.6 1948.25 2345.35 1904.05 2355.35 1858.65 2353.5 1816.35 2351.6 1771.95 2336.85 1734.8 2317.1 1685.15 2263.25 1663.75 2216.55 1645.15 2154.3 1650.7 2145.2 1651.4 2131.9 1654.35 2105.4 1660.2 2084.55 1671.5 2055.45 1687.25 2041.95 1711.55 2025.05 1741.9 2033.7 1783.9"/>  <path id="Layer9-57_0_1_STROKES" stroke="#000" stroke-width="13" stroke-linejoin="miter" stroke-linecap="round" stroke-miterlimit="10" fill="none" d="M2078.05 1825.25Q2071.5 1804.8 2054.15 1794.85 2035.35 1784 2014.55 1792.95 1999.35 1799.45 1995.35 1814.15 1991.75 1827.05 1997.55 1842.35 2002.7 1855.35 2010.55 1866.6 2037.1 1906.1 2036.7 1931.3 2036.5 1941.05 2032.3 1949.45 2029.6 1954.9 2023.6 1962.2"/>  <path id="Layer1-570-57_0_1_STROKES" stroke="#000" stroke-width="13" stroke-linejoin="miter" stroke-linecap="round" stroke-miterlimit="10" fill="none" d="M1994.05 1809.25Q1980.8 1788.45 1959.2 1764.2 1915.95 1715.7 1874.05 1698.5"/>  <path id="Layer1-571-57_0_1_STROKES" stroke="#000" stroke-width="13" stroke-linejoin="miter" stroke-linecap="round" stroke-miterlimit="10" fill="none" d="M910.15 1403.6Q896.35 1415.15 880.45 1421.25 864 1427.6 846.65 1427.6 823.8 1427.6 802.95 1416.85 782.8 1406.45 767.25 1387.45 751.7 1368.5 743.2 1343.9 734.35 1318.45 734.35 1290.6 734.35 1262.75 743.2 1237.3 751.7 1212.7 767.25 1193.75 782.8 1174.75 802.95 1164.35 823.8 1153.6 846.65 1153.6 864.05 1153.6 880.45 1159.9 896.4 1166.05 910.15 1177.6"/>  <path id="Layer1-572-57_0_1_STROKES" stroke="#000" stroke-width="14" stroke-linejoin="miter" stroke-linecap="round" stroke-miterlimit="10" fill="none" d="M847.65 1226.95Q865.8 1226.95 878.65 1245.8 891.5 1264.65 891.5 1291.35 891.5 1318 878.65 1336.9 865.8 1355.75 847.65 1355.75"/>  <path fill="#000" stroke="none" d="M1604.95 715.15Q1541.35 703.75 1475.55 703.75 1363.1 703.6 1256.15 737.45 1155.05 769.3 1068.6 830.7 984 890.95 926.1 971.9 867.05 1054.3 841.9 1149.45 841.35 1151.75 842.55 1153.8 843.75 1155.85 846.05 1156.45 848.35 1157.05 850.4 1155.85 852.4 1154.65 853.05 1152.4 877.5 1059.55 935.45 978.6 992.4 899.15 1075.3 840.05 1117.55 810.1 1163.9 787.05 1210.3 763.95 1259.65 748.4 1364.9 715.1 1475.55 715.25 1540.35 715.25 1602.9 726.45 1665.45 737.65 1724.55 759.85 1781.65 781.3 1832.7 811.85 1883.8 842.35 1927.8 881.4 2016.15 959.9 2064.65 1061.4 2078.85 1091.25 2089.2 1122.5 2091.7 1124.2 2094.25 1126.2L2104.15 1134.75Q2112.1 1142.4 2118.85 1151.35 2135.05 1172.75 2143.95 1199.3 2152.85 1225.9 2152.85 1252.95 2152.85 1283.25 2144.65 1310.15 2136.4 1337.05 2120.95 1357.4L2109.4 1370.5 2106.65 1373.15Q2091.65 1455.5 2049.4 1524.3 2007.05 1593.3 1939.3 1645.4 1856.85 1708.8 1743.9 1742.2 1630.9 1775.6 1497.95 1775.6 1387.1 1775.6 1284.8 1752.3 1182.05 1728.85 1098.05 1684.35 1010 1637.75 949.55 1572.05 889.05 1506.35 860.6 1426.35 859.75 1424.15 857.55 1423.15 855.35 1422.2 853.15 1423.1 851 1423.9 850.05 1426 849.05 1428 849.75 1430.2 878.9 1512.25 940.8 1579.55 1002.65 1646.9 1092.65 1694.55 1178.35 1739.95 1282.3 1763.6 1385.8 1787.25 1498.05 1787.25 1632.45 1787.25 1747.2 1753.35 1862.2 1719.35 1946.35 1654.65 2014.6 1602.2 2057.75 1533 2100.7 1464.1 2116.85 1381.6 2123.35 1375.4 2129.15 1368.15 2146.9 1345.9 2156.35 1316.2 2165.85 1286.5 2165.85 1253.05 2165.85 1223.9 2156.25 1195.25 2146.65 1166.55 2129.2 1143.55 2116 1125.8 2098.05 1112.85 2087.95 1083.5 2075.05 1056.5 2050.45 1004.9 2015.4 958.75 1980.3 912.6 1935.45 872.8 1890.6 833 1838.65 801.95 1786.75 770.9 1728.65 749.1 1668.5 726.55 1604.95 715.15Z"/>  <g id="body-shadow" transform="translate(722.75 2623.6)" opacity=".25">   <path fill="#000" stroke="none" d="M1224.05 58.7Q1224.05 46.75 1175.95 35.85 1129.5 25.35 1044.8 17.25 865.55 .05 612.05 .05 358.55 .05 179.3 17.25 94.6 25.35 48.1 35.85 0 46.75 0 58.7 0 70.65 48.1 81.55 94.55 92.1 179.3 100.2 358.6 117.4 612.05 117.4 865.5 117.4 1044.8 100.2 1129.5 92.1 1175.95 81.55 1224.05 70.65 1224.05 58.7Z"/>  </g>  <path fill="#B7B2B5" stroke="none" d="M1456.9 708.75L1347.2 719.35 1246.35 745.9 1164.95 779.55 1097.7 816.7 1020.7 875.1 963.2 934.35 901.25 1015.75 872.05 1084.75 848.7 1147.85 842.35 1153.7 794.75 1169 760.9 1202 738.35 1254 738.35 1316.6 753.6 1367.25 781 1405 833.3 1427.6 858.85 1429.8 885.35 1495.25 929.6 1557.2 968.55 1598.75 1030.45 1649.2 1078.25 1678.4 1075.2 1684.95 988.9 1761.4 907.7 1869.85 850.5 1992.35 818.25 2128.45 811.5 2225.15 817.85 2316.35 835 2395.25 866.35 2471.1 904.45 2521.2 952 2552.2 1030.6 2562 1084.4 2543.85 1124.35 2516.2 1138.6 2503.35 1128.7 2553.35 1113.5 2644.55 1116.15 2673.9 1130 2690.9 1181.1 2708.65 1259.2 2725 1334.8 2725 1401.4 2719.65 1450.3 2711.25 1527.15 2690.9 1569.05 2696.95 1695.2 2706.15 1794.95 2705.85 1872.2 2700.3 1939.05 2690.9 1974.05 2683.75 2000.95 2663.6 2004.9 2646.4 2000.75 2614.25 1974.65 2562.1 1931 2531.35 1854 2517.45 1864.75 2311.95Q1876.35 2298.6 1880.25 2295.55 1884.15 2292.45 1927.25 2237.1L1952.25 2181.9 1962.8 2162.6 1993.95 2175.9 2056.05 2187.2 2126.6 2180.1 2170.6 2156.75 2219.9 2121.25 2262 2077.15 2307.1 2016.45 2331.45 1952.55 2348.65 1887.35 2353.8 1821.8 2347.2 1768.3 2329.55 1719.6 2296.75 1685.05 2252.3 1659.85 2201.8 1652.85 2158.3 1650.5 2110.7 1660.85 2062.9 1688.25 2036 1718.45 2031.05 1758 2036 1791.3 2009.8 1796.95 1998.3 1805.8 1993.95 1812.1 1955.3 1753.85 1914.6 1722.35 1874 1695.55 1905.45 1678.4 1969.15 1628.85 2014.25 1579.3 2062 1514.7 2087.65 1461.65 2107.1 1401.5 2129.1 1355.85 2131.85 1352.2Q2135.3 1347.35 2138.6 1341.45 2149.15 1322.7 2154.45 1300.65 2171.3 1230.15 2129.1 1153.6 2128.5 1152.5 2128.75 1147.95L2129.15 1143.6 2086.75 1103.35 2060.2 1047.6 2038.05 998.95 1999.15 945.9 1958.45 903.4 1923.05 870.7 1838.15 807.9 1770.9 774.25 1700.1 746.85 1626.7 725.6 1533 712.3 1456.9 708.75Z"/>  <g id="colour" transform="translate(930 711.9)" filter="url(#filter3-57)">   <path fill="#666" stroke="none" d="M45.1 706.5L44.1 728Q48.65 777.9 48.45 781.65 48.35 784 50.6 806.2 51.75 817.3 52.9 827.9 67.85 877.75 68.3 878.75 87.1 921.25 87.8 921.75 88.25 922.05 97.1 931.4 101.55 936.05 105.9 940.65L178.1 984.45 254.2 1013.6 305.7 1031.95 283.8 1010.1Q282.65 1008.95 254.4 960.25 248.5 943.1 242.5 925.75 230.6 891 230.4 890 230.1 888.45 220.55 813.1L216.6 756.5 186.35 753.65 143.2 743.45 87.6 724.35 45.1 706.5M69.05 323.3L63 323.3 45.65 346.15 25.4 380.4 1.05 455.1 0 464.95 20 488.35 38.5 526.95Q45.4 566.65 45.45 568 45.45 568.9 47.25 577 48.15 581.05 49.05 584.9L121.05 616Q186 626.65 187.9 627.9 189.8 629.15 218.5 627.9L223.85 623.05Q224.65 614.7 225.35 606.2 226.75 589.15 226.45 588.25 226.2 587.45 218.15 543.6 210.1 499.7 209.95 499.15 209.65 498.25 192.15 459.65 174.65 420.95 174.05 420.05 165.85 410.45 158.2 401.1 143 382.6 143.45 380.45 143.85 378.25 124.9 362.1L105.85 346.35 69.05 323.3M874.3 96.15L847.6 65.7 807.9 49.6 696.7 13.7 594.4 .05 522.35 2.75 466.4 2.75 525.55 39.9 580.95 93.15 616.05 143.6 637.15 188.35 650 230.1 695 266.1 727.6 298.45 746.4 321.25 882.35 321.25 900.65 309.2 923.05 273.85 936.2 234.45 927.5 193.4 904.3 138.4 874.3 96.15Z"/>  </g>  <g id="robot" transform="translate(815.55 714.6)">   <path fill="#666" stroke="none" d="M545.2 1645.35L507.65 1640.8 493.55 1750.6 485.85 1809.45 483.95 1825.35 523.5 1823 545.2 1645.35M712.4 1950.15L712.4 1950.1 708.35 1930Q604.1 1958.15 505.35 1955.75L437.9 1955.75 402.1 1944.6Q363.75 1937.1 330.45 1925.2 318.6 1920.95 308.85 1916.65L301.45 1913.2 296.4 1932.3 297.6 1944.9Q298.45 1957.95 296.7 1960 294.95 1962.05 303.2 1969.35 307.35 1973 311.8 1976.25L392.75 2003.35 446.05 2007.75Q499.65 2011.85 501.45 2010.3 503.2 2008.75 571.45 2004.25 605.55 2002 639.3 2000.05L699.25 1978.15 712.4 1950.15M1186.55 1909.75Q1186.35 1909.8 1186.15 1909.85 1090.75 1939.6 971.6 1943.4 968.3 1943.7 964.95 1944 961.9 1944.35 946 1943.95 932.75 1944.05 919.2 1943.85 871.9 1943.2 826.75 1938.75L794.4 1934.85 793.15 1934.8Q791.65 1934.95 789.8 1935.4 786.8 1936.15 785.3 1937.45 784.95 1937.8 784.6 1938.2 774.4 1949.7 762.15 1955.3 749.5 1961.1 736.5 1959.75 725.85 1958.6 716.85 1953.15L708.3 1976.2 805 1987.2 889.15 1991.2Q1085.45 1981.6 1086.85 1981.4L1158.5 1969.1 1182.55 1953.55 1188.3 1936.55 1186.55 1909.75M988.35 1805.4L988.6 1800.85 999.1 1612.05 967.75 1618.9 967.5 1622 958.9 1737.35 952.7 1809.7 988.35 1805.4M1110.7 1042.95L1096.7 1082.2Q1109.85 1094.65 1118.95 1103.3 1132.8 1115.55 1145.4 1129.05 1164.45 1149.5 1177.95 1169.95 1187.95 1182.25 1197.9 1194.45L1206.45 1232.8 1207.7 1238.35 1207.9 1239.2Q1220.9 1221.1 1221 1219.7 1221.05 1218.7 1218.35 1204.25 1215.65 1189.9 1215.2 1188.8 1214.8 1187.85 1203.15 1166.5 1191.85 1145.8 1189.4 1141.5 1187.7 1138.4 1182.55 1120.95L1177.75 1104.1 1173.9 1088 1147.25 1050.65 1114.6 1020.65 1110.7 1042.95M1003.6 967.85L1007.9 956.7 1009.45 952.4Q954.85 966.8 872.55 972.55 864.65 973.1 856.8 973.55 856.05 973.6 855.35 973.65 838.3 974.6 821.4 975.1L806.2 975.35 801.15 975.45Q789.75 1012.4 770.95 1040.05 769.45 1042.25 767.9 1044.4 763.55 1050.4 759.7 1055.05L752.4 1064.7 822.8 1054.7 928.25 1037.85 973.85 1017.8Q980.95 1011.75 988.4 999.3L1003.6 967.85M815.75 1002.3L818 1002.55Q821.75 1002.8 829.15 1002.6 852.85 1001.95 904.55 997.3 852.85 1001.95 829.15 1002.6 821.75 1002.8 818 1002.55L815.75 1002.3M319.6 1332.05L321.5 1333.1Q329.25 1337.05 339.6 1341.25 372.7 1354.6 419.65 1365.05 569.75 1398.45 801.55 1390 929.05 1385.4 1024.05 1363.5 1096.6 1346.8 1147.2 1320.8L1075.3 1349.65Q1004.45 1367.75 1000.2 1367.75 996 1367.75 895 1383.7L892.15 1370.6 880.2 1354.95Q867.65 1348 864.35 1346.95L863.75 1346.85Q773 1350.5 747.9 1351.6L731.45 1354.95 707.75 1373 695.35 1391.6Q657.25 1389.7 618.75 1387.75 541.8 1383.85 540 1383.7 537.15 1383.4 406.25 1361.9L319.6 1332.05M319.6 1332.05L319.5 1332 313.35 1342.55 315.8 1388.7 319.2 1428.3Q325.95 1431.55 334.4 1434.95 367.75 1448.3 414.95 1458.75 433.1 1462.75 452.5 1466.2L486.3 1471.45 528.75 1476.8Q627 1487.2 749.9 1485.25L792.35 1483.95 801.2 1483.65 816.25 1483.05 948.6 1470.95 1031.3 1454.9 1129.55 1422.9 1149.7 1412 1161.3 1399.3 1171.05 1371.25Q1173.45 1354.65 1168.8 1336.85 1166 1326.15 1160.85 1316.05L1156.8 1309 1154.65 1305.7 1150.85 1346.75 1147.3 1320.75Q1147.25 1320.75 1147.2 1320.8 1096.6 1346.8 1024.05 1363.5 929.05 1385.4 801.55 1390 569.75 1398.45 419.65 1365.05 372.7 1354.6 339.6 1341.25 329.25 1337.05 321.5 1333.1L319.6 1332.05M699.25 1414.75L737.25 1416.05Q784.8 1416.95 832.5 1414.9 985.15 1408.3 1082.1 1374.85 985.15 1408.3 832.5 1414.9 784.8 1416.95 737.25 1416.05L699.25 1414.75M125.45 1417.65L125.45 1417.6Q123.85 1422.3 122.1 1426.85 121.35 1431.6 121.15 1433.55 120.8 1436.8 111.75 1450.8 102.8 1464.65 101.05 1464.45 90.95 1477.4 79.25 1485.45 64.55 1495.55 51 1495.55 43.5 1495.55 36.8 1493.45L21.85 1489.9 14.9 1503.45 6.85 1519.15Q6.25 1521.9 5.7 1524.4 2.1 1540.9 .85 1546.3 .85 1546.55 .8 1546.85 -.15 1556.85 .2 1568.5 .45 1577.05 .3 1577.95 .25 1578 .25 1578.05L1.65 1576.95Q53.35 1530.9 105.6 1506.5L105.65 1506.45 105.75 1506.4 105.8 1506.4Q120.9 1499.35 136.1 1494.1 190.3 1475.35 242.55 1480.4 279.9 1484.05 312.55 1499.2 325.5 1505.2 333.75 1510.8L321.25 1464.8Q318.1 1459.4 314.9 1453.95 308.45 1442.95 308 1442.45 299 1434.85 293 1429.9 270.35 1414.75 236.55 1409.95 191.85 1403.65 129.95 1415.95L125.45 1417.65M135.1 1089.05Q96.55 1149.5 95.8 1149.35 95.3 1149.3 75.6 1187.1 65.75 1206 56 1224.9L40.75 1265.55 41.2 1265.45 42.9 1264.75Q48.35 1262.7 54.9 1261 62.65 1257.85 70.15 1257.5 77.25 1256.15 84.7 1255.3L93.75 1253.15 101 1252.9Q110.05 1176.25 168.3 1095.1 186.5 1069.75 207.45 1046.95L224.45 1029.55 221.4 1029.25 189.2 1033 188.65 1033.2 175.1 1042.05 135.1 1089.05M348.4 1083.95Q348.15 1083.7 347.95 1083.45L323.85 1062.05Q323.7 1061.95 323.55 1061.85 323.5 1061.8 323.45 1061.75 316.45 1057.45 309.1 1053.25 294.25 1044.75 292.5 1045.3 291.45 1045.65 285.3 1043.45L273.45 1060.1Q257.75 1083.1 243.25 1108.1 197 1187.85 180.7 1256.65 197 1187.85 243.25 1108.1 257.75 1083.1 273.45 1060.1L285.3 1043.45Q281.25 1042 274.95 1039.5L259.5 1033.05 224.45 1029.55 207.45 1046.95Q186.5 1069.75 168.3 1095.1 110.05 1176.25 101 1252.9L135.05 1251.6 214.35 1264.9 256.5 1283.45Q272.05 1289.85 287.85 1297.6L286.75 1295.85 287.85 1297.6Q301.95 1304.55 316.3 1312.55L337.8 1204.35 370.6 1110.6 348.4 1083.95M349.45 1086.15L338.7 1100.35Q325.6 1118.85 313.55 1140.35 275 1209 261.9 1281.35 275 1209 313.55 1140.35 325.6 1118.85 338.7 1100.35L349.45 1086.15M307.05 1094.7L299.1 1106.5Q289.35 1121.8 280.35 1139.1 251.6 1194.6 241.35 1249.8 251.6 1194.6 280.35 1139.1 289.35 1121.8 299.1 1106.5L307.05 1094.7M245.45 1059.05L235.45 1071.9Q223.2 1088.5 211.9 1107.35 175.8 1167.65 162.9 1227.75 175.8 1167.65 211.9 1107.35 223.2 1088.5 235.45 1071.9L245.45 1059.05M1393 1414.75L1382.85 1411.8Q1352 1409.8 1323.5 1394.35L1323.4 1394.3 1323.35 1394.25Q1318.2 1391.45 1313.1 1388.2 1292.4 1375 1273.55 1354.95L1252.1 1367.05Q1261.7 1364 1270.35 1358.2 1261.7 1364 1252.1 1367.05 1243.45 1369.8 1234.05 1370.25 1229.75 1370.45 1220.95 1370.1 1218.3 1370 1216.5 1370.05L1212.9 1370.35 1209.95 1370.6 1208.7 1375.7Q1205.5 1401.3 1194.25 1430.3 1189.9 1445.45 1189.35 1445.75 1188.9 1446 1185.3 1451.15 1184.4 1453 1183.5 1454.9 1184.4 1453 1185.3 1451.15 1184.45 1452.3 1183.5 1453.7 1180.9 1457.5 1178.35 1461.25L1247.25 1472.6 1302.2 1464.5 1372.2 1427.45 1393 1414.75M1200.5 1430.75L1213.8 1432.05Q1230.45 1433.15 1247.05 1432.05 1300.2 1428.65 1333.25 1404.85 1300.2 1428.65 1247.05 1432.05 1230.45 1433.15 1213.8 1432.05L1200.5 1430.75M1519.4 1221.75L1522.45 1206.5Q1505.75 1216.25 1488.9 1224.05 1479.9 1228.95 1479.3 1229.8 1478.55 1230.95 1454.9 1237.7 1435.9 1244.15 1416.7 1248.15 1411.6 1249.2 1406.5 1250.1 1358.35 1258.55 1311.1 1251.2 1277.35 1246 1247.4 1233.4 1238.1 1229.5 1230.2 1225.3L1224.25 1221.9 1230.2 1225.3Q1238.1 1229.5 1247.4 1233.4 1277.35 1246 1311.1 1251.2 1358.35 1258.55 1406.5 1250.1 1411.6 1249.2 1416.7 1248.15L1333.25 1253.05 1266.85 1240.65 1224.25 1219.4 1211.6 1246.3 1212.95 1260.9 1230.8 1296.25 1245.45 1316.25Q1259.85 1336.5 1259.05 1338.2 1261.9 1341.75 1264.8 1345.15 1269.75 1349.8 1278.95 1357.55 1299.85 1375.05 1302.25 1374.7 1304.2 1374.4 1316.4 1386.5 1320.45 1390.55 1324.35 1394.6L1323.5 1394.35Q1352 1409.8 1382.85 1411.8L1372.3 1408.7 1398.05 1412 1447.8 1360.8 1489.8 1296.85Q1494.5 1284.9 1499.7 1272.05 1510.2 1246.45 1513 1242.15 1515.8 1237.85 1519.4 1221.75Z"/>   <path fill="#848484" stroke="none" d="M719.9 1824.85Q720.55 1824.15 721.2 1823.45L712.45 1829.75 709.45 1840.3Q713.7 1831.65 719.9 1824.85M760.6 1818.5Q759.95 1818.1 759.3 1817.75 765.9 1823.1 770.05 1833.65 773.7 1842.8 774.45 1853.25 774.55 1851.65 774.6 1850.9 774.7 1848.85 771.5 1835.75L768.3 1823Q764.55 1820.8 760.6 1818.5M70.15 1409.15Q69.7 1409.85 69.25 1410.55 66.9 1414.1 64.6 1416.7L67.55 1415.65 70.15 1409.15M37 1369.1Q37.2 1367.85 37.4 1366.6 39.15 1356.7 42 1348.35L38.05 1357.3Q37.45 1363.95 37 1369.1M63.75 1318.35L63.7 1318.3 63.65 1318.35Q63.7 1318.35 63.75 1318.35M48.7 1333.55Q48.45 1333.9 48.25 1334.3L42 1348.35Q39.15 1356.7 37.4 1366.6 37.2 1367.85 37 1369.1 35.55 1385.1 35.55 1386.9 35.5 1388.4 38.1 1398.9 39.4 1404.1 40.7 1409.05L48.45 1422.35 64.6 1416.7Q66.9 1414.1 69.25 1410.55 69.7 1409.85 70.15 1409.15L80.3 1383.7 83.45 1342.8 75.35 1321.3 63.75 1318.35Q63.7 1318.35 63.65 1318.35L48.7 1333.55M48.25 1334.3Q48.45 1333.9 48.7 1333.55L48.5 1333.7 48.25 1334.3Z"/>   <path fill="#AD9D50" stroke="none" d="M330.45 1925.2Q363.75 1937.1 402.1 1944.6L301.45 1913.2 308.85 1916.65Q318.6 1920.95 330.45 1925.2M862.8 1939.4Q862.25 1937.95 827.65 1936.2L794.4 1934.85 826.75 1938.75Q871.9 1943.2 919.2 1943.85 932.75 1944.05 946 1943.95 933.2 1943.6 912.15 1942.8 863.45 1940.95 862.8 1939.4M708.35 1930Q691.35 1933.8 674 1937.65 639.25 1945.35 637.45 1945.65 635.3 1946.05 578.35 1950.9 521.45 1955.75 519.25 1955.75L505.35 1955.75Q604.1 1958.15 708.35 1930M717.85 1950.4L716.85 1953.15Q725.85 1958.6 736.5 1959.75 749.5 1961.1 762.15 1955.3 774.4 1949.7 784.6 1938.2 784.95 1937.8 785.3 1937.45 784.95 1937.7 784.7 1938 782.4 1940.7 761.15 1955.7L736.85 1959.1 717.85 1950.4M1186.15 1909.85Q1161 1915.6 1135.6 1921.4 1084.35 1933.05 1083.1 1933.25 1081.2 1933.6 971.6 1943.4 1090.75 1939.6 1186.15 1909.85M1139.05 1122.45Q1139.65 1123 1168.85 1158.8 1173.4 1164.4 1177.95 1169.95 1164.45 1149.5 1145.4 1129.05 1132.8 1115.55 1118.95 1103.3 1138.45 1121.8 1139.05 1122.45M759.7 1055.05Q763.55 1050.4 767.9 1044.4 769.45 1042.25 770.95 1040.05L759.7 1055.05M801.15 975.45L801.1 975.45 790.5 1004.2 770.95 1040.05Q789.75 1012.4 801.15 975.45M821.4 975.1Q838.3 974.6 855.35 973.65L806.2 975.35 821.4 975.1M980.9 1014.7L988.4 999.3Q980.95 1011.75 973.85 1017.8L980.9 1014.7M1009.45 952.4L978.1 959.5 936.05 966.25 856.8 973.55Q864.65 973.1 872.55 972.55 954.85 966.8 1009.45 952.4M1169.65 1331.25L1160.85 1316.05Q1166 1326.15 1168.8 1336.85 1173.45 1354.65 1171.05 1371.25L1173.4 1364.35 1169.65 1331.25M1154.65 1305.3L1154.65 1305.7 1156.8 1309 1154.65 1305.3M864.35 1346.95Q863.95 1346.85 863.7 1346.8 861.15 1346.4 748.05 1351.55L747.9 1351.6Q773 1350.5 863.75 1346.85L864.35 1346.95M528.75 1476.8L537.1 1477.85Q588.05 1484.45 588.95 1485.4 589.85 1486.35 637.25 1487.1 660.95 1487.45 684.45 1487.65L749.9 1485.25Q627 1487.2 528.75 1476.8M319.2 1428.3L319.45 1431.1 396.45 1457.45 452.5 1466.2Q433.1 1462.75 414.95 1458.75 367.75 1448.3 334.4 1434.95 325.95 1431.55 319.2 1428.3M136.1 1494.1Q120.9 1499.35 105.8 1506.4L167 1485.35 229.6 1480.05 286.4 1492.3 333.75 1510.8Q325.5 1505.2 312.55 1499.2 279.9 1484.05 242.55 1480.4 190.3 1475.35 136.1 1494.1M40.7 1545.35L76.95 1524.8 105.6 1506.5Q53.35 1530.9 1.65 1576.95L40.7 1545.35M.2 1568.5Q-.15 1556.85 .8 1546.85 .85 1546.55 .85 1546.3 .4 1548.35 .25 1548.8 -.1 1550 .05 1564.15 .1 1571.15 .3 1577.95 .45 1577.05 .2 1568.5M100.95 1464.4Q99.55 1464 90.45 1473.55 85.75 1478.5 79.2 1485.4 75.8 1488.3 61 1494.1L38 1493.75 36.8 1493.45Q43.5 1495.55 51 1495.55 64.55 1495.55 79.25 1485.45 90.95 1477.4 101.05 1464.45 101 1464.4 100.95 1464.4M152.75 1407.2L129.95 1415.95Q191.85 1403.65 236.55 1409.95 270.35 1414.75 293 1429.9 282.6 1421.3 281 1420.4 278.45 1418.95 247.8 1407.2L200.75 1404.8Q198.85 1404.7 152.75 1407.2M123.9 1415.6L122.7 1423Q122.35 1425.1 122.1 1426.85 123.85 1422.3 125.45 1417.6L123.9 1415.6M54.9 1261Q56.05 1260.65 57.25 1260.35 63.55 1258.75 70.15 1257.5 62.65 1257.85 54.9 1261M53.6 1261.5Q54.25 1261.25 54.9 1261 48.35 1262.7 42.9 1264.75L41.2 1265.45 49.25 1263.55Q51.4 1262.45 53.6 1261.5M71.95 1257.45Q71.05 1257.45 70.15 1257.5 63.55 1258.75 57.25 1260.35 56.05 1260.65 54.9 1261 54.25 1261.25 53.6 1261.5 51.4 1262.45 49.25 1263.55L75.1 1257.5Q73.55 1257.45 71.95 1257.45M70.15 1257.5Q71.05 1257.45 71.95 1257.45 73.55 1257.45 75.1 1257.5L84.7 1255.3Q77.25 1256.15 70.15 1257.5M288.2 1298.15L287.85 1297.6Q272.05 1289.85 256.5 1283.45L278.1 1292.95 288.2 1298.15M288.2 1298.15L294.45 1301.35 315.1 1311.95 316.3 1312.55Q301.95 1304.55 287.85 1297.6L288.2 1298.15M188.65 1033.2L189.2 1033 188.85 1033.05 188.65 1033.2M323.55 1061.85Q323.7 1061.95 323.85 1062.05L323.6 1061.85 323.55 1061.85M1203 1398.7Q1197.5 1418.8 1194.25 1430.3 1205.5 1401.3 1208.7 1375.7L1203 1398.7M1259.05 1338.2Q1258.5 1339.2 1264.8 1345.15 1261.9 1341.75 1259.05 1338.2M1252.1 1367.05L1216.5 1370.05Q1218.3 1370 1220.95 1370.1 1229.75 1370.45 1234.05 1370.25 1243.45 1369.8 1252.1 1367.05M1313.1 1388.2Q1318.2 1391.45 1323.35 1394.25L1273.55 1354.95Q1292.4 1375 1313.1 1388.2M1454.9 1237.7Q1451.45 1238.65 1447.5 1239.75L1416.7 1248.15Q1435.9 1244.15 1454.9 1237.7M1522.45 1206.45Q1512 1211.75 1501.4 1217.35 1493.85 1221.3 1488.9 1224.05 1505.75 1216.25 1522.45 1206.5L1522.45 1206.45Z"/>   <path fill="#000" stroke="none" d="M14.9 1503.45L19.5 1493.05Q8.35 1508.5 3.65 1529.15L5.7 1524.4Q6.25 1521.9 6.85 1519.15L14.9 1503.45M1.5 1456.35Q8.15 1472.95 18.65 1482.75L1.5 1456.35M18.65 1482.75Q8.15 1472.95 1.5 1456.35L1.5 1533.95 3.65 1529.15Q8.35 1508.5 19.5 1493.05L21.85 1487.65 18.65 1482.75M315.1 1311.95L294.45 1301.35 310.5 1346.8 315.1 1311.95Z"/>   <path id="Layer1-576-57_0_1_STROKES" stroke="#D8D8D8" stroke-width="26" stroke-linejoin="miter" stroke-linecap="round" stroke-miterlimit="10" fill="none" d="M1323.25 970.05L1329.05 977.7Q1336.05 987.7 1341.95 999.35 1360.9 1036.65 1362.2 1076.6M1404.45 965.15L1410.25 972.8Q1417.2 982.8 1423.15 994.45 1442.05 1031.75 1443.35 1071.7M1493.45 1018.25L1496.85 1032.65Q1500.75 1050.9 1503.25 1069.95 1511.2 1130.95 1501.9 1177.25M1085.95 198.95L1098.6 209.65Q1114.3 223.7 1129.55 240.25 1178.35 293.15 1204.25 351.4M696.45 36.55L707.1 44.35Q720.1 54.8 731.85 67.85 769.4 109.65 780.45 162.15M247.7 320.55L252.5 323.75Q258.65 328.1 265.3 333.7 286.45 351.55 304.5 375.4 362.1 451.7 366.35 558.9M75.95 491.15Q66.8 482.7 53.55 476.75 27.05 464.85 6.65 477.4M307.05 1094.7L299.1 1106.5Q289.35 1121.8 280.35 1139.1 251.6 1194.6 241.35 1249.8M245.45 1059.05L235.45 1071.9Q223.2 1088.5 211.9 1107.35 175.8 1167.65 162.9 1227.75M256.7 1309.25L260.25 1314.85Q264.45 1322.2 267.65 1330.85 277.85 1358.55 274.2 1389M307.05 1528.2L313.95 1535Q322.25 1543.75 329.5 1553.4 352.75 1584.2 356.55 1612.25M984.1 1093.9L999.25 1109.25Q1017.6 1129.1 1033.6 1151.2 1084.85 1221.95 1093.75 1289.45M1256.85 1002.3L1259.95 1006.25Q1263.85 1011.5 1267.8 1018 1280.45 1038.85 1289.05 1064.7M815.75 1002.3L818 1002.55Q821.75 1002.8 829.15 1002.6 852.85 1001.95 904.55 997.3M931.2 1354.95L962.8 1349.65Q1003.85 1342.2 1050.8 1331.3M743.45 1318.3Q745.2 1318.2 779.75 1318.2 822.65 1317.6 866.6 1314.55M699.25 1414.75L737.25 1416.05Q784.8 1416.95 832.5 1414.9 985.15 1408.3 1082.1 1374.85M815.75 1505.45L842.95 1504.9Q877.15 1503.7 912.2 1500.1 1024.3 1488.6 1102.5 1458.05M1021.2 1634.2L1015.85 1758.5M1006.35 1825.45L1023.95 1825.6Q1045.5 1826.55 1065.35 1830.5 1128.9 1843.2 1151.6 1881.45M705.5 1671.35L677.55 1811.75M520.65 1847.95L541.2 1848.25Q566.25 1849.4 588.8 1853.85 660.8 1868.1 680.35 1909.7M286.3 1640.8L290.25 1647.65Q295 1656.6 298.85 1666.75 311.25 1699.3 310.2 1732.25"/>   <path id="Layer1-576-57_0_2_STROKES" stroke="#000" stroke-width="10" stroke-linejoin="round" stroke-linecap="round" fill="none" d="M1333.25 937.05L1342.6 949.5Q1353.9 965.55 1363.3 983.7 1393.5 1041.7 1394.2 1098.65M1418.25 939.2L1426.75 951.45Q1436.9 967.2 1445.1 984.75 1471.35 1040.95 1468.2 1093.9M1522.45 1206.5Q1523.7 1205.75 1524.95 1205M1382.85 1411.8Q1389.3 1412.2 1395.85 1412M1488.9 1224.05Q1471.95 1231.85 1454.9 1237.7 1435.9 1244.15 1416.7 1248.15 1411.6 1249.2 1406.5 1250.1 1358.35 1258.55 1311.1 1251.2 1277.35 1246 1247.4 1233.4 1238.1 1229.5 1230.2 1225.3L1224.25 1221.9M1488.9 1224.05Q1505.75 1216.25 1522.45 1206.5M1194.25 1430.3Q1190.25 1440.5 1185.3 1451.15M1208.7 1375.7Q1209.95 1365.7 1209.95 1356.2 1210 1321.05 1193.3 1294.55 1181.35 1275.6 1162.25 1262.85 1156.25 1258.85 1150.3 1255.95L1145.5 1253.85M1264.8 1345.15Q1269.1 1350.25 1273.55 1354.95M1323.35 1394.25Q1318.2 1391.45 1313.1 1388.2 1292.4 1375 1273.55 1354.95M1252.1 1367.05Q1261.7 1364 1270.35 1358.2M1323.5 1394.35Q1352 1409.8 1382.85 1411.8M580.85 .05L587.15 3.1Q595.25 7.2 604.05 12.5 632.4 29.5 658.1 52.2 740.15 124.85 764.45 227.4L774.05 234.35Q786.1 243.35 798.1 253.55 836.65 286.15 860.85 318.55L1003.35 318.55 1008.1 314.25Q1014 308.4 1019.9 300.45 1038.85 275 1050.65 238.35 1050.45 231.45 1048.6 219.9 1044.8 196.85 1036.4 173.9 1009.45 100.35 946 54.95M179.2 318.55L186.5 322.05Q195.85 326.9 205.75 333.35 237.4 354.1 263.2 383.6 299.25 424.95 318.4 477.95 342.25 544.2 338.1 625.05 333.2 625.4 324.25 625.15 306.35 624.6 286.25 621.55 221.95 611.7 159.55 580.25 161.6 563.25 156.95 539.95 147.7 493.45 114.45 462.25 115.15 444.5 123.6 417.7 140.5 364 179.2 318.55ZM159.55 703.8L177.75 711.8Q200.4 721.4 222.6 729.3 293.7 754.65 333.8 753.8L333.6 763.45Q333.5 775.8 333.95 789.35 335.4 832.65 341.95 871.55 351.1 926 369.1 963.75 391.6 1010.95 426.7 1029.3 398.4 1022.55 357.45 1006.8 275.6 975.25 212.3 930.15 208.3 925.45 202.5 916.1 190.9 897.3 181.8 873.8 152.7 798.55 159.55 703.8ZM347.95 1083.45Q348.15 1083.7 348.4 1083.95 361.8 1097.9 373.9 1115.2M288.2 1298.15L292.4 1304.8Q298.95 1316.75 303.3 1331.7 317.35 1379.4 304.6 1439.05 315.3 1449 321.55 1461.55 325.85 1470.1 326.75 1476.15M349.45 1086.15L338.7 1100.35Q325.6 1118.85 313.55 1140.35 275 1209 261.9 1281.35M186.1 1033.95L188.65 1033.2M189.2 1033L190.75 1032.55Q196.8 1030.95 203.75 1029.9 225.9 1026.5 248.75 1029.85 280.75 1034.6 309.4 1052.2 316.55 1056.6 323.45 1061.75 323.5 1061.8 323.55 1061.85M347.95 1083.45Q336.35 1071.5 323.85 1062.05 323.7 1061.95 323.55 1061.85M286.3 1042.05L285.3 1043.45M224.45 1029.55L207.45 1046.95Q186.5 1069.75 168.3 1095.1 110.05 1176.25 101 1252.9M256.5 1283.45Q272.05 1289.85 287.85 1297.6L286.75 1295.85M285.3 1043.45L273.45 1060.1Q257.75 1083.1 243.25 1108.1 197 1187.85 180.7 1256.65M224.75 1029.25L224.45 1029.55M188.65 1033.2L189.2 1033M287.85 1297.6L288.2 1298.15M256.5 1283.45Q181.5 1252.6 112.55 1253.5 98.05 1253.65 84.7 1255.3M75.1 1257.5Q102.45 1258.55 116.9 1277.65 135.05 1301.55 135.05 1355.55 135.05 1385.55 126.95 1412.7 126.2 1415.2 125.45 1417.6M129.95 1415.95Q128.75 1416.15 127.6 1416.4M315.85 1329.95L319.5 1332 319.6 1332.05M747.9 1351.6Q744.3 1351.75 742.05 1351.85 730.15 1352.4 711.9 1369.05 705.15 1375.2 700.1 1381.35 695.35 1387.05 695.35 1388.7M319.6 1332.05L321.5 1333.1Q329.25 1337.05 339.6 1341.25 372.7 1354.6 419.65 1365.05 569.75 1398.45 801.55 1390 929.05 1385.4 1024.05 1363.5 1096.6 1346.8 1147.2 1320.8M864.35 1346.95L863.75 1346.85Q773 1350.5 747.9 1351.6M864.35 1346.95L866.8 1347.4Q870.65 1348.4 874.55 1350.75 886.95 1358.3 895.05 1376.5M287.85 1297.6Q301.95 1304.55 316.3 1312.55M84.7 1255.3Q77.25 1256.15 70.15 1257.5 71.05 1257.45 71.95 1257.45 73.55 1257.45 75.1 1257.5M35.5 1272.9Q42.25 1267.2 49.25 1263.55 51.4 1262.45 53.6 1261.5 54.25 1261.25 54.9 1261 48.35 1262.7 42.9 1264.75L41.2 1265.45M54.9 1261Q56.05 1260.65 57.25 1260.35 63.55 1258.75 70.15 1257.5 62.65 1257.85 54.9 1261ZM38 1266.75L41.2 1265.45M125.45 1417.6Q123.85 1422.3 122.1 1426.85M101.05 1464.45Q90.95 1477.4 79.25 1485.45 64.55 1495.55 51 1495.55 43.5 1495.55 36.8 1493.45M.85 1546.3Q.85 1546.55 .8 1546.85 -.15 1556.85 .2 1568.5 .45 1577.05 .3 1577.95 .25 1578 .25 1578.05M105.6 1506.5Q53.35 1530.9 1.65 1576.95M105.775 1506.4L105.8 1506.4Q120.9 1499.35 136.1 1494.1 190.3 1475.35 242.55 1480.4 279.9 1484.05 312.55 1499.2 325.5 1505.2 333.75 1510.8M293 1429.9Q270.35 1414.75 236.55 1409.95 191.85 1403.65 129.95 1415.95M293 1429.9Q294.7 1431.05 296.35 1432.25 300.75 1435.5 304.6 1439.05M122.1 1426.85Q115.7 1443.15 106.45 1456.9 103.8 1460.85 101.05 1464.45M36.8 1493.45Q28.55 1490.9 21.5 1485.2 20.05 1484 18.65 1482.75M19.5 1493.05Q20.65 1491.45 21.85 1489.9M18.65 1482.75Q8.15 1472.95 1.5 1456.35M3.65 1529.15Q8.35 1508.5 19.5 1493.05M1.5 1456.35Q.8 1454.55 .1 1452.65M.85 1546.3Q1.75 1537.3 3.65 1529.15M105.775 1506.4Q105.649 1506.453 105.6 1506.5M319.2 1428.3Q317.65 1427.55 316.2 1426.8L310.5 1423.65M319.2 1428.3Q325.95 1431.55 334.4 1434.95 367.75 1448.3 414.95 1458.75 433.1 1462.75 452.5 1466.2M528.75 1476.8Q627 1487.2 749.9 1485.25L792.35 1483.95M801.2 1483.65L816.25 1483.05M1171.05 1371.25Q1173.45 1354.65 1168.8 1336.85 1166 1326.15 1160.85 1316.05M1154.65 1305.7L1156.8 1309M1147.2 1320.8Q1147.25 1320.75 1147.3 1320.75M337.75 1513.65Q335.9 1512.2 333.75 1510.8M452.5 1466.2Q488.55 1472.55 528.75 1476.8M1262.6 965.15L1271.95 976.35Q1283.25 990.8 1292.65 1007.1 1322.9 1059.3 1323.6 1110.55M1009.45 952.4L1007.9 956.7 1006.35 960.95Q1002.35 971.4 998 980.8 993.1 991.35 988.4 999.3M971.2 1019.85Q972.5 1018.95 973.85 1017.8 980.95 1011.75 988.4 999.3M749.45 1065.45Q754.15 1061.6 759.7 1055.05M1110.45 1019.85L1110.65 1029.15Q1110.2 1040.7 1106.95 1052.05 1096.4 1088.45 1061.25 1109.5M1118.95 1103.3Q1132.8 1115.55 1145.4 1129.05 1164.45 1149.5 1177.95 1169.95M1206.45 1232.8L1207.7 1238.35Q1208.5 1242.3 1209.15 1246.25M1092.7 1082.2L1108.8 1094.65Q1113.95 1098.9 1118.95 1103.3M1177.95 1169.95Q1198.7 1201.35 1206.45 1232.8M855.35 973.65Q856.05 973.6 856.8 973.55 864.65 973.1 872.55 972.55 954.85 966.8 1009.45 952.4M806.2 975.35L821.4 975.1Q838.3 974.6 855.35 973.65M806.2 975.35L801.15 975.45Q789.75 1012.4 770.95 1040.05 769.45 1042.25 767.9 1044.4 763.55 1050.4 759.7 1055.05M792.35 1483.95Q795.8 1483.9 799.3 1483.75 800.25 1483.7 801.2 1483.65M1208.6 1250.45L1211.45 1257.55Q1215.25 1266.5 1220 1276.2 1235.3 1307 1254.65 1332.5 1256.85 1335.4 1259.05 1338.2 1261.9 1341.75 1264.8 1345.15M1156.8 1309L1158.3 1311.3Q1159.65 1313.65 1160.85 1316.05M1171.05 1371.25Q1167.65 1394.15 1150.85 1414.75M1147.3 1320.75Q1149.65 1319.5 1151.95 1318.3M1151.95 1301.65L1154.65 1305.7M1212.9 1370.35L1216.5 1370.05M1252.1 1367.05Q1243.45 1369.8 1234.05 1370.25 1229.75 1370.45 1220.95 1370.1 1218.3 1370 1216.5 1370.05M1200.5 1430.75L1213.8 1432.05Q1230.45 1433.15 1247.05 1432.05 1300.2 1428.65 1333.25 1404.85M1208.7 1375.7Q1205.5 1401.3 1194.25 1430.3M1185.3 1451.15Q1184.4 1453 1183.5 1454.9M816.25 1483.05Q933.95 1477.65 1023.25 1457.2 1099.75 1439.7 1151.95 1412M988.6 1800.85L999.1 1612.05M967.5 1622L958.9 1737.35M1186.15 1909.85Q1186.35 1909.8 1186.55 1909.75M716.85 1953.15Q714.55 1951.75 712.4 1950.1M402.1 1944.6Q407.3 1945.6 412.65 1946.55 458.35 1954.6 505.35 1955.75M971.6 1943.4Q1090.75 1939.6 1186.15 1909.85M946 1943.95Q932.75 1944.05 919.2 1943.85 871.9 1943.2 826.75 1938.75L794.4 1934.85M785.3 1937.45Q784.95 1937.8 784.6 1938.2 774.4 1949.7 762.15 1955.3 749.5 1961.1 736.5 1959.75 725.85 1958.6 716.85 1953.15M785.3 1937.45Q806.3 1913.3 810.35 1876.7 814.45 1839.5 798.65 1811.3 791.15 1797.95 780.45 1789.95 769.35 1781.65 756.35 1780.3 745 1779.1 733.85 1783.4 723.1 1787.5 713.6 1796.35M721.2 1823.45Q734.05 1810.15 748.05 1812.6 754.35 1813.7 759.3 1817.75M774.45 1853.25Q775.2 1863.8 773.05 1875.6 768.7 1899.1 755.25 1913.95 741.75 1928.8 727.05 1926.2 716.85 1924.45 709.85 1914.3M759.3 1817.75Q765.9 1823.1 770.05 1833.65 773.7 1842.8 774.45 1853.25M709.45 1840.3Q713.7 1831.65 719.9 1824.85 720.55 1824.15 721.2 1823.45M702.05 1863.2Q704.4 1850.45 709.45 1840.3M791.05 1934.45L794.4 1934.85M946 1943.95Q958.9 1943.8 971.6 1943.4M493.55 1750.6L485.85 1809.45 483.95 1823M301.45 1913.2L308.85 1916.65Q318.6 1920.95 330.45 1925.2 363.75 1937.1 402.1 1944.6M505.35 1955.75Q604.1 1958.15 708.35 1930M227.65 1620.05L233.4 1639.7Q241 1663.8 250.35 1686 280.15 1757.1 315.85 1782.7M156.6 1640.8L163.9 1663.1Q173.6 1690.5 185.45 1715.7 223.4 1796.4 268.85 1825.5M87.25 1671.35L94.65 1692.4Q104.45 1718.2 116.45 1742.05 154.8 1818.2 200.7 1845.65"/>   <path id="Layer1-576-57_0_3_STROKES" stroke="#000" stroke-width="14" stroke-linejoin="miter" stroke-linecap="round" stroke-miterlimit="10" fill="none" d="M32.1 512.4Q50.25 512.4 63.1 531.25 75.95 550.1 75.95 576.8 75.95 603.45 63.1 622.35 50.25 641.2 32.1 641.2"/>   <path id="Layer1-576-57_0_4_STROKES" stroke="#000" stroke-width="9.94" stroke-linejoin="round" stroke-linecap="round" fill="none" d="M48.25 1334.3Q48.45 1333.9 48.7 1333.55M42 1348.35Q39.15 1356.7 37.4 1366.6 37.2 1367.85 37 1369.1M64.6 1416.7Q66.9 1414.1 69.25 1410.55 69.7 1409.85 70.15 1409.15M63.65 1318.35Q63.7 1318.35 63.75 1318.35M48.7 1333.55Q49.55 1332 50.5 1330.55 57.1 1320.45 63.65 1318.35M63.75 1318.35Q66.45 1317.5 69.1 1317.95 72.6 1318.55 75.35 1321.3 79.9 1325.8 82.3 1336.15 86.2 1352.7 82.35 1374.5 78.75 1395.25 70.15 1409.15M64.6 1416.7Q57.6 1424.35 50.6 1423.15 41.3 1421.5 37.4 1404.95 33.75 1389.3 37 1369.1M42 1348.35Q44.65 1340.65 48.25 1334.3"/>  </g>  <g id="outline-57" transform="translate(734.3 703.75)">   <path fill="#000" stroke="none" d="M126.35 722.85Q126.3 722.75 126.25 722.65 125.4 720.45 123.2 719.45 121 718.5 118.8 719.4 116.65 720.2 115.7 722.3 115.3 723.05 115.2 723.85 120.8 723.7 126.35 722.85M108.15 450Q108.15 450.05 108.2 450.1 109.4 452.15 111.7 452.75 114 453.35 116.05 452.15 117.4 451.35 118.15 450.1 115.2 449.9 112.3 449.9 110.2 449.9 108.15 450M1421.9 491.55Q1412.3 462.85 1394.85 439.85 1381.65 422.1 1363.7 409.15 1353.6 379.8 1340.7 352.8 1316.1 301.2 1281.05 255.05 1245.95 208.9 1201.1 169.1 1156.25 129.3 1104.3 98.25 1052.4 67.2 994.3 45.4 934.15 22.85 870.6 11.45 807 .05 741.2 .05 628.75 -.1 521.8 33.75 420.7 65.6 334.25 127 249.65 187.25 191.75 268.2 132.7 350.6 107.55 445.75 107 448 108.15 450 110.2 449.9 112.3 449.9 115.2 449.9 118.15 450.1 118.5 449.45 118.7 448.7 143.15 355.85 201.1 274.9 258.05 195.45 340.95 136.35 383.2 106.4 429.55 83.35 475.95 60.25 525.3 44.7 630.55 11.4 741.2 11.55 806 11.55 868.55 22.75 931.1 33.95 990.2 56.15 1047.3 77.6 1098.35 108.15 1149.45 138.65 1193.45 177.7 1281.8 256.2 1330.3 357.7 1344.5 387.55 1354.85 418.8 1357.35 420.5 1359.9 422.5L1369.8 431.05Q1377.75 438.7 1384.5 447.65 1400.7 469.05 1409.6 495.6 1418.5 522.2 1418.5 549.25 1418.5 579.55 1410.3 606.45 1402.05 633.35 1386.6 653.7L1375.05 666.8 1372.3 669.45Q1357.3 751.8 1315.05 820.6 1272.7 889.6 1204.95 941.7 1122.5 1005.1 1009.55 1038.5 896.55 1071.9 763.6 1071.9 652.75 1071.9 550.45 1048.6 447.7 1025.15 363.7 980.65 275.65 934.05 215.2 868.35 154.75 802.75 126.35 722.85 120.8 723.7 115.2 723.85 114.95 725.15 115.4 726.5 144.55 808.55 206.45 875.85 262.25 936.6 340.95 981.35L346.1 977.8 340.95 981.35Q349.5 986.2 358.3 990.85 444 1036.25 547.95 1059.9 651.45 1083.55 763.7 1083.55 898.1 1083.55 1012.85 1049.65 1083.7 1028.7 1142.8 996.15 1179.7 975.8 1212 950.95 1280.25 898.5 1323.4 829.3 1366.35 760.4 1382.5 677.9 1389 671.7 1394.8 664.45 1412.55 642.2 1422 612.5 1431.5 582.8 1431.5 549.35 1431.5 520.2 1421.9 491.55Z"/>   <path id="Layer1-575-57_0_1_STROKES" stroke="#000" stroke-width="13" stroke-linejoin="miter" stroke-linecap="round" stroke-miterlimit="10" fill="none" d="M108.15 450Q110.2 449.9 112.3 449.9 115.2 449.9 118.15 450.1M126.35 722.85Q120.8 723.7 115.2 723.85M340.95 981.35L346.1 977.8M1228.5 1458.85Q1311.75 1501.4 1397.05 1471 1435.4 1457.35 1470.95 1429.55 1504.95 1403.05 1533.5 1365.9 1561.4 1329.7 1581.3 1287.15 1601.25 1244.55 1611 1200.35 1621 1154.95 1619.15 1112.65 1617.25 1068.25 1602.5 1031.1 1582.75 981.45 1528.9 960.05 1482.2 941.45 1419.95 947 1410.85 947.7 1397.55 950.65 1371.05 956.5 1350.2 967.8 1321.1 983.55 1307.6 1007.85 1290.7 1038.2 1299.35 1080.2M1343.7 1121.55Q1337.15 1101.1 1319.8 1091.15 1301 1080.3 1280.2 1089.25 1265 1095.75 1261 1110.45 1257.4 1123.35 1263.2 1138.65 1268.35 1151.65 1276.2 1162.9 1302.75 1202.4 1302.35 1227.6 1302.15 1237.35 1297.95 1245.75 1295.25 1251.2 1289.25 1258.5M118.15 450.1Q132.45 450.95 146.1 456.2 162.05 462.35 175.8 473.9M115.2 723.85Q113.75 723.9 112.3 723.9 89.45 723.9 68.6 713.15 48.45 702.75 32.9 683.75 17.35 664.8 8.85 640.2 0 614.75 0 586.9 0 559.05 8.85 533.6 17.35 509 32.9 490.05 48.45 471.05 68.6 460.65 87.55 450.9 108.15 450M175.8 699.9Q162 711.45 146.1 717.55 136.35 721.3 126.35 722.85M454.3 1118.65Q416.5 1199.35 401.95 1291.8 394 1342.4 393.35 1381.85 392.55 1431.15 402.7 1471.55 406.55 1486.75 410.95 1498.95 416.1 1513.2 422.65 1525.25 427.65 1534.5 438.35 1550.35 450.55 1568.4 454.9 1575.7 473.05 1606.25 471.45 1631 469.9 1655.15 450.6 1665.2 432.2 1674.8 406.85 1667.35 411.55 1681.5 414.5 1695.45 430.8 1772.2 390 1812.5 371.05 1831.2 343.8 1843 318.05 1854.15 289.45 1857.25 229.75 1863.75 184.75 1829.95 146 1800.85 119.85 1743.35 97.95 1695.2 86.65 1631.85 77.4 1579.6 77.2 1530.05 76.8 1397.9 118.75 1281.55 152.25 1188.5 211.2 1109.75 253.35 1053.5 303.9 1010.05 319.7 996.45 334.5 985.75L340.95 981.35M1141.55 1118.65L1145.95 1123.25Q1151.5 1129.35 1157.4 1137 1176.25 1161.35 1191.4 1191.45 1239.75 1287.85 1232.55 1405.8L1230.55 1425.3Q1227 1449.6 1219.3 1473.9 1194.55 1551.55 1137.25 1599.4 1133.15 1602.8 1130.75 1607.55 1128.35 1612.3 1128.05 1617.6 1123.15 1707.35 1119.7 1813.6L1125.95 1813.45Q1134 1813.4 1142.55 1814.15 1170.05 1816.6 1193.2 1825.85 1225.65 1838.85 1244.85 1863.7 1268.85 1894.7 1270.6 1942.6 1271.1 1955.7 1262.4 1966.2 1253.7 1976.7 1239.75 1979.95 1169.2 1996.35 1078.3 2001.25 940.9 2008.65 786.35 1987.1 775.65 1991.55 756.4 1997.2 717.9 2008.55 675.2 2014.75 538.55 2034.5 411.25 1995.1 394.8 1990 385.55 1976.65 376.25 1963.25 378.25 1947.5 385.9 1888.6 404.25 1799.6M1259.7 1105.55Q1246.45 1084.75 1224.85 1060.5 1183.2 1013.8 1142.8 996.15M1119.7 1813.6Q1086.35 1813.45 1044.65 1819 961.15 1830.1 919.1 1858.8M408.1 1894.5Q415.3 1889.9 428.05 1883.2 453.45 1869.85 481.05 1859.5 569.2 1826.4 645.35 1835.9 736.9 1847.35 770.7 1883.4 774.15 1887.1 777.05 1891.1L829.95 1643.7M777.05 1891.1Q802.75 1926.45 786.35 1987.1M390 1626.75L392.7 1632.1Q396 1638.95 399.2 1646.7 403.5 1657.05 406.85 1667.35"/>   <path id="Layer1-575-57_0_2_STROKES" stroke="#000" stroke-width="10" stroke-linejoin="round" stroke-linecap="round" fill="none" d="M473.85 1623.15L482.5 1626.1Q493.65 1629.7 506.65 1633.35 548.05 1644.85 591.05 1651.55 728.65 1673.1 830.75 1638.55L838.3 1640.05Q848.1 1641.8 859.4 1643.25 895.55 1647.9 933.05 1647.5 1052.9 1646.25 1140.75 1595.1"/>  </g>  <g id="shade" transform="translate(799.5 740.55)">   <path fill="#000" stroke="none" d="M1118.6 1508.3L1107.9 1521.3Q1093.9 1537 1077.55 1550.75 1025.2 1594.75 968.8 1602.3L973.45 1604.35Q979.9 1606.65 988.8 1607.6 1017.35 1610.7 1059.95 1599.65L1064.35 1579.3 1073.2 1562.5 1083.7 1552.3 1118.6 1508.3M386.8 1096.75Q386.95 1095.9 386.45 1095.15 385.95 1094.45 385.1 1094.3 384.35 1094.2 383.75 1094.55 383.05 1094.9 382.8 1095.6 350.25 1170 336.25 1250.25 313.1 1383.05 353.8 1481.3L353.95 1481.6 396.95 1552.5 397.2 1553.1 401.6 1570.1Q403.95 1579.05 403.6 1588.25 403.25 1597.55 400.25 1606.25L395.45 1620.4Q395.15 1621.25 394.3 1621.65L367.7 1633.3Q367.15 1633.55 366.6 1633.45L344.65 1630.95Q343.8 1630.85 343.1 1631.4 342.45 1631.95 342.35 1632.8 342.3 1633.05 342.4 1633.55L350.1 1662.85 350.15 1663.2 353.8 1712.9Q353.8 1713.4 353.7 1713.65L339.1 1762.75 314.85 1912.7Q314.8 1913.1 314.85 1913.45L320.85 1939.9Q321.05 1940.85 322.05 1941.35L381.35 1968Q381.6 1968.15 381.85 1968.15L450.85 1980.4 535.45 1984.4 595.65 1979.9 595.9 1979.9 679.5 1963.85 719.95 1950.85Q721.2 1950.45 721.35 1949.1L723.6 1931.3Q723.05 1940.85 727.25 1945.85 730.05 1949.2 735.2 1950.95 738.55 1952.05 744.85 1952.95 782 1958 827.35 1961.15 858.75 1963.35 910.15 1965.6L1023.3 1963.9Q1023.85 1963.9 1025.05 1963.8L1130.45 1950.4 1170.75 1943.85Q1174.7 1943.25 1177.75 1940.85L1191.45 1930.65Q1203.8 1921.4 1202.6 1903.45 1202.25 1898.5 1200.3 1888.15 1198.4 1878.1 1198.15 1873.35L1189.45 1849.85 1180.35 1839.95Q1183.95 1844.1 1175.65 1854.95 1169.7 1862.65 1163.8 1867.35 1154.65 1874.65 1141.8 1880.45 1131.85 1884.95 1117.65 1889.35 1084.4 1899.5 1042.4 1904.55 1015.4 1907.8 965.75 1910.55 930 1912.5 903.7 1912 870.15 1911.3 841.95 1906.65 828.7 1904.45 820.35 1902.45 808.4 1899.55 799.45 1895.5 785.35 1889.2 778.5 1879.4 770.55 1868.2 773.7 1854.3 775.85 1844.65 781.7 1820.7 786.85 1799.7 789.2 1788.3 799.3 1741.85 804.15 1718.5 812.6 1677.6 816.65 1648.3 820.05 1632.95 820.7 1623.8 821.85 1606.8 812.25 1606.4 788.35 1605.5 764.9 1607.8L719.9 1814.8Q717.15 1827.25 716.25 1834.05 714.75 1844.8 715.6 1853.45 716.35 1860.85 720.3 1874.45L717.55 1865.65Q718.4 1869.2 718.4 1872.6 718.4 1886.35 704.8 1898.95 691.6 1911.05 667.65 1920.45 643.65 1929.8 612.5 1934.95 580.3 1940.25 545 1940.25 509.75 1940.25 477.5 1934.95 446.4 1929.8 422.4 1920.45 398.4 1911.05 385.25 1898.95 371.6 1886.35 371.6 1872.6 371.6 1865.15 377.1 1855.45 382.5 1845.95 390.2 1839.4L391.9 1833.6Q391.1 1833.95 390.3 1833.6 389.5 1833.25 389.2 1832.45 388.95 1831.9 389.1 1831.3L429.55 1632.2Q433.15 1614.45 448.2 1604.2 463.2 1594 481.05 1597.2 505 1601.45 532.55 1603.9 563.55 1606.6 596.4 1606.8 559.45 1605.8 524.15 1588.7 489.7 1572.05 460.4 1541.9 432.75 1513.55 413.95 1477.8 395.5 1442.75 389.3 1407.7 382.3 1368.35 379.1 1335.65 375.4 1298.25 375.9 1263.05 376.6 1214.95 378.45 1181.85 381.05 1136 386.8 1096.75M727.25 1903.45Q727.6 1907.4 726.45 1913.9 725.8 1917.35 724.45 1924.35L727.15 1902.5Q727.2 1903 727.25 1903.45M137.1 632.75L101.7 670.75 59.25 689.3 59.85 714.4 102.3 777.9 130 816.7 189.6 875.1 253.6 922.6 280.9 941 260.6 955.45 226.25 988.25 182.9 1028 152 1065.15 120.45 1113 84.8 1172 55.2 1240.15 31.1 1320.7 16.3 1408.6 13.25 1502.15 17.3 1568.15Q31.8 1638.6 32.55 1641.15 33 1642.8 42.8 1672.45 47.75 1687.25 52.55 1701.75L90.05 1764.6 143.05 1807.5 188.05 1821.5 254.35 1814.7 299.55 1795.6Q266.7 1802 235.45 1766 210.45 1737.2 187.6 1682.7 171.3 1643.8 157.7 1595.95 153.45 1580.95 149.95 1566.9L147.35 1555.85Q128.8 1435.15 147.65 1328.15 162.7 1242.55 200.85 1169.6 228.15 1117.45 264.2 1076.85 275.5 1064.15 286.3 1054.15L294.85 1046.7Q316.7 1027.35 322.35 1024.7 326.25 1022.9 331.6 1023.6 335.25 1024.1 347.1 1027.3 383.35 1037.1 424.45 1043.8 498.3 1055.85 609.55 1063.6 727.55 1071.8 829.65 1058.45 911.35 1047.75 979.2 1023.85 1027.65 1006.8 1064.35 984.8 1082.7 973.85 1091.35 966.25L1074.45 955.1 1014.55 982.6 965.35 1000Q711.6 1034.8 524.55 985.45 374.65 945.9 274.25 854.45 202.5 789.15 162.6 704.4 150.15 677.95 142.4 652.7L137.1 632.75M961.85 1001.25L954.6 1003.8 864.45 1022.55Q857.75 1023.95 915.35 1011.55 950.55 1003.9 961.85 1001.25M8.85 505.35Q.05 522.3 .05 551.15 .05 579.9 8.85 596.65 18.75 615.4 38.2 615.4 58.7 615.4 73.15 596.5 87.65 577.6 87.65 550.85 87.65 524.1 73.15 505.2 58.7 486.3 38.2 486.3 18.8 486.3 8.85 505.35M431.4 16.7L365.45 39 284.45 86.6 201.3 155.1 128 240.8 75.05 319.05 47.15 413.05 87.65 422.25 110.65 437.05Q115.55 414.65 127.5 379.85 151.35 310.25 186.4 248.1 235.45 161.1 299.9 101.6 360.15 45.85 431.4 16.7M480.45 .05Q455.3 6.85 431.4 16.7L480.45 .05M1477.65 1316.5L1526.2 1227.1 1546.55 1150.2Q1497.6 1283.4 1426.8 1334.05 1370.15 1374.6 1302.15 1360.75 1253.6 1350.85 1204.2 1314.7 1188.8 1303.45 1175.1 1290.9L1164.55 1280.6 1168.75 1337.75 1163.35 1390.3 1163.35 1422 1217.05 1441.65 1265.95 1446.65 1347.45 1428 1420.35 1380.65 1477.65 1316.5M1338 918.15Q1349.45 912.6 1357.85 909.95L1285.4 930.85 1256.05 952.7 1236.5 980.7 1231.3 1015.7Q1231.05 1017.2 1232.85 1030.5 1234.75 1044.35 1235.9 1046.75 1236.35 1047.75 1238.95 1049.4L1225.25 1051.25 1202.4 1061.3 1199.5 1079.8Q1196.85 1098.95 1198.05 1101.9 1199.9 1106.6 1218.6 1137.9L1234.1 1170.95 1235.25 1185.6Q1236.2 1200.45 1235.1 1201.55 1234 1202.65 1230 1213.7 1228.05 1219.25 1226.25 1224.55 1258.35 1216.25 1251.7 1168.7 1249.65 1153.85 1243.95 1136.85L1238.65 1122.8Q1214.85 1083 1229.1 1063.1 1233.55 1056.9 1241.25 1053.45 1242.7 1052.8 1244 1052.35 1246.05 1053.45 1248.65 1054.7 1254.5 1057.6 1260.15 1060L1276.7 1075Q1256.95 1032.75 1265.3 997.3 1272 968.95 1296.25 946.2 1313.6 929.95 1338 918.15Z" fill-opacity=".25"/>  </g> </g><defs><style>.cls-1-159{fill:#545454;}.cls-2-159{fill:#e56d00;}.cls-3-159{fill:url(#Medium_Spectrum_);}.cls-4-159{fill:#9e9e9e;}.cls-5-159{fill:#ef3a76;}.cls-6-159{opacity:0.24;}.cls-7-159,.cls-8-159,.cls-9-159{fill:none;stroke-linecap:round;}.cls-7-159{stroke:#fff;stroke-width:8px;}.cls-7-159,.cls-9-159{stroke-miterlimit:10;}.cls-8-159,.cls-9-159{stroke:#000;}.cls-8-159{stroke-linejoin:round;stroke-width:12px;}.cls-9-159{stroke-width:13px;}</style><linearGradient id="Medium_Spectrum_" x1="800.96" y1="2167.29" x2="2354.71" y2="2167.29" gradientUnits="userSpaceOnUse"><stop offset="0" stop-color="#66c2ec"/><stop offset="0.2" stop-color="#7d76af"/><stop offset="0.4" stop-color="#e98eb1"/><stop offset="0.6" stop-color="#ec8a6d"/><stop offset="0.8" stop-color="#fbee8f"/><stop offset="1" stop-color="#77be90"/></linearGradient></defs><polyline class="cls-1-159" points="2037.53 1945.24 2033.16 1912.98 2018.08 1878.38 1997.51 1842.34 1997.79 1809.24 2014.49 1792.91 2040.03 1789.64 2033.16 1753.85 2040.03 1713.85 2077.97 1675.26 2146.03 1652.74 2218.68 1652.08 2274.42 1668.66 2308.21 1691.99 2339.46 1726.67 2351.76 1794.77 2351.01 1871.39 2332.95 1947.97 2296.19 1963.43 2241.48 1979.38 2178.97 1981.1 2116.39 1973.2 2059.03 1957.67 2037.53 1945.24"/><path class="cls-1-159" d="M924,2537.16s48.69,21.43,51.79,22,48,1.75,48,1.75l60.63-17.13,29.92-24,24.5-24,13.37-38.3,2.31-43.68L1141.14,2371l31.93.14,28.16-18.77,4.67-30.62-7.24-33.62L1158,2233l-30.35,15.58-53,31.2L1012.79,2309l-62.95,21.46-50.15,10.7-74.83,6.24,12.25,54.73,17.83,41.3,17.5,35.63,23.3,31"/><path class="cls-1-159" d="M938.64,2260.41c38.64-16.9,37.43-64,33.81-101.43-4.83-58,12.08-120.76-16.91-172.69-33.63-16.27-73.11-17.92-109.68-14.58l-.17.39-35.5,16.58L798,2016.61l-16.25,61.22-9.08,67.3s-.85,49-1.87,55.89,15.14,30.74,16.69,32.69S801,2246.05,801,2246.05v6.52C847.1,2267.51,893.55,2278.89,938.64,2260.41Z"/><path class="cls-1-159" d="M1132.84,2128.79l0,0a1.73,1.73,0,0,0-2.73,1.58c2.3,32.17,9.75,63,20.39,93.84,10.58,27.77,35.26,44.68,51.71,68.83,58.77,7.24,116.36,20.53,176.3,31.39,43.86,7.12,86.59.27,129.31,8,3.46-44.54-1.18-89.07,7-132.41C1385.53,2191.58,1256.25,2178.3,1132.84,2128.79Z"/><path class="cls-2-159" d="M1508.61,2332.87l-2.38-.43,0,.43Z"/><path class="cls-1-159" d="M2210.21,2102.22c-21.74,1.21-35,30.19-55.55,38.64-47.09,16.91-97.81,16.91-147.32,14.49-6.36-.57-10.51,4.94-13.9,12.44-2.16,21.2-7.29,42.26-11.22,63.41l29,1.06,56.28,3.45,58.33-6.1,56.4-18.72,46.38-35.88,23.43-24.88,6.4-22,3.68-4.49C2246.61,2110.35,2229.83,2100.26,2210.21,2102.22Z"/><path class="cls-3-159" d="M2351,1949.82c-11-15.52-11.29-8-11.53-7.92-21.73,6-32.64,20.24-54.38,25.07-84.53,20.53-172.68,21.74-247.55-21.73,2.41-18.12-7.25-33.82-13.29-49.51-11.72-29.32-37.57-61.1-22.71-93.59l-15.88-17.74-18.9-32.13-15.7-13.48,3.84-26.93-17-27.76-30.77-8.55-27.73,12.29L1818.29,1719l-85.63,26L1666,1760.25l-115.92,13.55-89.51-.6L1348,1763.52l-88.19-15.74-147-45.85-50.63-34.46-26.05-9.59-27.18,8-15.43,19.49s4.22,31,2.39,38,18.75,18.33,18.75,18.33l-26.44,18.52-39.06,40.92L911,1850.74,861,1937.41l-15.09,34.3c36.57-3.34,76-1.69,109.68,14.58,29,51.93,12.08,114.72,16.91,172.69,3.62,37.43,4.83,84.53-33.81,101.43-45.09,18.48-91.54,7.1-137.68-7.84v44.32s3.85,28.08,6.6,47.4c68.45,5.38,140.07-14.61,205.23-35.3,32.61-10.86,56.27-23.22,87.66-38.92,12.08-7.24,36.11-29,49.39-36.23,6-2.42,11.61,6.5,14,11.33,29,31.4,50.09,72,36.81,117.89-6,20.52-40.21,1.88-59.54,7.92,7.27,51.75,19.38,117.89-21.67,152.91-6.18,5.29-3.74,32.87-10.17,37.48l-7.56,46,9.08,12.74-2,8c53.75,25.87,112.14,43.1,171.54,45.3,35,2.42,70,6,106.27,0,44.68-7.24,88.15-10.87,128-30.19,7.24-3.62,18.11-7.24,24.15-2.41,10.87,8.45,27.77,8.45,39.85,9.66,101.44,8.45,201.66,12.07,303.1,1.21,46.38-4.49,91.82-13.16,135.77-26.84l-3.82-30.07-21-33.65L1952,2532l-26.31-9.51,8.24-42.91,14-114,10.65-87c-77.62,18.66-150.15,41.74-228.76,50.62-3.9,18.17-11.65,34.34-29.17,35-4.84,0-12.08-12.07-14.5-9.66-8.45,8.46-19.32,20.53-32.6,13.29-4.83-4.83-9.66-9.66-12.08-16.91-8.45,8.45-15.69,27.77-29,16.91-7.24-4.83-9.66-13.29-14.49-20.53-6,4.83-10.87,12.07-15.7,16.9-9.66,12.08-21.73-4.83-29-14.49,0-1.21-6-2.41-8.45,0-4.83,6-3.62,14.49-13.28,16.91-8.46,1.21-15.7-1.21-19.33-7.25-5.37-8.59-7.87-17.9-9.1-27.51-42.85-6.92-85.76-.56-129.77-7.51-61.58-10.86-120.75-24.15-181.13-31.39-16.91-24.15-33.08-54.73-43.94-82.5-11.46-32.29-16.27-46.33-18.21-80.17-2.7-3.42-17.22-13.23-16.34-18.47-.88,5.24,1.4,10.46,4.1,13.87-.31-5.39-.48-10.81-.48-16.28,0,5.47.17,10.89.48,16.28,1,1.31,11.23,3.93,12.24,4.6,126.33,49.33,249.56,61.13,381.91,69.59,4.31-15.36,11.9-29.2,25.6-38.55,7.25-4.83,18.12,7.25,25.36,12.08,8.46,4.83,16.91-16.91,30.19-14.49,8.45,1.2,10.87,14.49,16.91,16.9,12.07,3.62,18.11-20.53,31.39-15.7,6,2.42,8.46,16.91,18.12,15.7s14.49-21.73,21.73-15.7c18.12,18.12,25.36,6,41.06-4.83,14.25,15.83,19,35.35,19.62,56,.86-7.22,1.6-14.5,2.12-22.22,78.49-6,154.57-25.36,228.23-55.55,8.45-2.42,21.73,1.2,21.73,3.62a170.28,170.28,0,0,1-.61,30.55c3.39-7.5,7.54-13,13.9-12.44,49.51,2.42,100.23,2.42,147.32-14.49,20.53-8.45,33.81-37.43,55.55-38.64,19.62-2,36.4,8.13,51.89,21.42l14.24-17.33,30.23-43,31.12-40.91,17-62.39Z"/><path class="cls-2-159" d="M1730.81,2324c2.9-13.74,3.85-27.49,4.52-41.39-.35,3.12-.66,6.2-.9,9.23C1733.55,2300.6,1732.82,2312.42,1730.81,2324Z"/><path class="cls-4-159" d="M1681.29,2160.18c-7.24-6-12.07,14.49-21.73,15.7s-12.08-13.28-18.12-15.7c-13.28-4.83-19.32,19.32-31.39,15.7-6-2.41-8.46-15.7-16.91-16.9-13.28-2.42-21.73,19.32-30.19,14.49-7.24-4.83-18.11-16.91-25.36-12.08-13.7,9.35-21.29,23.19-25.6,38.55l1.45.09c-8.42,43.34-3.65,87.87-7.21,132.41l2.38.43h-2.41l0-.43-3.1-.52c1.23,9.61,3.73,18.92,9.1,27.51,3.63,6,10.87,8.46,19.33,7.25,9.66-2.42,8.45-10.87,13.28-16.91,2.41-2.41,8.45-1.21,8.45,0,7.25,9.66,19.32,26.57,29,14.49,4.83-4.83,9.66-12.07,15.7-16.9,4.83,7.24,7.25,15.7,14.49,20.53,13.29,10.86,20.53-8.46,29-16.91,2.42,7.25,7.25,12.08,12.08,16.91,13.28,7.24,24.15-4.83,32.6-13.29,2.42-2.41,9.66,9.66,14.5,9.66,17.52-.7,25.27-16.87,29.17-35l-.19,0c.44-1.76.84-3.51,1.21-5.27,2-11.55,2.74-23.37,3.62-32.16.24-3,.55-6.11.9-9.23.65-13.65,1-27.44,2.72-41.49,1.39-10.39,2.76-20,3.92-29.7-.58-20.69-5.37-40.21-19.62-56C1706.65,2166.22,1699.41,2178.3,1681.29,2160.18Z"/><path class="cls-1-159" d="M1994.05,2137.24c0-2.42-13.28-6-21.73-3.62-73.66,30.19-149.74,49.51-228.23,55.55-1.21,18.11-3.63,33.81-6,51.92-3.62,30.19-1.21,59.17-8.45,88.15,78.68-8.86,151.27-32,229-50.64l.68-5.57,10.8-12.87,7.7-29.12,4.49.16C1988,2199.94,1996.49,2168.86,1994.05,2137.24Z"/><path class="cls-1-159" d="M1578.65,2650.46c-12.08-1.21-29-1.21-39.85-9.66-6-4.83-16.91-1.21-24.15,2.41-39.85,19.32-83.32,22.95-128,30.19-36.23,6-71.25,2.42-106.27,0-59.4-2.2-117.79-19.43-171.54-45.3l-5.65,23-2.11,54.15,29.26,16.74,53.2,14.9,67.36,9,92.63,3.72,84.47-5,82.63-22,15.19-16.22,72.5,12.19,88.55,7.76,104.12,3,89.13-4.7,79.11-13.21,54-19.2,6-53.75-1.74-13.67c-44,13.68-89.39,22.35-135.77,26.84C1780.31,2662.53,1680.09,2658.91,1578.65,2650.46Z"/><path class="cls-4-159" d="M1422.21,2067c-2.55-1.71-52.56-24.44-52.56-24.44l14.21-184.12h151.33c6.65,0,173.72-17.61,173.72-17.61l52.84-11.94,24.78-5.08,25.8,33.5,27.07,64.31s6.48,76.62,6.75,78.89-10.52,46-10.52,46S1695.84,2068.17,1693,2067s-107.4,4.4-109.67,5.61-110.4,0-110.4,0Z"/><path class="cls-5-159" d="M1460.57,1913.61c-1.7,2.84-5,29.55-5,29.55l17.4,20.88s8.68,8.67,25.73,7.53,74.33-4.12,80.92-3.2,111.72-7.93,116.83-8.33,67.63-8.36,67.63-8.36,29.27-7.29,30-9,13.77-16.91,14.34-21-7.39-30.22-7.39-30.22l-29-16.5-68.76,7-97.74,9s-68-.16-72.92,1.35S1485,1892,1485,1892l-15.34,6.82Z"/><path class="cls-1-159" d="M1410.92,2187.51c-.35-1.7,11.29-120.47,11.29-120.47l62.8,5.73,65.06.42-3.83,84.77-21.45,4.85-5.69,24.7-7.11,12.43Z"/><polygon class="cls-1-159" points="1683.9 2067.04 1681.29 2160.18 1694.24 2166.86 1714.44 2154.76 1729.6 2157.96 1740.73 2180.12 1750.14 2187.07 1806.18 2179.19 1808.35 2050.76 1683.9 2067.04"/><path class="cls-6-159" d="M1032.52,2307.85s-23.77-20-39.65-193.3,119.85-321.69,119.85-321.69c-32.62-51.31,29.73-82.56,29.73-82.56L1053.12,1663l-17-5.16L1018.7,1663l-20.94,14.35-7.47,21.07,5.6,24.94,14,15.14-11.48,15.31-41.45,38.46-39.32,49.88-37.78,58.69-33.95,70.83L834,1973.34l-23.85,15.34-13.72,33.75-16.26,66.91-6.28,73.47v48.5l22.82,31,9.6,99.73,14.38,11.62,25.34,76.14,28.22,54.31,32.22,39,44.3,30.05,54.06,9.29,67.58-12.19,20.27-8.3,34.9-29.22,14.83-22.42C1082.13,2515.83,1032.52,2307.85,1032.52,2307.85ZM961,2242.35c-54-6.64-50.4-132.3-47.38-153,8.16-55.84,12.16-103,31.68-103,15.29,0,27.69,17,27.69,37.9S976.15,2244.21,961,2242.35Z"/><path class="cls-6-159" d="M1532.56,2630.71l-6.74-23.85-.22-.15c-14.8,20.35-69,30.94-131.87,24.08-72.09-7.86-128.19-35.69-125.3-62.15,1-8.93,8.54-16.56,20.9-22.46-12.29.49-20.95.8-20.95.8l25.63-235.4s-89.49-83-55-152.22c0,0-132.76-33.31-84.09-275l-17,45.31-22,105.87v86.2l29.72,79.3,18.31,44.15,24.25,42.31s16.92,32.22,15.54,36.49-3,39.09-3,39.09l-19.83,14.41-39.71-6.49,15.49,56.42-4.88,51.81-19.36,27.91-17.33,19.22-5.68,54.68-7.79,33.14,9.23,5.91-8.16,44.65,6.72,36.73,18.24,23.42s60.73,13,69.19,14.32,107,7.73,109.12,10.41,82.71,1.94,86.11,0,80.69-12.76,84.3-13.73,42.77-19.65,42.77-19.65,13.1-31.61,13.45-33.23S1532.56,2630.71,1532.56,2630.71Z"/><polygon class="cls-6-159" points="1663.1 2072.65 1663.1 2162.81 1680.21 2158.08 1683.9 2067.04 1663.1 2072.65"/><path class="cls-6-159" d="M2011.45,2581l-10.73-12.63c-25.89,14.64-82.18,24.79-147.45,24.79-71,0-131.29-12-153.51-28.71l-15.86,8.44-33.6,21.85s-105.47,9-88.69-223.64l-23.78,195.72-5,50.57,6,23.39-9.47,66.16,50.24,8.45c4.89.82,120.93,14,120.93,14h169.1s85.69-17.31,86-17.35,61.36-22,61.36-22,6.18-28.24,6.21-33.13S2011.45,2581,2011.45,2581Z"/><path class="cls-7-159" d="M1542.4,2187.07s4.18,71.21-9.56,146.85"/><path class="cls-7-159" d="M1589.13,2186.73s4.18,71.2-9.56,146.85"/><path class="cls-7-159" d="M1774,1897.82s-101.91,11-184.24,15.16"/><path class="cls-7-159" d="M1636.43,2186.73s4.18,71.2-9.56,146.85"/><path class="cls-7-159" d="M1685,2186.73s4.18,71.2-9.56,146.85"/><path class="cls-7-159" d="M1724,2187.07s4.18,71.21-9.56,146.85"/><polygon class="cls-6-159" points="1426.36 1918.3 1416.57 1862.65 1383.86 1858.48 1369.37 2042.89 1407.54 2060.89 1393.1 2187.14 1410.92 2190.73 1422.21 2077.84 1422.21 2067.04 1431.21 2005.23 1426.36 1918.3"/><path class="cls-6-159" d="M1327.1,2039.23l36.71,2.93,20-183.68-38.41-6.41C1301.69,1969,1327.1,2039.23,1327.1,2039.23Z"/><path class="cls-6-159" d="M1959.23,1938.54l21.57,78.07,1.42,61.22-5.09,50.3,17.35,4.69-5.42,43.89-7.6,49.17,54.51,9.83,76.22-4.68,86.65-29.2,51.1-47.07S2035.75,2264.2,1997.69,2057C1980.8,1965,1959.23,1938.54,1959.23,1938.54Z"/><path class="cls-6-159" d="M2166,1646.7s-94.56,14.42-79.54,159.94l-22.51-19.45-27.12-6.84-6-35.38,10.06-42,27.71-28.51,42-18.8Z"/><path class="cls-6-159" d="M2068.52,1793.06s-66.39-29.13-70.73,36.92l12.76,36.61,23,44.83.23,37.1-11.5,30.86s36.9-7.88,17.79-124C2040.1,1855.42,2017.6,1778,2068.52,1793.06Z"/><path class="cls-8-159" d="M1503.51,2333.92c-91.94-5.08-183.29-15.27-304.85-41.48"/><path class="cls-8-159" d="M1929.39,2516.63l29.84-243.6s-73,39.36-226.57,56"/><path class="cls-8-159" d="M1532.84,2617.41s83.2-.88,97,0c0,0,68.28-108.17,299.52-100.78"/><path class="cls-8-159" d="M1115.06,2526.34l-13.32,81s-7,20,24.64,2.73c36.87-20.12,71.63-41.07,112.08-53.32,78.88-23.9,179.88-21.14,251,25.72a155.23,155.23,0,0,1,39.9,37.61"/><path class="cls-8-159" d="M1560.06,2384.7s-30.73,177.3-27.22,227.39"/><path class="cls-8-159" d="M1529.33,2620.07s17.56,26-3.51,86.3-349.45,52.61-410.91,7.1c0,0-28.68-13.6-4.09-93.4"/><path class="cls-8-159" d="M1109.38,2630.71s173.08,85.71,416.44,8.28"/><path class="cls-8-159" d="M1890.19,2516.63s100.38,2.37,126.72,87.19c0,0,14,54.56,0,86.24,0,0-105.36,72.82-484.07,20.33"/><path class="cls-8-159" d="M1539.28,2639.58s286.8,49.88,480-19.51"/><path class="cls-8-159" d="M1744.61,2187.65c33.5-3.35,136.7-16.35,241-57,0,0,17.62-15.91,3.41,46s-14.51,89.27-29.83,96.32"/><path class="cls-8-159" d="M1130.08,2130.35s144,59.05,380.55,67.14"/><path class="cls-8-159" d="M798,2249.18a813,813,0,0,0,8.34,92.9S947.26,2376,1157,2228.91c0,0-89.76-173.24,1-344.57"/><path class="cls-8-159" d="M1005.82,1745s-98.65,75.21-160.13,227.13"/><path class="cls-8-159" d="M967.94,2108.1c0,81.34,36.32,169.37-93.82,159-118.91-9.45-107.7-75.83-97.17-156.49,20.69-158.54,49.22-135.54,97.17-138.09C994.31,1966.17,967.94,2026.75,967.94,2108.1Z"/><line class="cls-8-159" x1="1422.21" y1="2069.31" x2="1410.92" y2="2190.73"/><line class="cls-8-159" x1="1550.07" y1="2077.83" x2="1542.4" y2="2157.96"/><line class="cls-8-159" x1="1683.9" y1="2077.83" x2="1680.49" y2="2157.96"/><line class="cls-8-159" x1="1808.35" y1="2055.67" x2="1804.09" y2="2175.01"/><path class="cls-8-159" d="M1699.53,2174.67c6.46-18.45,14-20.5,22.18-19.8,14.54,1.25,25.6,10.75,17.62,103.41s-21.21,108.46-35.75,107.21c-7.14-.62-13.27-5.23-16.71-20.72"/><path class="cls-8-159" d="M1654.39,2190.61c7.18-30.28,16-33.38,25.82-32.53,14.54,1.25,25.59,10.74,17.62,103.41s-21.22,108.45-35.76,107.2c-8.59-.74-15.71-7.26-18.46-31.6"/><path class="cls-8-159" d="M1610.56,2186.21c7-26.18,15.43-28.93,24.71-28.13,14.54,1.25,25.6,10.74,17.62,103.41s-21.21,108.45-35.75,107.2c-9-.77-16.38-7.89-18.82-35.13"/><path class="cls-8-159" d="M1563.17,2186.21c7-26.18,15.44-28.93,24.71-28.13,14.54,1.25,25.6,10.74,17.62,103.41s-21.21,108.45-35.75,107.2c-9-.77-16.31-7.82-18.79-34.77"/><path class="cls-8-159" d="M1558.94,2261.49c-8,92.66-21.21,108.45-35.75,107.2s-24.88-19.08-16.9-111.74,20.49-100.13,35-98.87S1566.92,2168.82,1558.94,2261.49Z"/><path class="cls-8-159" d="M1870.58,1800s133.82,109.11,106.55,328.18"/><path class="cls-8-159" d="M1511.56,1862.65q-54.19,0-112.36-4.94c-163-13.83-290.33-52.81-389.36-119.17a44.08,44.08,0,0,1,49.07-73.23c86.3,57.83,200,92,347.75,104.56,142.83,12.12,263.94.49,370.23-35.57,32.4-11,74.13-26.73,109.55-51.17a44.08,44.08,0,1,1,50.06,72.56c-44.38,30.62-93.48,49.27-131.29,62.09C1716.71,1847.8,1619.89,1862.65,1511.56,1862.65Z"/><path class="cls-8-159" d="M1951.05,1738.79s36,24.91,50.48,63.35"/><path class="cls-8-159" d="M2343.12,1933.17s44,42.38-84.7,195"/><path class="cls-8-159" d="M1997.54,2152.07a38.77,38.77,0,0,1,8.56,1h0c1.24.27,124.44,27,179.75-40.82a38.64,38.64,0,1,1,59.9,48.84c-50.14,61.48-127,74.64-183.65,74.64-40.3,0-70.34-6.66-73.22-7.32a39.5,39.5,0,0,1-7.42-2.51"/><path class="cls-8-159" d="M810.19,2032.66s33.24,15.34,89.5-.85"/><path class="cls-8-159" d="M806.35,2083.8s22.89,20.34,96.48,5.91"/><path class="cls-8-159" d="M798,2134.09s20.7,31.95,108.5,19"/><path class="cls-8-159" d="M798,2190.73s22.41,28.6,119.58,18.37"/><path class="cls-8-159" d="M1786.52,1823.85c88.13,90.39,52.52,220.74,52.52,220.74-250.61,39.21-394,26.43-416.83,24.72-3.92-.29-11.29-6.82-11.29-6.82l-41.55-19.6,11.94-186.82"/><path class="cls-8-159" d="M1422.21,2057.42s24.51-51.94-5.64-194.77"/><path class="cls-8-159" d="M1525.39,1968.37c-20.45,0-32.14-.5-33.58-.57a38,38,0,0,1,3.49-76h0c1.06,0,108.81,4.59,267.83-16.52a38,38,0,0,1,10,75.42C1658.62,1965.89,1570.61,1968.37,1525.39,1968.37Z"/><path class="cls-8-159" d="M1472.92,2020.72s63.68,7.68,124.54,0"/><ellipse class="cls-8-159" cx="1655.67" cy="2016.61" rx="24.82" ry="18.9"/><ellipse class="cls-8-159" cx="1725.32" cy="2012.9" rx="24.82" ry="18.9"/><ellipse class="cls-8-159" cx="1794.01" cy="2005.23" rx="24.82" ry="18.9"/><path class="cls-9-159" d="M1124.34,2330.45s65.27,121.25,0,185.71c-26,25.66-63.7,40.75-100.54,44.76-123.7,13.48-179.64-105.93-201-215.82"/><path class="cls-9-159" d="M1148.29,2210.52a180.47,180.47,0,0,0,8.66,18.39c18.31,33.72,51.4,65.64,48.8,105.78-2.14,33.08-31.85,46-64.61,36.29"/><path class="cls-9-159" d="M2033.67,1783.89c-25.13-122.2,120.63-133.23,120.63-133.23,75.21-6.68,154.46,13.44,182.53,84.12,25.18,63.39,21,140.62-3.88,213.19,0,0-135.32,76.34-295.42-2.73"/><path class="cls-9-159" d="M2078,1825.24c-8.17-25.5-34.33-44.87-63.48-32.33-21.57,9.27-24.07,30.78-17,49.43a121.09,121.09,0,0,0,13,24.25c40.21,59.72,25.13,80.86,13.07,95.56"/><rect x="0" y="0" width="3000" height="3000" style="fill:#fff;fill-opacity:0;"></rect> <defs>  <g id="pupil-263" overflow="visible">   <path fill="#000" stroke="none" d="M99.4 71.5Q99.5 57.55 95.6 43.95 92.25 51.55 86.75 56 81.05 60.6 74.55 60.6 64.25 60.6 57 50.15 49.7 39.65 49.7 24.85 49.45 11.9 56.25 .65 53.15 0 49.7 0 29.1 0 14.55 20.95 0 41.9 0 71.5 0 101.1 14.55 122.05 29.1 143 49.7 143 70.3 143 84.85 122.05 99.4 101.1 99.4 71.5Z"/>  </g>  <g id="Shadow-263" overflow="visible">   <path fill="#232323" stroke="none" d="M131.15 10.1Q145.868 3.814 161.2 .4 132.439 2.352 105.75 13.75 74.7 27.05 50.7 51.3 26.75 75.55 13.6 106.95 0 139.5 0 175.15 0 210.8 13.6 243.35 26.75 274.8 50.7 299.05 74.7 323.3 105.75 336.6 137.95 350.35 173.2 350.35 192.333 350.35 210.55 346.3 204.621 346.7 198.6 346.7 163.35 346.7 131.15 332.95 100.1 319.65 76.1 295.4 52.15 271.15 39 239.7 25.4 207.15 25.4 171.5 25.4 135.85 39 103.3 52.15 71.9 76.1 47.65 100.1 23.4 131.15 10.1Z"/>  </g>  <g id="lashes-left" overflow="visible">   <path fill="#000" stroke="none" d="M16.2 58.3Q16.65 78.65 12.8 98 9.05 117.15 1 134.85 .4 136.1 .2 137.25 -.55 141.35 1.85 144.8 4.2 148.25 8.3 149 12.45 149.75 15.85 147.4 19.3 145 20.05 140.9 23.75 120.25 22.8 99.4 21.8 78.45 16.2 58.3Z"/>   <path fill="#000" stroke="none" d="M69.8 10.4Q70.5 36.3 64.85 61.5 59.55 85.85 48 108.5 46.45 112.35 48.1 116.15 49.7 119.95 53.55 121.5 57.4 123.05 61.2 121.4 65 119.8 66.55 115.95 73.95 90.15 74.8 63.4 75.6 36.55 69.8 10.4Z"/>   <path fill="#000" stroke="none" d="M107.9 93.8Q107.35 94.8 107.05 95.75 105.9 99.75 107.85 103.4 109.85 107.05 113.8 108.25 117.8 109.45 121.5 107.5 125.15 105.5 126.35 101.5 133.55 77.05 132.95 51.55 132.35 26.05 124 2 127.15 26.1 122.95 50 119 72.95 107.9 93.85L107.9 93.8Z"/>   <path fill="#000" stroke="none" d="M185.55 57Q181.25 78.45 170.75 97.85 167.7 99.75 166.5 103.8 164.85 109.6 168.85 113.9 171.15 116.35 174.45 117.05 177.75 117.7 180.8 116.3 183.55 115 185.25 112.45 186.95 109.95 187.15 106.9L186.55 108.35Q187.5 105.6 187.95 104.2 188.8 101.75 189.25 100.05 196 76.35 195.5 51.75 195 27.1 187.25 3.75 190.95 30.4 185.55 57Z"/>   <path fill="#000" stroke="none" d="M233.5 61.4Q234.2 77.85 228.7 93.4 223.05 109.35 212.25 120.45 211.1 121.6 210.45 122.9 208.5 126.65 209.8 130.65 211.05 134.65 214.8 136.6 218.55 138.5 222.55 137.25 226.55 136 228.45 132.25 237.25 115.25 238.25 96.05 239.3 78.4 233.5 61.4Z"/>  </g> </defs> <g id="Scene-1-263" overflow="visible">  <g display="none">   <use xlink:href="#lashes-left" transform="translate(1289.2 990.6)"/>   <use xlink:href="#lashes-left" transform="matrix(.739 0 0 .902 1944.5 1018.2)"/>   <animate attributeName="display" repeatCount="indefinite" dur="4.333s" keyTimes="0;.5;1" values="none;inline;inline"/>  </g>  <g display="none">   <use xlink:href="#lashes-left" transform="translate(1289.2 990.6)"/>   <animate attributeName="display" repeatCount="indefinite" dur="4.333s" keyTimes="0;.277;.5;1" values="none;inline;none;none"/>  </g>  <g>   <use xlink:href="#lashes-left" transform="translate(1289.2 990.6)"/>   <use xlink:href="#lashes-left" transform="matrix(.739 0 0 .902 1944.5 1018.2)"/>   <animate attributeName="display" repeatCount="indefinite" dur="4.333s" keyTimes="0;.277;1" values="inline;none;none"/>  </g>  <use xlink:href="#Shadow-263" transform="matrix(.942 0 0 .994 1206.7 1100.15)" opacity=".25"/>  <use xlink:href="#Shadow-263" transform="matrix(.714 0 0 .851 1894.75 1113.15)" opacity=".25"/>  <g display="none" id="Layer5-263_0_FILL">   <path fill="#FFF" stroke="none" d="M1924.85 1200.65Q1918.25 1226.4 1918.25 1253.05 1918.25 1284 1925.9 1311.5 1933.7 1339.7 1948.65 1360.75 1964.35 1382.85 1986.35 1394.7 2009.8 1407.4 2038.75 1407.4 2063.45 1407.4 2085.65 1396 2107.45 1384.8 2124 1364.1 2140.75 1343.15 2149.8 1315.3 2159.3 1286.25 2159.3 1253.05 2159.3 1224.6 2149.85 1196.7 2140.6 1169.4 2124 1147.5 2107.1 1125.2 2085.7 1112.75 2063 1099.55 2038.75 1099.55 2007.65 1099.55 1983.2 1114.05 1961.25 1127.1 1945.85 1151.05 1932.05 1172.6 1924.85 1200.65M1408.9 1092.35Q1373.65 1092.35 1341.45 1106.1 1310.35 1119.4 1286.4 1143.65 1262.4 1167.9 1249.25 1199.35 1235.65 1231.9 1235.65 1267.55 1235.65 1303.2 1249.25 1335.75 1262.4 1367.2 1286.4 1391.45 1310.35 1415.7 1341.45 1429 1373.65 1442.75 1408.9 1442.75 1444.15 1442.75 1476.3 1429 1507.4 1415.7 1531.35 1391.45 1555.35 1367.2 1568.5 1335.75 1582.1 1303.2 1582.1 1267.55 1582.1 1231.9 1568.5 1199.35 1555.35 1167.9 1531.35 1143.65 1507.4 1119.4 1476.3 1106.1 1444.15 1092.35 1408.9 1092.35Z"/>   <animate attributeName="display" repeatCount="indefinite" dur="4.333s" keyTimes="0;.5;1" values="none;inline;inline"/>  </g>  <g display="none" id="Layer4-263_0_FILL">   <path fill="#FFF" stroke="none" d="M1408.9 1092.35Q1373.65 1092.35 1341.45 1106.1 1310.35 1119.4 1286.4 1143.65 1262.4 1167.9 1249.25 1199.35 1235.65 1231.9 1235.65 1267.55 1235.65 1303.2 1249.25 1335.75 1262.4 1367.2 1286.4 1391.45 1310.35 1415.7 1341.45 1429 1373.65 1442.75 1408.9 1442.75 1444.15 1442.75 1476.3 1429 1507.4 1415.7 1531.35 1391.45 1555.35 1367.2 1568.5 1335.75 1582.1 1303.2 1582.1 1267.55 1582.1 1231.9 1568.5 1199.35 1555.35 1167.9 1531.35 1143.65 1507.4 1119.4 1476.3 1106.1 1444.15 1092.35 1408.9 1092.35Z"/>   <animate attributeName="display" repeatCount="indefinite" dur="4.333s" keyTimes="0;.277;.5;1" values="none;inline;none;none"/>  </g>  <g id="Layer3-263_0_FILL">   <path fill="#FFF" stroke="none" d="M1924.85 1200.65Q1918.25 1226.4 1918.25 1253.05 1918.25 1284 1925.9 1311.5 1933.7 1339.7 1948.65 1360.75 1964.35 1382.85 1986.35 1394.7 2009.8 1407.4 2038.75 1407.4 2063.45 1407.4 2085.65 1396 2107.45 1384.8 2124 1364.1 2140.75 1343.15 2149.8 1315.3 2159.3 1286.25 2159.3 1253.05 2159.3 1224.6 2149.85 1196.7 2140.6 1169.4 2124 1147.5 2107.1 1125.2 2085.7 1112.75 2063 1099.55 2038.75 1099.55 2007.65 1099.55 1983.2 1114.05 1961.25 1127.1 1945.85 1151.05 1932.05 1172.6 1924.85 1200.65M1408.9 1092.35Q1373.65 1092.35 1341.45 1106.1 1310.35 1119.4 1286.4 1143.65 1262.4 1167.9 1249.25 1199.35 1235.65 1231.9 1235.65 1267.55 1235.65 1303.2 1249.25 1335.75 1262.4 1367.2 1286.4 1391.45 1310.35 1415.7 1341.45 1429 1373.65 1442.75 1408.9 1442.75 1444.15 1442.75 1476.3 1429 1507.4 1415.7 1531.35 1391.45 1555.35 1367.2 1568.5 1335.75 1582.1 1303.2 1582.1 1267.55 1582.1 1231.9 1568.5 1199.35 1555.35 1167.9 1531.35 1143.65 1507.4 1119.4 1476.3 1106.1 1444.15 1092.35 1408.9 1092.35Z"/>   <animate attributeName="display" repeatCount="indefinite" dur="4.333s" keyTimes="0;.277;1" values="inline;none;none"/>  </g>  <path id="Layer2-263_0_1_STROKES" stroke="#000" stroke-width="13" stroke-linejoin="miter" stroke-linecap="round" stroke-miterlimit="10" fill="none" d="M1408.95 1092.3Q1444.2 1092.3 1476.35 1106.05 1507.45 1119.35 1531.4 1143.6 1555.4 1167.85 1568.55 1199.3 1582.15 1231.85 1582.15 1267.5 1582.15 1303.15 1568.55 1335.7 1555.4 1367.15 1531.4 1391.4 1507.45 1415.65 1476.35 1428.95 1444.2 1442.7 1408.95 1442.7 1373.7 1442.7 1341.5 1428.95 1310.4 1415.65 1286.45 1391.4 1262.45 1367.15 1249.3 1335.7 1235.7 1303.15 1235.7 1267.5 1235.7 1231.85 1249.3 1199.3 1262.45 1167.85 1286.45 1143.6 1310.4 1119.35 1341.5 1106.05 1373.7 1092.3 1408.95 1092.3ZM2159.35 1253Q2159.35 1286.2 2149.85 1315.25 2140.8 1343.1 2124.05 1364.05 2107.5 1384.75 2085.7 1395.95 2063.5 1407.35 2038.8 1407.35 2009.85 1407.35 1986.4 1394.65 1964.4 1382.8 1948.7 1360.7 1933.75 1339.65 1925.95 1311.45 1918.3 1283.95 1918.3 1253 1918.3 1226.35 1924.9 1200.6 1932.1 1172.55 1945.9 1151 1961.3 1127.05 1983.25 1114 2007.7 1099.5 2038.8 1099.5 2063.05 1099.5 2085.75 1112.7 2107.15 1125.15 2124.05 1147.45 2140.65 1169.35 2149.9 1196.65 2159.35 1224.55 2159.35 1253Z"/>  <use xlink:href="#pupil-263" transform="matrix(.799 0 0 1 1466.8 1200.1)">   <animateTransform attributeName="transform" additive="replace" type="translate" repeatCount="indefinite" dur="4.333s" keyTimes="0;.07699;.223;.56899;.708;1" values="1506.529,1271.65;1506.529,1271.65;1447.584,1271.6;1447.584,1271.6;1506.529,1271.65;1506.529,1271.65"/>   <animateTransform attributeName="transform" additive="sum" type="scale" repeatCount="indefinite" dur="4.333s" keyTimes="0;.07699;.223;.56899;.708;1" values=".799,1;.799,1;.98,1;.98,1;.799,1;.799,1"/>   <animateTransform attributeName="transform" additive="sum" type="translate" repeatCount="indefinite" dur="4.333s" keyTimes="0;.07699;.223;.56899;.708;1" values="-49.8,-71.55;-49.8,-71.55;-49.8,-71.5;-49.8,-71.5;-49.8,-71.55;-49.8,-71.55"/>  </use>  <g display="none">   <use xlink:href="#pupil-263" transform="matrix(.759 0 0 .799 2022.1 1194.25)">    <animateTransform attributeName="transform" additive="replace" type="translate" repeatCount="indefinite" dur="4.333s" keyTimes="0;.56899;.708;1" values="2059.949,1251.353;2059.949,1251.353;2098.857,1251.353;2098.857,1251.353"/>    <animateTransform attributeName="transform" additive="sum" type="scale" repeatCount="indefinite" dur="4.333s" keyTimes="0;.56899;.708;1" values=".758,.799;.758,.799;.638,.799;.638,.799"/>    <animateTransform attributeName="transform" additive="sum" type="translate" repeatCount="indefinite" dur="4.333s" keyTimes="0;.56899;.708;1" values="-49.9,-71.55;-49.9,-71.55;-49.85,-71.55;-49.85,-71.55"/>   </use>   <animate attributeName="display" repeatCount="indefinite" dur="4.333s" keyTimes="0;.5;1" values="none;inline;inline"/>  </g>  <g>   <use xlink:href="#pupil-263" transform="matrix(.638 0 0 .799 2067.05 1194.25)">    <animateTransform attributeName="transform" additive="replace" type="translate" repeatCount="indefinite" dur="4.333s" keyTimes="0;.07699;.223;1" values="2098.857,1251.353;2098.857,1251.353;2059.949,1251.353;2059.949,1251.353"/>    <animateTransform attributeName="transform" additive="sum" type="scale" repeatCount="indefinite" dur="4.333s" keyTimes="0;.07699;.223;1" values=".638,.799;.638,.799;.758,.799;.758,.799"/>    <animateTransform attributeName="transform" additive="sum" type="translate" repeatCount="indefinite" dur="4.333s" keyTimes="0;.07699;.223;1" values="-49.85,-71.55;-49.85,-71.55;-49.9,-71.55;-49.9,-71.55"/>   </use>   <animate attributeName="display" repeatCount="indefinite" dur="4.333s" keyTimes="0;.277;1" values="inline;none;none"/>  </g>  <g display="none">   <path id="Layer1-263_0_1_STROKES" stroke="#000" stroke-width="13" stroke-linejoin="miter" stroke-linecap="butt" stroke-miterlimit="10" fill="none" d="M1918.5 1254.65L2159.3 1254.65"/>   <animate attributeName="display" repeatCount="indefinite" dur="4.333s" keyTimes="0;.277;.5;1" values="none;inline;none;none"/>  </g>  <g id="eye-shadow-263" transform="translate(1233.5 1095.75)" opacity=".15">   <path fill="#000" stroke="none" d="M212.95 6.05Q221.416 6.05 229.55 6.8 202.380 -2.7 173.05 -2.7 137.8 -2.7 105.6 11.05 74.5 24.35 50.55 48.6 26.55 72.85 13.4 104.3 -.2 136.85 -.2 172.5 -.2 208.15 13.4 240.7 26.55 272.15 50.55 296.4 74.5 320.65 105.6 333.95 137.8 347.7 173.05 347.7 208.3 347.7 240.45 333.95 263.030 324.293 281.85 308.85 250.540 324.05 212.95 324.05 147.1 324.05 100.5 277.45 53.95 230.9 53.95 165.05 53.95 99.2 100.5 52.6 147.1 6.05 212.95 6.05Z"/>  </g>  <g id="eye-shadow-right-263" transform="translate(1917.9 1099.3)" opacity=".15">   <path fill="#000" stroke="none" d="M144.05 3.2Q142.65 2.85 141.3 2.5 131.05 0 120.5 0 89.4 0 64.95 14.5 43 27.55 27.6 51.5 13.8 73.05 6.6 101.1 0 126.85 0 153.5 0 184.45 7.65 211.95 15.45 240.15 30.4 261.2 46.1 283.3 68.1 295.15 91.55 307.85 120.5 307.85 134.8 307.85 148.3 304.05 149.05 303.8 149.8 303.6 107.1 299.2 75.9 259.8 40.85 215.6 40.85 153 40.85 90.4 75.9 46.15 105 9.5 144.05 3.2Z"/>  </g> </g><defs><style>.cls-1-451{fill:#f0a58e;}.cls-1-451,.cls-2-451{stroke:#000;stroke-linecap:round;stroke-miterlimit:10;stroke-width:13px;}.cls-2-451{fill:#4d4d4d;}.cls-3-451{opacity:0.23;}</style></defs><path class="cls-1-451" d="M1658.74,1262.81c38.13-8.43,127.49-23.46,209.11-2a11.91,11.91,0,0,1,8.14,15.5c-8.25,23.38-37.38,76.83-88.91,125a29.19,29.19,0,0,1-36.55,2.68c-26-18-72.15-56.42-102.73-118.62A16,16,0,0,1,1658.74,1262.81Z"/><path d="M1853.46,1282.8l-50.23,59.48a6.52,6.52,0,0,1-10-8.41,6.22,6.22,0,0,1,.77-.77l59.43-50.3Z"/><path d="M1685.23,1284.05a225.55,225.55,0,0,0,27.65,29.55c9.83,8.71,20.73,16.58,32.55,22,8.24,4.36,1.6,16.14-6.41,11.32-23.2-15.82-40.18-38.74-53.79-62.86Z"/><path class="cls-2-451" d="M1658.74,1262.81c38.13-8.43,127.49-23.46,209.11-2a11.91,11.91,0,0,1,8.14,15.5c-8.25,23.38-37.38,76.83-88.91,125a29.19,29.19,0,0,1-36.55,2.68c-26-18-72.15-56.42-102.73-118.62A16,16,0,0,1,1658.74,1262.81Z"/><path d="M1853.46,1282.8,1820.33,1344a10.62,10.62,0,1,1-16.75-12.66l49.88-48.56Z"/><path d="M1685.23,1284.05a223,223,0,0,0,29.09,28.16c10,8,21.19,15.25,33,19.83a10.59,10.59,0,1,1-7.81,19.69,11.11,11.11,0,0,1-2.37-1.32,129,129,0,0,1-16.66-14.61c-14.44-15.36-26-33-35.2-51.75Z"/><path class="cls-3-451" d="M1729,1361l-7-7c-3-10-16-12-15-23h-4c-9-17-23-31-28-48-3,2-1-4-4-2-1.15-8.65,2.35-16.3,7.64-22.19-7.61,1.38-14.31,2.76-19.9,4a16,16,0,0,0-10.94,22.61c30.58,62.2,76.73,100.61,102.73,118.62a29.19,29.19,0,0,0,36.55-2.68q6.64-6.21,12.78-12.53C1773.62,1389.21,1747.37,1384.14,1729,1361Z"/> <defs>  <g id="outline-431" overflow="visible">   <path id="Layer3-431_0_1_STROKES" stroke="#000" stroke-width="13" stroke-linejoin="miter" stroke-linecap="round" stroke-miterlimit="10" fill="none" d="M1.2 38.45Q-1.05 33.35 1.05 28.2 3.05 23.05 8.2 20.85 12.7 18.8 17.7 20.45 58.5 33.95 101.55 40.85 163.25 50.7 219.4 45 268.5 40.15 309.45 26.45 340.2 16.2 364.05 1.7 370.6 -2.15 376.55 2.6 382.45 7.45 379.9 14.6 364.2 59.65 339.7 93.95 311.75 132.85 274.95 153.95 231.65 178.85 177.95 176.45 125.05 174.1 82.7 146.5 55.5 129 33.95 98.75 16.4 74.1 1.2 38.45Z"/>  </g>  <g id="teeth" overflow="visible">   <path fill="#FFF" stroke="none" d="M1.05 28.2Q-1.05 33.35 1.2 38.45 15.15 71.15 31.1 94.65L40.55 96.75Q53.15 99.55 66.55 101.95 70.05 102.55 73.55 103.15L73.6 35.65Q45.15 29.5 17.7 20.45 12.7 18.8 8.2 20.85 3.05 23.05 1.05 28.2M379.9 14.6Q382.45 7.45 376.55 2.6 370.6 -2.15 364.05 1.7 340.2 16.2 309.45 26.45 268.5 40.15 219.4 45 219.35 45 219.3 45L219.3 107.6 219.3 45Q183.55 48.65 145.55 45.95L143.65 111Q148.45 111.25 153.2 111.45 160.8 111.8 168.2 111.95 218.65 112.85 260.3 104.6 305.2 95.7 337.75 76.4L337.7 18.2 337.75 76.4Q348.4 70.05 357.7 62.6 348.4 70.05 337.75 76.4 305.2 95.7 260.3 104.6 218.65 112.85 168.2 111.95L166.05 170.95 168.2 111.95Q160.8 111.8 153.2 111.45 148.45 111.25 143.65 111 109.35 109 73.55 103.15 70.05 102.55 66.55 101.95 53.15 99.55 40.55 96.75L31.1 94.65Q32.5 96.75 33.95 98.75 55.5 129 82.7 146.5 97.1 155.9 112.7 162.35L115.05 115.1 112.7 162.35Q143.05 174.9 177.95 176.45 231.65 178.85 274.95 153.95 311.75 132.85 339.7 93.95 364.2 59.65 379.9 14.6M281.55 35.7L281.55 97.75 281.55 35.7M219.3 113.5L219.3 169.5 219.3 113.5M270.95 104.85L270.4 152.35 270.95 104.85M314.15 92.75L312.95 124.7 314.15 92.75M76.7 107.5L74.45 138.7 76.7 107.5Z"/>   <path fill="#EDD600" stroke="none" d="M145.55 45.95Q123.9 44.4 101.55 40.85 87.45 38.6 73.6 35.65L73.55 103.15Q109.35 109 143.65 111L145.55 45.95M130.15 60.2L130.15 94.75 97.45 91.7 130.15 94.75 130.15 60.2Z"/>   <path id="Layer4-431_0_1_STROKES" stroke="#000" stroke-width="11" stroke-linejoin="miter" stroke-linecap="round" stroke-miterlimit="10" fill="none" d="M219.3 45L219.3 107.6M337.7 18.2L337.75 76.4Q348.4 70.05 357.7 62.6M281.55 35.7L281.55 97.75M219.3 113.5L219.3 169.5M337.75 76.4Q305.2 95.7 260.3 104.6 218.65 112.85 168.2 111.95L166.05 170.95M270.95 104.85L270.4 152.35M314.15 92.75L312.95 124.7M73.6 35.65L73.55 103.15Q109.35 109 143.65 111L145.55 45.95M31.1 94.65L40.55 96.75Q53.15 99.55 66.55 101.95 70.05 102.55 73.55 103.15M115.05 115.1L112.7 162.35M76.7 107.5L74.45 138.7M143.65 111Q148.45 111.25 153.2 111.45 160.8 111.8 168.2 111.95"/>   <path id="Layer4-431_0_2_STROKES" stroke="#FFF" stroke-width="13" stroke-linejoin="miter" stroke-linecap="round" stroke-miterlimit="10" fill="none" d="M130.15 60.2L130.15 94.75 97.45 91.7"/>  </g> </defs> <g id="Scene-1-431" overflow="visible">  <g display="none">   <use xlink:href="#teeth" transform="translate(1544.9 1459.5)"/>   <animate attributeName="display" repeatCount="indefinite" dur="2.667s" keyTimes="0;.325;1" values="none;inline;inline"/>  </g>  <g>   <use xlink:href="#teeth" transform="translate(1544.9 1459.5)"/>   <animate attributeName="display" repeatCount="indefinite" dur="2.667s" keyTimes="0;.238;1" values="inline;none;none"/>  </g>  <g display="none">   <use xlink:href="#outline-431" transform="translate(1544.9 1459.5)"/>   <animate attributeName="display" repeatCount="indefinite" dur="2.667s" keyTimes="0;.325;1" values="none;inline;inline"/>  </g>  <g>   <use xlink:href="#outline-431" transform="translate(1544.9 1459.5)"/>   <animate attributeName="display" repeatCount="indefinite" dur="2.667s" keyTimes="0;.238;1" values="inline;none;none"/>  </g>  <g display="none">   <path id="Layer1-431_0_1_STROKES" stroke="#000" stroke-width="13" stroke-linejoin="miter" stroke-linecap="round" stroke-miterlimit="10" fill="none" d="M1546.85 1474.9Q1516.182 1486.816 1523.85 1517.9M1549.85 1504.9Q1755.311 1618.811 1914.85 1482.9"/>   <animate attributeName="display" repeatCount="indefinite" dur="2.667s" keyTimes="0;.238;.325;1" values="none;inline;none;none"/>  </g>  <g display="none">   <g id="shine-431" transform="matrix(1.597 -.028 .028 1.597 1568.4 1480.15)">    <animateTransform attributeName="transform" additive="replace" type="translate" repeatCount="indefinite" dur="2.667s" keyTimes="0;.387;.625;.837;1" values="1633.978,1543.417;1633.978,1543.417;1634.059,1543.368;1633.978,1543.417;1633.978,1543.417"/>    <animateTransform attributeName="transform" additive="sum" type="rotate" repeatCount="indefinite" dur="2.667s" keyTimes="0;.387;.625;.837;1" values="-1,0,0;-1,0,0;359.002,0,0;1079.001,0,0;1079.001,0,0"/>    <animateTransform attributeName="transform" additive="sum" type="scale" repeatCount="indefinite" dur="2.667s" keyTimes="0;.387;.625;.837;1" values="1.597,1.597;1.597,1.597;1.916,1.916;1.597,1.597;1.597,1.597"/>    <animateTransform attributeName="transform" additive="sum" type="translate" repeatCount="indefinite" dur="2.667s" keyTimes="0;.387;.625;.837;1" values="-40.4,-40.35;-40.4,-40.35;-40.45,-40.35;-40.4,-40.35;-40.4,-40.35"/>    <animate attributeName="opacity" repeatCount="indefinite" dur="2.667s" keyTimes="0;.387;.625;.837;1" values="0;0;1;0;0"/>    <path fill="#FFF" stroke="none" d="M48.7 40.25L80.55 0 40.3 30.75 0 0 31.05 40.25 0 80.55 40.3 51.65 80.55 80.55 48.7 40.25Z"/>   </g>   <animate attributeName="display" repeatCount="indefinite" dur="2.667s" keyTimes="0;.388;1" values="none;inline;inline"/>  </g> </g><defs><style>.cls-1-275{fill:#494949;}.cls-2-275{opacity:0.24;}.cls-3-275{fill:none;stroke:#000;stroke-linecap:round;stroke-miterlimit:10;stroke-width:13px;}</style></defs><g id="Layer_365" data-name="Layer 365"><path class="cls-1-275" d="M1997.17,1655.49c-5.24-41.83,1.4-77.06,1.85-116.59.49-42.75,8.79-93.29-17.79-129-31-41.64-89.24-58.13-138.76-61.41a325.6,325.6,0,0,0-66.55,2.72c-1.86.26-3.69.61-5.5,1-37.23-18.35-94.33-13.49-142,.53-27.49,8.08-51.82,19.22-67.34,30.7-35.12,26-49.35,69.35-55.1,111.12-5.84,42.44,13.45,93.56,13.93,136.16.35,32.09,6.1,15.08,6.38,47.14.24,27.6-22,99.16-5.24,122.66,13.11,18.41,37.06,30.38,60,29.58a55.75,55.75,0,0,0,21.26-4.89,69.29,69.29,0,0,0,8.69-4.76c27.76-17.89,34.91-52,35.41-84.08.73-46.92-2.39-95-3-141.49l-.69-52.62c-.27-21-2.14-40,21.78-47,33-9.63,68.2,7.85,100.73-4.13a61.11,61.11,0,0,0,9.66-4.59c.44-.25.88-.49,1.31-.76l.15,0c26,3.39,53.58-6.68,79.92-2.07,7,1.21,14.28,3.45,18.64,9,8.53,10.87,4.87,30.08,5,43.1.33,31.18-.68,62.36-1.93,93.51-1.07,26.74-3.82,53.78-.92,80.47,4.14,38.17,21,75.85,64.5,76.91a71.46,71.46,0,0,0,55.11-24.42c8.2-9.53,11.23-21.41,11.52-34.25C2008.79,1704.19,1999.86,1677,1997.17,1655.49Z"/><path class="cls-2-275" d="M1574,1707c9-28,6-58,3-87-4-26-1-52-7-76-15-59,0-117,31-166,6.76-10.51,16.9-17.64,27.47-25.2-27.49,8.08-51.82,19.22-67.34,30.7-35.12,26-49.35,69.35-55.1,111.12-5.84,42.44,13.45,93.56,13.93,136.16.35,32.09,6.1,15.08,6.38,47.14.24,27.6-22,99.16-5.24,122.66,13.11,18.41,37.06,30.38,60,29.58a55.75,55.75,0,0,0,21.26-4.89,69.29,69.29,0,0,0,8.69-4.76c-10.62-.73-21-3.15-31-9.51C1542,1787,1563,1741,1574,1707Z"/><path class="cls-2-275" d="M1949,1744c-35-25-34-71-35-109-1-44,11-88-1-132-5-14-12-28-26-37-22-16-52-27-73-16-14.63,7.75-21.86,27.33-37.62,35.83,26,3.39,53.58-6.68,79.92-2.07,7,1.21,14.28,3.45,18.64,9,8.53,10.87,4.87,30.08,5,43.1.33,31.18-.68,62.36-1.93,93.51-1.07,26.74-3.82,53.78-.92,80.47,4.14,38.17,21,75.85,64.5,76.91a71.46,71.46,0,0,0,55.11-24.42c8.2-9.53,11.23-21.41,11.52-34.25-6.56,4.37-14.07,7.83-20.23,10.91C1977,1744,1961,1753,1949,1744Z"/><path class="cls-3-275" d="M1806.82,1395.43c3.81,28.87,5.21,68.12-22.39,86.38-20,13.23-46.83,11.49-69.7,11-16.46-.37-34.91-2.09-50.67,3.79-38.42,14.36-23.29,88.4-20.94,118.34,3.54,45.09,10.46,91.54,3.05,136.59-4.85,29.46-17.62,57.59-43.82,73.77-28.11,12.72-64-.51-81.25-24.69-16.72-23.5,5.48-95.06,5.24-122.66.48-75-28.88-108.51-20.31-183.3,6.64-135.9,163.67-173.16,274.18-144.52,69.48-6.16,154.7.62,201,59.84,47.55,71.45-3.41,171.57,15.94,245.55,13.57,51.91,15.61,133.69-55.57,131.27-88.48-16.93-66.52-127-61.53-191.68,2-25.22,1-50.49,1.9-75.74.5-13.76-4.47-26.43-17.53-32.23-26.48-11.77-60.15.68-88-1.26"/></g><defs><style>.cls-1-2{fill:#bababa;}.cls-1-2,.cls-2-2,.cls-5-2,.cls-6-2{stroke:#000;stroke-miterlimit:10;}.cls-1-2,.cls-6-2{stroke-width:9px;}.cls-2-2{fill:#565656;}.cls-2-2,.cls-5-2{stroke-linecap:round;stroke-width:13px;}.cls-3-2{fill:#8c8c8c;}.cls-4-2{fill:#383838;}.cls-5-2{fill:none;}.cls-6-2{fill:#ff0;}</style></defs><g id="BOMB"><path class="cls-1-2" d="M2273,1508.75a39.11,39.11,0,0,1,11.72-30.21c14.17-14,37.55-18.1,53.24-17.3,6.09.31,12.06,1,17.84,1.77,4.66.58,9.06,1.13,13.5,1.47,3.5.26,7.15.4,10.11-.41,8.32-2.28,8.63-14.29,6.87-21.32l18.43-4.61a46.15,46.15,0,0,1-.53,24.78c-3.25,10-10.26,16.87-19.75,19.47-5.75,1.58-11.36,1.43-16.57,1-4.89-.37-9.73-1-14.41-1.55-5.69-.71-11.06-1.38-16.45-1.66-12.77-.65-29.76,2.75-38.89,11.82a20,20,0,0,0-6.13,15.89Z"/><path class="cls-2-2" d="M2092.44,1870.79a168.56,168.56,0,1,0-59.67-83.6L2034,1789c20.75.63,37.68,16.61,44,36.23,0,0,11.94,32.29,13.06,56.31"/><path class="cls-2-2" d="M2310.15,1613.17l24.4-58.89c4.76-13.82-18.55-34.39-52.06-45.94s-64.56-9.72-69.32,4.09l-19.52,54.15"/><ellipse class="cls-3-2" cx="2250.45" cy="1667.53" rx="60.33" ry="96.07" transform="translate(-442.42 2438.03) rotate(-52.5)"/><path class="cls-4-2" d="M2223,1866.68a163.31,163.31,0,0,1-120.83-273.18,169.18,169.18,0,0,0-69.36,193.69L2034,1789c20.75.63,37.68,16.61,44,36.23,0,0,11.94,32.29,13.06,56.31l1.41-10.76a169,169,0,0,0,251.09-57.27A162.87,162.87,0,0,1,2223,1866.68Z"/><path class="cls-5-2" d="M2092.44,1870.79a168.56,168.56,0,1,0-59.67-83.6L2034,1789c20.75.63,37.68,16.61,44,36.23,0,0,11.94,32.29,13.06,56.31"/><path class="cls-6-2" d="M2433,1377.06a9.5,9.5,0,0,0-13.06,3.15l-6.88,11.28.79-4a9.5,9.5,0,0,0-18.64-3.69l-.21,1.06L2393,1374.1a9.5,9.5,0,1,0-18.66,3.58l3.12,16.23-4.56-5.92a9.5,9.5,0,0,0-16.07,9.94l-9.87-7.38a9.5,9.5,0,0,0-11.39,15.21L2388,1445c.23.17.47.33.71.48a9.42,9.42,0,0,0,1.71,1.33,9.26,9.26,0,0,0,2.9,1.17,9.52,9.52,0,0,0,10.16-4.32l32.71-53.56A9.5,9.5,0,0,0,2433,1377.06Z"/><circle class="cls-6-2" cx="2314.08" cy="1379.61" r="9.93"/><circle class="cls-6-2" cx="2442.05" cy="1352.97" r="11.45"/><circle class="cls-6-2" cx="2379.16" cy="1342.84" r="10.14"/><circle class="cls-6-2" cx="2416.28" cy="1307.72" r="10.14"/><circle class="cls-6-2" cx="2331.74" cy="1327.99" r="10.14"/></g></svg>